<svg xmlns="http://www.w3.org/2000/svg" width="160" height="43.03" viewBox="0 0 160 43.03"><defs><style>.logo-brown{fill:#312c22;}.logo-pink{fill:#bda7b4;}.logo-skin{fill:#fdd6b4;}</style></defs><title>logo</title><path class="logo-brown" d="M75.4,18.9a3.59,3.59,0,0,1-.07-1.46c0-.12,0-.21,0-.33,0-.81,0-1.62,0-2.41v-.3c0-.37,0-.72,0-1.11,0-.07,0-.17,0-.26-.23-1.83-.23-3.64-.33-5.49,0-.63,0-1.74-.78-2H74l-.21.07h-.23a1.58,1.58,0,0,1-.43-.05l-.23,0a.85.85,0,0,0-.46.18l-.12.09a.82.82,0,0,0-.58.67.82.82,0,0,0,0,.22,9,9,0,0,0,.19,2.64c0,.09,0,.18,0,.25,0,.58.05.77.05,1.33H71.8a.74.74,0,0,0-.65,0A.66.66,0,0,0,71,11a2.77,2.77,0,0,1-2,.35c-.45-.16-.15-.69,0-1.18,0-.07,0-.17.05-.26a17.32,17.32,0,0,1-.25-3.13,2,2,0,0,0-.08-.26,2.24,2.24,0,0,0-.65-.9l-.27-.09a1.86,1.86,0,0,0-.33,0h-.28a1.54,1.54,0,0,1-.3,0l-.6.07a1.31,1.31,0,0,0-.35.19A1,1,0,0,0,65.44,7c0,.09,0,.18.07.26a3.43,3.43,0,0,1,.07.78v.4c0,.1,0,.2,0,.3V9c0,.49,0,1,0,1.51v.28c0,1.51,0,3,0,4.59v.35a6.77,6.77,0,0,1,0,2.29v.26c0,.37,0,.72,0,1.07,0,.09,0,.18,0,.25a1.22,1.22,0,0,0,.67,1,1.52,1.52,0,0,0,.82-.05l.23,0a1.43,1.43,0,0,1,.46.07.86.86,0,0,0,.23,0,.73.73,0,0,0,.45-.19l.09-.07c.72-.21.64-1,.6-1.64,0-.08,0-.21,0-.3,0-.28,0-.58-.07-.84,0-.09,0-.19,0-.28s0-.18,0-.26,0-.18,0-.25a1.58,1.58,0,0,0,0-.25,1,1,0,0,1,.56-1.33l.11,0,.28-.09c.67-.12,1.32-.66,2-.21A1.39,1.39,0,0,1,72,16.41c0,.07,0,.16,0,.23a5.65,5.65,0,0,1,.19,1.09c0,.45-.46.91-.23,1.49a2.29,2.29,0,0,0,.07.28,1.39,1.39,0,0,0,1.35,1.2l.28,0,.29,0,.61-.07.18-.07a1.4,1.4,0,0,0,.61-1.3A.69.69,0,0,0,75.4,18.9Z" transform="translate(0 0)"/><path class="logo-brown" d="M95.19,12.17a17.37,17.37,0,0,1-1-2.71,7.74,7.74,0,0,0-1.32-3.32,3.86,3.86,0,0,0-.44-.38,2.75,2.75,0,0,0-1.92-.51,2.84,2.84,0,0,0-1.61.82,4.66,4.66,0,0,0-1.2,2.71c-.13,1-.07,2-.13,3-.08,2.62-1.9,5.17-1.1,7.87a2,2,0,0,0,.3.67.92.92,0,0,0,.63.28,4.41,4.41,0,0,0,1.62.16A1.61,1.61,0,0,0,90.3,20a3.69,3.69,0,0,0,.29-1.23.92.92,0,0,1,1.81-.23A6.37,6.37,0,0,0,93,19.74a1.77,1.77,0,0,0,2.07.48,2.82,2.82,0,0,0,1.46-1.66,5.45,5.45,0,0,0,0-3.32A22.86,22.86,0,0,0,95.19,12.17Zm-3.13.51a1.9,1.9,0,0,1-1.79-.44,1.06,1.06,0,0,1-.26-.53c0-.28,0-.58,0-.86,0-1.14,1.53-.91,1.72-.52a7.71,7.71,0,0,1,.65,1.95,1,1,0,0,1-.34.4Z" transform="translate(0 0)"/><path class="logo-brown" d="M117.35,8a2.15,2.15,0,0,0-.14-.26c-.26-.4-.61-.76-.88-1.11l-.14-.16a1.1,1.1,0,0,1-.18-.14l-.22-.12-.2-.12a4.35,4.35,0,0,0-.63-.25l-.25,0a10.6,10.6,0,0,0-1.95-.23,2.4,2.4,0,0,0-.28,0,6.8,6.8,0,0,0-1.74-.28l-.28,0a1.62,1.62,0,0,0-.77.21,1.23,1.23,0,0,0-.25.14l-.6.42c-.07,0-.14.12-.21.18-1.3,2.26-1.11,4.92-1,7.45v.24a18.88,18.88,0,0,0,.12,2.38c0,.08,0,.21,0,.3,0,.91,0,1.84,0,2.74,0,.07,0,.17,0,.24a1.25,1.25,0,0,0,.67,1,1.8,1.8,0,0,0,.83-.07h.22a2.31,2.31,0,0,1,.46.05l.23,0a.8.8,0,0,0,.46-.18l.08-.09c.7-.19.64-1,.6-1.61,0-.13,0-.23,0-.34,0-.28-.06-.56-.07-.84,0-.09,0-.19,0-.28s0-.44-.07-.67a.86.86,0,0,1,0-.23c0-.44-.19-1,.18-1.16a3.82,3.82,0,0,1,.79-.51,1,1,0,0,0,.28-.14c1.4-.82,3-1.54,3.8-2.93a.08.08,0,0,0,0,.05c.18-.42.63-.79.72-1.28,0-.09,0-.18.09-.25a4.15,4.15,0,0,0,.47-1.79A.68.68,0,0,0,117.35,8ZM113.5,9.39l0,0c0,.26-.33.42-.42.61l-.14.12a1.53,1.53,0,0,1-.13.16l-.17.18a4.62,4.62,0,0,1-.55.35.34.34,0,0,1-.17.05,1.28,1.28,0,0,1-.55,0,.62.62,0,0,1-.09-.26,1.72,1.72,0,0,0,0-.26.67.67,0,0,1,0-.2V8.43c0-.06,0-.09,0-.14h.34c.14,0,.26,0,.4,0l.21,0a3.65,3.65,0,0,1,1.23.07.79.79,0,0,1,.16,1.09Z" transform="translate(0 0)"/><path class="logo-brown" d="M136.86,11.54a.08.08,0,0,0,0,.05c.18-.42.63-.79.72-1.28,0-.09.05-.18.09-.25a4.15,4.15,0,0,0,.47-1.79.55.55,0,0,0-.07-.25,1.3,1.3,0,0,0-.14-.26c-.26-.4-.61-.76-.88-1.11a1.07,1.07,0,0,0-.14-.16l-.17-.14a1.27,1.27,0,0,0-.23-.12l-.19-.12a5,5,0,0,0-.64-.25l-.24-.05a10,10,0,0,0-1.95-.23l-.29,0a7.27,7.27,0,0,0-1.74-.28,1.34,1.34,0,0,1-.28,0,1.62,1.62,0,0,0-.77.21.89.89,0,0,0-.25.14l-.6.42-.21.18c-1.3,2.26-1.1,4.92-1,7.45v.24a18.72,18.72,0,0,0,.12,2.37c0,.09,0,.22,0,.3,0,.92,0,1.85,0,2.75a2,2,0,0,1,0,.24,1.28,1.28,0,0,0,.67,1,1.8,1.8,0,0,0,.83-.07h.23a1.73,1.73,0,0,1,.45.05l.23,0a.93.93,0,0,0,.46-.18.2.2,0,0,1,.09-.09c.7-.19.63-1,.6-1.62,0-.12,0-.22,0-.33,0-.28-.05-.56-.07-.84,0-.09,0-.2,0-.28s-.05-.44-.07-.67a1.79,1.79,0,0,1,0-.23c0-.44-.19-1,.18-1.16a4.1,4.1,0,0,1,.79-.51,1,1,0,0,0,.28-.14C134.47,13.64,136,12.91,136.86,11.54ZM134.2,9.39s0,0,0,0c0,.26-.33.42-.42.61l-.14.12-.12.16-.18.18a3.94,3.94,0,0,1-.55.35.34.34,0,0,1-.17.05,1.28,1.28,0,0,1-.55,0,.79.79,0,0,1-.08-.26c0-.09,0-.19-.06-.26a.67.67,0,0,1,0-.2V8.43c0-.06,0-.09,0-.15h.34c.14,0,.26,0,.4,0l.21,0A3.63,3.63,0,0,1,134,8.3a.8.8,0,0,1,.17,1.09Z" transform="translate(0 0)"/><path class="logo-brown" d="M152.41,13.71a3.93,3.93,0,0,1,.51,2.68c0,.66,0,1.31,0,2v.5c-.06.47-.42.93-.14,1.4s.9.44,1.46.44h.28c1.46-.07,2-1.3,1.93-2.58a11.18,11.18,0,0,0-.12-1.42c-.07-.39-.2-.76-.23-1.13a3.69,3.69,0,0,1,.3-1.76,12,12,0,0,1,.69-1.61c.65-1,1.56-1.53,1.91-2.78a9.82,9.82,0,0,1,.62-1.9c.12-.23.24-.44.35-.67a.86.86,0,0,0,0-.63,1.56,1.56,0,0,0-1.12-.67,1.94,1.94,0,0,0-1.64.81l-.17.24a10.19,10.19,0,0,1-1.74,2.55c-.06.06-.09.13-.14.18s-.27.33-.4.49l-.22-.37-.19-.26-.49-.83L153.52,8a.94.94,0,0,0-.12-.18,2.75,2.75,0,0,0-2.83-2.46l-.26.07a1.28,1.28,0,0,0-.28.16l-.25.18c-1.09.72-1,1.91-.25,2.91a1.41,1.41,0,0,0,.18.29,5.49,5.49,0,0,0,.62.75.8.8,0,0,0,.08.16l.09.16a15.76,15.76,0,0,1,1,1.77A11.67,11.67,0,0,0,152.41,13.71Z" transform="translate(0 0)"/><path class="logo-brown" d="M73.1,34.28l-.52-.5a1,1,0,0,1-.18-.17,4.4,4.4,0,0,1-.39-.35,1.07,1.07,0,0,0-.19-.18A4.46,4.46,0,0,1,71,32.5a.69.69,0,0,1-.16-.18c-.07,0-.1-.1-.18-.15-.56-.25-.79-.55-.8-.86a.67.67,0,0,1,0-.2c0-.07.07-.16.11-.23a2.17,2.17,0,0,0,.07-.24.92.92,0,0,0,.09-.23A7.13,7.13,0,0,1,71.08,29a1.29,1.29,0,0,1,.16-.17,6.11,6.11,0,0,1,1.51-2.18l.16-.14a.76.76,0,0,0,.23-.72c0-.3-.23-.85-.65-.87a1,1,0,0,0-.23-.12,1.08,1.08,0,0,0-1,.34,1.14,1.14,0,0,0-.16.15c-.56.65-.86,1.57-1.75,1.92l-.16.14a4.94,4.94,0,0,0-.85.86c0-.31-.15-.54-.14-.84,0-.07,0-.13,0-.2-.23-.79.15-1.84-.58-2.33a.37.37,0,0,0-.16-.07.75.75,0,0,0-.39-.07h-.23a2,2,0,0,1-.24,0l-.5.07a1.56,1.56,0,0,0-.28.16.9.9,0,0,0-.38,1,1.55,1.55,0,0,1,.07.23,1,1,0,0,0,0,.17s0,.11,0,.16c-.06,1.11,0,2.25,0,3.37v.25a4.54,4.54,0,0,1,0,2.37v.23c0,.42,0,.86,0,1.28v.21a3.7,3.7,0,0,1,0,1.15c0,.09,0,.16,0,.24s0,.16,0,.23a1.4,1.4,0,0,0,1.45,1.34l.22,0,.19,0h.19a.77.77,0,0,0,.39-.14l.07-.09c.6-.16.53-.84.49-1.33,0-.09,0-.18,0-.27s0-.45-.07-.7c0-.07,0-.14,0-.23a6.11,6.11,0,0,1-.09-.86l.16.16c.19.18.38.33.58.51l.19.16c.7.67,1.09,1.58,1.81,2.27a1.15,1.15,0,0,1,.14.17.83.83,0,0,0,.18.13,1.13,1.13,0,0,0,1,.26c.19-.14.42-.23.54-.47.05-.06.09-.07.14-.13a1.7,1.7,0,0,1,.35-.19.91.91,0,0,0,.16-.11.7.7,0,0,0,.23-.35.36.36,0,0,1,0-.1c.38-.51-.14-1-.5-1.34A1,1,0,0,0,73.1,34.28Z" transform="translate(0 0)"/><path class="logo-brown" d="M89.11,33.64a6.54,6.54,0,0,1-1.37-.28,3.24,3.24,0,0,1-1.23-.88.43.43,0,0,1,0-.61.47.47,0,0,1,.26-.11,7.6,7.6,0,0,0,1.65-.12,1.38,1.38,0,0,0,.86-1A1.67,1.67,0,0,0,89,29.41a.77.77,0,0,0-.75-.32h0l-2,0-.47,0a.16.16,0,0,1-.16-.15v0a1.58,1.58,0,0,1,.33-.72c.7-.79,1.85-.25,2.75-.58a1.54,1.54,0,0,0,1-1,1.93,1.93,0,0,0-.31-1.4.91.91,0,0,0-.86-.35H86.3A3.31,3.31,0,0,0,84,25.3a3.09,3.09,0,0,0-.86,1.61A12,12,0,0,0,84,35.05a3.77,3.77,0,0,0,1.1,1.49,4,4,0,0,0,2.38.61A3.13,3.13,0,0,0,89,36.91a2.76,2.76,0,0,0,.93-1,1.66,1.66,0,0,0,.3-1.49A1.35,1.35,0,0,0,89.11,33.64Z" transform="translate(0 0)"/><path class="logo-brown" d="M108.92,25a1,1,0,0,0-.23-.07l-.25,0h-.23a2.21,2.21,0,0,0-1.52.72,1,1,0,0,0-.16.2c-.7,1.14-1.07,2.5-2.23,3.21a.86.86,0,0,1-.23,0,.64.64,0,0,1-.56-.33.58.58,0,0,1-.07-.21c-.18-.25-.09-.62-.23-.86a13.73,13.73,0,0,1-1.27-2.36l-.07-.15a1.07,1.07,0,0,0-1-.53l-.22,0h-.25a2.76,2.76,0,0,1-.49.07,1.28,1.28,0,0,0-.28.16.9.9,0,0,0-.39,1,1.55,1.55,0,0,1,.07.23,2.81,2.81,0,0,1,.07.65V27a1,1,0,0,1,0,.25v.26a58.14,58.14,0,0,0,0,6.05c0,.07,0,.16,0,.24,0,.76,0,1.52,0,2.27,0,.07,0,.12,0,.21a1,1,0,0,0,.55.79c.22,0,.45.09.68,0h.19a1.74,1.74,0,0,1,.39,0,.62.62,0,0,0,.19,0,1.07,1.07,0,0,0,.39-.14.23.23,0,0,1,.07-.07c.6-.18.53-.86.49-1.34,0-.07,0-.17,0-.24,0-.23-.06-.48-.08-.7s0-.16,0-.23c-.06-.53-.11-1.05-.13-1.6a4.21,4.21,0,0,1,.06-1.62,2.16,2.16,0,0,1,.51.78A2,2,0,0,0,104.26,33a1.83,1.83,0,0,0,1.49-1c.16-.24.34-.82.6-1a7.82,7.82,0,0,1,.07,1.37c0,.09,0,.16,0,.23a6.51,6.51,0,0,1,.08,1.17.87.87,0,0,1,0,.23c-.21,1.2-.51,3.32,1.31,3H108a1.14,1.14,0,0,0,1.11-.86.76.76,0,0,0,0-.21c0-.74,0-1.49,0-2.27v-.24a19.34,19.34,0,0,0-.31-2.27.67.67,0,0,1,0-.24,12.12,12.12,0,0,1,.23-2.82c0-.07,0-.14,0-.23s0-.14,0-.22c.06-.6.07-1.22.16-1.81a.78.78,0,0,1,0-.16,1.61,1.61,0,0,0-.1-.69A.26.26,0,0,1,108.92,25Z" transform="translate(0 0)"/><path class="logo-brown" d="M126.09,26.7a1,1,0,0,1-.11-.23c-.23-.33-.51-.61-.72-.91l-.11-.12-.14-.11a.56.56,0,0,0-.19-.09.35.35,0,0,0-.16-.08l-.52-.22-.22-.05a9.69,9.69,0,0,0-1.61-.19l-.23,0a5.84,5.84,0,0,0-1.44-.22l-.23,0a1.27,1.27,0,0,0-.63.17l-.21.11c-.16.1-.34.23-.5.35l-.17.14c-1.07,1.86-.92,4.06-.81,6.15v.21a18.43,18.43,0,0,0,.09,2c0,.09,0,.18,0,.25,0,.75,0,1.51,0,2.26l0,.22a1.05,1.05,0,0,0,.55.8,1.06,1.06,0,0,0,.68-.07h.19A1.76,1.76,0,0,1,120,37a.61.61,0,0,0,.19,0,.8.8,0,0,0,.39-.14.27.27,0,0,1,.07-.08c.58-.16.53-.85.49-1.34,0-.09,0-.19,0-.26,0-.23,0-.46-.07-.7,0-.07,0-.16,0-.23a3.45,3.45,0,0,1-.07-.55.62.62,0,0,1,0-.19c0-.37-.16-.83.14-1a4,4,0,0,1,.65-.42l.23-.1a8.37,8.37,0,0,0,3.13-2.43.17.17,0,0,0,0,.05c.14-.35.52-.65.6-1.05a1.89,1.89,0,0,1,.09-.21,3.23,3.23,0,0,0,.38-1.49A.33.33,0,0,0,126.09,26.7Zm-3.19,1.14s0,0-.05,0c0,.23-.26.35-.35.51a1,1,0,0,0-.1.09l-.09.12-.14.14a3,3,0,0,1-.44.28.24.24,0,0,1-.14.05.82.82,0,0,1-.44,0,.43.43,0,0,1-.09-.22,1.89,1.89,0,0,1,0-.23c0-.05,0-.09,0-.16V27s0-.07,0-.11h.26l.34,0a.47.47,0,0,1,.17,0,2.51,2.51,0,0,1,1,.07A.64.64,0,0,1,122.9,27.84Z" transform="translate(0 0)"/><path class="logo-brown" d="M141.37,33.64a6.54,6.54,0,0,1-1.37-.28,3.24,3.24,0,0,1-1.23-.88.43.43,0,0,1,0-.61.5.5,0,0,1,.26-.11,7.69,7.69,0,0,0,1.66-.12,1.42,1.42,0,0,0,.86-1,1.63,1.63,0,0,0-.29-1.26.76.76,0,0,0-.75-.32h0l-2,0-.47,0a.16.16,0,0,1-.16-.15v0a1.5,1.5,0,0,1,.34-.72c.7-.79,1.84-.25,2.74-.58a1.57,1.57,0,0,0,1-1,1.93,1.93,0,0,0-.32-1.4.9.9,0,0,0-.86-.35h-2.22a3.27,3.27,0,0,0-2.26.49,3,3,0,0,0-.86,1.61,12,12,0,0,0,.77,8.14,3.79,3.79,0,0,0,1.11,1.49,3.94,3.94,0,0,0,2.37.61,3.11,3.11,0,0,0,1.54-.24,2.87,2.87,0,0,0,.94-1,1.69,1.69,0,0,0,.3-1.49A1.38,1.38,0,0,0,141.37,33.64Z" transform="translate(0 0)"/><path class="logo-brown" d="M159.69,35.15q-.25-.23-.51-.42A6.49,6.49,0,0,1,157.82,33a2,2,0,0,1-.38-1.3c.19-1,1.65-1.18,2-2.09s-.32-2.16-.85-2.83a5.32,5.32,0,0,0-2.35-1.64,7.83,7.83,0,0,0-3.22-.42,1.62,1.62,0,0,0-1.37.62,1.88,1.88,0,0,0-.16.7,20.5,20.5,0,0,0,.39,3.11c.25,2.39-.56,4.81-.21,7.19.07.36.19.77.53.9a1.43,1.43,0,0,0,.65,0c.58-.05,1.3,0,1.61-.44a1.33,1.33,0,0,0,.14-.9c-.07-1-.14-2.09-.22-3.12a9.7,9.7,0,0,0,1.14,1.35,6.32,6.32,0,0,1,.86.93c.32.46.49,1,.79,1.46a1.49,1.49,0,0,0,1.35.79,1.67,1.67,0,0,0,.72-.35c.43-.32.87-.83.7-1.34A1.19,1.19,0,0,0,159.69,35.15Zm-3.94-5.88-.16.05-.07,0-.19.07h-.07c-.16,0-.32,0-.46,0h-.07a1,1,0,0,0-.24,0h-.06c0-.22,0-.43,0-.66v-.13c.17-.37-.09-.7.08-1v-.09a3.65,3.65,0,0,1,1.09.28l.16.07a2.82,2.82,0,0,1,.3.09c.06,0,.09.07.13.09.44.31-.09.94-.46,1.21Z" transform="translate(0 0)"/><g id="logo-icon"><path class="logo-pink" d="M37.52,34.79c-.31.36-.66.67-1,1s-.61.72-1,1-.74.58-1.12.89-.76.58-1.12.89-.64.73-1,1a11.75,11.75,0,0,1-1.25.7,7.38,7.38,0,0,1-1.28.5,11.86,11.86,0,0,1-1.29.5c-.44.09-.93,0-1.38.09s-.73.2-1.1.27-.74.16-1.12.22-.75.14-1.12.18-.76,0-1.14,0a11.93,11.93,0,0,1-1.2,0c-.39,0-.81,0-1.2,0s-.83,0-1.23,0-.75-.34-1.14-.43-.79-.17-1.17-.3-.77-.22-1.14-.36-.78-.21-1.15-.38-.75-.43-1.14-.63-.82-.31-1.2-.52-.66-.58-1-.81-.75-.44-1.09-.7-.75-.46-1.08-.74-.52-.69-.82-1-.62-.45-.86-.73-.38-.66-.61-.95-.47-.58-.69-.89-.52-.55-.73-.85-.47-.71-.68-1.08a12.06,12.06,0,0,1-.52-1.16c-.17-.39-.35-.77-.5-1.17s-.22-.82-.34-1.22-.35-.79-.45-1.2-.1-.84-.18-1.27-.18-.82-.25-1.25,0-.8,0-1.21-.13-.79-.13-1.2,0-.8.08-1.2.12-.79.17-1.19.1-.79.17-1.18.09-.8.18-1.19A11.94,11.94,0,0,1,3,16c.11-.38.3-.75.42-1.12s.27-.86.45-1.27.31-.84.52-1.24.46-.77.7-1.16.5-.74.76-1.11.54-.72.83-1.06.65-.62,1-.94.62-.64,1-.94.55-.62.87-.87.73-.4,1.08-.62.66-.49,1-.69.72-.4,1.1-.58.77-.31,1.15-.46.75-.31,1.15-.45.79-.34,1.19-.47.83-.2,1.24-.31.81-.25,1.23-.33.85-.07,1.28-.14S20.68,2,21.11,2,22,2,22.39,2s.82,0,1.22,0,.79.2,1.2.25.8.09,1.2.17.81.09,1.2.18.76.27,1.15.39.77.26,1.15.4.79.22,1.16.38.68.46,1,.66.78.26,1.12.48.68.44,1,.68.56.6.87.85.72.42,1,.69.62.59.9.89.5.69.77,1,.54.64.78,1,.59.63.81,1,.42.73.63,1.1.41.74.6,1.12.2.83.36,1.22.42.74.54,1.14.17.83.28,1.24.19.81.27,1.23.28.8.34,1.22.17.85.2,1.27,0,.85,0,1.29,0,.85,0,1.28-.17.84-.22,1.27-.13.84-.21,1.25-.17.84-.27,1.25-.19.82-.32,1.23-.12.86-.27,1.26-.49.72-.67,1.1-.24.84-.44,1.21-.46.73-.69,1.09-.43.74-.68,1.08S37.8,34.46,37.52,34.79Z" transform="translate(0 0)"/><path class="logo-brown" d="M33.87,20a1.64,1.64,0,0,0-1-.62h0c0-.25.09-.5.12-.74s.1-.73.16-1.09.12-.73.19-1.09.11-.73.18-1.1.08-.73.13-1.1a10,10,0,0,0,.06-1.1c0-.08.12-.12.1-.19a.76.76,0,0,0-.1-.55c-.2-.31-.54-.53-.75-.83s-.41-.6-.63-.9-.45-.62-.69-.9c.34-.36.88-.75.88-1.25A.66.66,0,0,0,32.15,8a8,8,0,0,0-1.36-.45A11.9,11.9,0,0,1,29.29,7s.09-.16.12-.2a.62.62,0,0,0-.22-.85A.58.58,0,0,0,29,5.82c-.42-.07-.85-.13-1.27-.17a11,11,0,0,0-1.28-.05c-.42,0-.85.05-1.27.1s-.84.17-1.25.28a12.49,12.49,0,0,0-1.23.37.8.8,0,0,0-.29-.66,1.48,1.48,0,0,0-1.55-.15c-.37.13-.78.19-1.17.31l-1.17.35c-.39.12-.73.36-1.12.5a12,12,0,0,0-1.13.44c-.36.16-.71.37-1.06.56a7.83,7.83,0,0,0-1.05.62,7.7,7.7,0,0,0-.94.77,6.9,6.9,0,0,0-.67,1,7.18,7.18,0,0,1-.65.91c-.23.29-.46.58-.69.89a6.24,6.24,0,0,0-.54,1A2.85,2.85,0,0,0,10.47,14a8.35,8.35,0,0,0,0,1c0,.33.06.67.1,1s-.06.68,0,1,.22.69.24,1,0,.7,0,1.06v.21a1.49,1.49,0,0,0-.75.13,2,2,0,0,0-.84.82,2.89,2.89,0,0,0-.42,1.1,4.25,4.25,0,0,0,.1,1.18,4.19,4.19,0,0,0,.33,1,9,9,0,0,0,.3,1,1.75,1.75,0,0,1,.24,1.39A2.7,2.7,0,0,0,9.51,27,1.74,1.74,0,0,0,10,28a2.43,2.43,0,0,0,1.11.33l.64.12s0,.08,0,.11A6.89,6.89,0,0,0,12,29.69a8,8,0,0,0,.35,1.08,10.34,10.34,0,0,0,.62.95,8.16,8.16,0,0,0,.52,1c.26.27.53.53.82.78a8.47,8.47,0,0,0,.89.69c.33.24.64.52.94.78s.53.63.83.9.58.56.89.83a3,3,0,0,0,.95.57,3.16,3.16,0,0,0,1.1.13c.36,0,.73,0,1.11,0a8.52,8.52,0,0,1,1.13,0c.1,0,.19.13.29.14s.41.06.62.07.7-.11,1.06-.09a1.78,1.78,0,0,0,1.13-.18,3.53,3.53,0,0,0,.93-.75c.3-.36.6-.73.86-1.11s.45-.83.71-1.22.35-.64.54-.94.36-.62.56-.92.41-.6.59-.91.36-.62.53-.94.41-.6.56-.93a4,4,0,0,0,.24-1.08,1.76,1.76,0,0,0,.93-.23,1.84,1.84,0,0,0,.72-.69,2.2,2.2,0,0,0,.33-.86,7,7,0,0,0,.1-.91,4.87,4.87,0,0,1,.26-1.26c.15-.39.39-.74.57-1.15A6.53,6.53,0,0,0,34,22.29a3.53,3.53,0,0,0,.24-1.16A2,2,0,0,0,33.87,20Z" transform="translate(0 0)"/><path class="logo-brown" d="M43,21.39c0-.4,0-.8-.05-1.2s0-.84-.06-1.25-.19-.81-.27-1.22-.08-.84-.18-1.24-.17-.82-.29-1.22-.42-.74-.56-1.13-.21-.8-.38-1.19-.3-.78-.47-1.16-.52-.67-.73-1-.27-.82-.5-1.16-.52-.66-.77-1-.53-.64-.79-1-.55-.61-.84-.92-.54-.67-.85-1-.59-.63-.92-.9-.7-.5-1-.76-.77-.39-1.14-.62-.63-.61-1-.82S31.36,2.28,31,2.1s-.8-.32-1.2-.49-.84-.21-1.25-.34-.79-.34-1.2-.46S26.47.7,26.05.61,25.23.27,24.81.2,24,.13,23.52.1s-.9,0-1.35,0S21.27,0,20.82,0s-.88.22-1.33.28-.91,0-1.35.07-.88.18-1.32.28S16,1,15.54,1.08s-.85.28-1.27.42-.87.24-1.29.4-.82.36-1.23.55-.83.34-1.23.55a11.7,11.7,0,0,0-1.1.79c-.38.24-.78.43-1.15.7s-.63.53-.95.81-.7.47-1,.77-.53.66-.81,1S5,7.64,4.68,8s-.56.63-.8,1-.47.7-.69,1.06-.36.75-.56,1.12-.36.75-.53,1.14-.39.74-.53,1.13-.24.8-.36,1.2-.16.81-.26,1.22S.74,16.6.67,17a.55.55,0,0,0-.08.15,10.21,10.21,0,0,0-.3,1.33c-.08.44-.22.89-.26,1.34s0,.9,0,1.35.14.91.17,1.36,0,.91,0,1.37.17.74.23,1.11.15.74.23,1.11.12.75.21,1.12.23.87.36,1.28.36.81.53,1.22.32.82.53,1.21.46.75.69,1.14.4.8.66,1.16.63.63.9,1,.51.71.79,1.06.54.61.82.92.46.69.76,1,.63.53,1,.79.68.45,1,.69.64.51,1,.73.7.42,1.06.62.76.3,1.13.48.71.49,1.1.66.83.21,1.22.36.79.31,1.19.45.77.4,1.18.52.85.07,1.27.15.83.14,1.26.18.83.18,1.26.19.8,0,1.2,0,.78-.16,1.18-.2.79,0,1.18-.11l1.18-.2c.39-.06.79,0,1.18,0s.75-.24,1.13-.32.78-.06,1.17-.16.76-.2,1.13-.33A8,8,0,0,0,31,41a10,10,0,0,0,1-.69c.34-.23.69-.43,1-.68l.95-.77c.32-.26.71-.43,1-.68s.63-.52.93-.79.6-.54.89-.82.56-.59.83-.89.43-.7.69-1,.66-.51.9-.84.34-.74.57-1.09.44-.67.64-1,.31-.73.49-1.1.42-.69.56-1.06.33-.74.45-1.12.07-.82.18-1.2.27-.75.36-1.14.12-.79.18-1.18.24-.78.28-1.18.12-.8.14-1.2S43,21.78,43,21.39Zm-1.4,1.13c0,.43-.17.84-.22,1.27s-.13.84-.21,1.25-.18.84-.28,1.25-.18.82-.31,1.23-.13.86-.28,1.26-.49.73-.66,1.11-.25.83-.45,1.2-.45.73-.68,1.09-.43.74-.69,1.08-.58.63-.86,1-.67.68-1,1-.62.73-1,1.06-.75.57-1.12.89-.76.58-1.13.88-.64.74-1,1a13.81,13.81,0,0,1-1.25.7,8.28,8.28,0,0,1-1.28.5c-.42.19-.85.35-1.29.5s-.94,0-1.38.08-.73.21-1.1.27-.74.17-1.12.23l-1.12.18c-.38,0-.76,0-1.14,0s-.81,0-1.2,0-.81,0-1.2,0-.82,0-1.22,0-.75-.34-1.14-.43-.78-.17-1.16-.29-.78-.23-1.15-.37-.79-.21-1.15-.38-.75-.43-1.14-.63-.82-.31-1.2-.51-.66-.59-1-.82-.75-.44-1.09-.7-.75-.46-1.08-.74-.52-.69-.82-1-.62-.44-.86-.73-.38-.66-.61-1-.47-.58-.69-.88-.52-.56-.73-.86-.47-.71-.68-1.08a12.06,12.06,0,0,1-.52-1.16c-.17-.39-.35-.77-.5-1.17s-.22-.82-.34-1.22-.35-.79-.45-1.2S2,25.48,1.9,25.05s-.18-.82-.25-1.25,0-.8,0-1.2-.13-.79-.13-1.2.05-.8.08-1.2.12-.79.17-1.2.1-.79.17-1.18S2,17,2.1,16.63s.17-.79.28-1.17.3-.76.43-1.13.27-.86.45-1.27.31-.84.52-1.24.46-.77.7-1.16.5-.74.76-1.11.54-.72.83-1.06.65-.62,1-.94.62-.64,1-.94.56-.62.88-.87.73-.4,1.08-.62.66-.49,1-.69.72-.4,1.1-.57.76-.31,1.15-.47S14,3.08,14.36,3s.78-.34,1.19-.47.83-.21,1.24-.32.81-.24,1.23-.33.85-.07,1.27-.13.83-.25,1.26-.28.86,0,1.28,0,.82,0,1.22,0,.79.2,1.2.26.8.08,1.2.16.81.09,1.2.19.76.26,1.15.39.77.25,1.15.4.79.21,1.16.38.68.46,1,.65.78.27,1.12.48.68.45,1,.68.56.6.87.86.72.42,1,.69.61.59.9.89.5.69.77,1,.54.65.78,1,.59.62.81,1,.42.74.63,1.1.41.74.6,1.12.2.84.36,1.23.41.74.54,1.14.17.82.28,1.23.18.82.27,1.23.28.8.34,1.22.17.85.19,1.27,0,.86,0,1.29,0,.85,0,1.27Z" transform="translate(0 0)"/><path class="logo-skin" d="M10.9,26.54c0-.32.27-.71.29-1.06a3.28,3.28,0,0,0-.49-1.66,6.86,6.86,0,0,1-.44-1.2,2.24,2.24,0,0,1,0-1.23c.14-.56.38-.79.7-.8a.7.7,0,0,0,.48.18h0a5.31,5.31,0,0,1,.79.85h0a2.81,2.81,0,0,1,0,.29c0,.36.06.73,0,1.1s-.11.73-.14,1.09c-.06.82-.22,1.57-.32,2.38,0,.24-.07.5-.08.74l-.38-.06C11.1,27.11,10.92,27,10.9,26.54Z" transform="translate(0 0)"/><path class="logo-skin" d="M29.1,29.33c-.16.33-.23.7-.41,1s-.47.57-.67.88-.3.68-.49,1-.42.6-.61.92-.3.64-.49,1-.41.61-.64.9a4.12,4.12,0,0,1-.8.76,1.87,1.87,0,0,1-1,.46,6.25,6.25,0,0,1-1.06,0,6.23,6.23,0,0,0-1.06,0c-.4,0-.82-.13-1.22-.14s-.81.06-1.22,0-.66-.4-1-.74a11.37,11.37,0,0,0-.94-.86,10,10,0,0,0-.94-.78c-.32-.25-.62-.53-.94-.78A5.54,5.54,0,0,1,14.09,31a9.47,9.47,0,0,1-.86-2.46,5.24,5.24,0,0,1,0-1,8.28,8.28,0,0,1-.09-1c.1-.79.43-1.56.5-2.36a9.4,9.4,0,0,0,0-1.3c0-.35-.09-.7-.08-1.07s.11-.7.13-1.05,0-.71,0-1.07.16-.7.17-1.05,0-.77,0-1.14a8.22,8.22,0,0,1,.22-1.12,5.64,5.64,0,0,1,.37-1.07,5.32,5.32,0,0,1,.6-1,3.62,3.62,0,0,1,.88-.91,2.85,2.85,0,0,1,1.19-.43,4.06,4.06,0,0,1,1.3-.06c.33.06.65.24,1,.29a7.11,7.11,0,0,1,1,.13,6.33,6.33,0,0,0,1.14.2,3.76,3.76,0,0,0,1.16,0,10.5,10.5,0,0,0,1.37-.19,6.9,6.9,0,0,1,1.36-.23,4.59,4.59,0,0,1,1.17.09,5.41,5.41,0,0,1,1.14.36,5.68,5.68,0,0,1,1,.68,4.59,4.59,0,0,1,.82,1,4.52,4.52,0,0,1,.34,1.26A6.06,6.06,0,0,1,30,17.92c0,.38.17.76.18,1.15s0,.76,0,1.15-.11.76-.13,1.14a10.54,10.54,0,0,1-.1,1.13c-.05.4,0,.8-.06,1.21s0,.8-.06,1.2,0,.8,0,1.2-.06.76-.07,1.11v0a.75.75,0,0,0-.05.57,4.54,4.54,0,0,1-.09.51A5.41,5.41,0,0,1,29.1,29.33Z" transform="translate(0 0)"/><path class="logo-skin" d="M32.93,21.57a3.17,3.17,0,0,1-.22,1.1c-.15.34-.38.65-.53,1a6.4,6.4,0,0,0-.37.8,4.38,4.38,0,0,0-.3.86,4.94,4.94,0,0,1-.07,1.15c-.08.34-.21.64-.37.7V27c0-.43-.09-.87-.09-1.32s0-.87,0-1.31.08-.68.13-1,.16-.71.21-1.1.15-.72.18-1.1a1.53,1.53,0,0,0,0-.37,1.83,1.83,0,0,1,.89-.22C32.75,20.65,33,21,32.93,21.57Z" transform="translate(0 0)"/><path class="logo-brown" d="M24,34.92a.29.29,0,0,0,0,.57.28.28,0,0,0,.28-.29A.28.28,0,0,0,24,34.92Z" transform="translate(0 0)"/><path class="logo-brown" d="M20.15,33.35c-.11-.11-.3-.18-.4-.07a.36.36,0,0,0,0,.46s0,.06,0,.08a.42.42,0,0,0,.49,0,.34.34,0,0,0-.05-.43S20.18,33.37,20.15,33.35Z" transform="translate(0 0)"/><path class="logo-brown" d="M22.45,33.46s0,0,0-.05-.16-.2-.32-.2-.28,0-.28.2,0,0,0,.05a.26.26,0,0,0,.29.24h0C22.26,33.69,22.45,33.62,22.45,33.46Z" transform="translate(0 0)"/><path class="logo-brown" d="M23.89,33.73c.1-.11,0-.33-.09-.44s-.31-.18-.42-.06,0,.06,0,.08a.29.29,0,0,0,.08.41.3.3,0,0,0,.34,0S23.87,33.74,23.89,33.73Z" transform="translate(0 0)"/><path class="logo-brown" d="M22.63,34.48c-.36,0-.36.67,0,.67S23,34.48,22.63,34.48Z" transform="translate(0 0)"/><path class="logo-brown" d="M21.12,34.32a.26.26,0,1,0-.05.51h.05a.26.26,0,1,0,.05-.51Z" transform="translate(0 0)"/><path class="logo-brown" d="M19.51,34.82c-.36,0-.36.64,0,.64S19.87,34.82,19.51,34.82Z" transform="translate(0 0)"/><path class="logo-brown" d="M17.58,20.54a3.74,3.74,0,0,1,1.14.28c.34.18.61.47.93.51a1.37,1.37,0,0,0,1-.37,2,2,0,0,0,.39-.37.5.5,0,0,0,.07-.51c-.08-.17-.35-.32-.49-.21s-.06.13-.1.17a.58.58,0,0,1-.59.14c-.59-.14-.89-.72-1.43-.94A3.68,3.68,0,0,0,17.25,19a2.28,2.28,0,0,0-1.23.25,6.13,6.13,0,0,0-1,1.06c-.22.28-.41.49-.27.67s.38,0,.58-.06a5.79,5.79,0,0,1,1.15-.26A2.59,2.59,0,0,1,17.58,20.54Z" transform="translate(0 0)"/><path class="logo-brown" d="M28.84,20.23s0-.05-.06-.06a3.89,3.89,0,0,0-.82-.8A3.82,3.82,0,0,0,26.87,19a3.17,3.17,0,0,0-1.15.08,2.5,2.5,0,0,0-1,.51c-.43.32-.81.78-1.41.48a2,2,0,0,0-.34-.23c-.62-.19-.29,1,0,1.24a1.15,1.15,0,0,0,1,.13,3.93,3.93,0,0,0,1-.41,5.16,5.16,0,0,1,1-.29,2.79,2.79,0,0,1,1-.11,2.4,2.4,0,0,1,.9.34,2.07,2.07,0,0,0,.88.4.7.7,0,0,0,.35-.05c.13-.09.08-.34,0-.49A1.09,1.09,0,0,0,28.84,20.23Z" transform="translate(0 0)"/><path class="logo-brown" d="M18.1,30.4c-.23,0-.11.63.15,1a2.26,2.26,0,0,0,1.43.73c.33,0,.69,0,1,0s.62-.05.93-.08.63.07,1,.08.7,0,1,0a2.26,2.26,0,0,0,1.43-.73,2,2,0,0,0,.42-1.18c0-.35-.3-.42-.51-.2s-.27.59-.61.78a2.51,2.51,0,0,1-1,.14l-1.3.12q-.61,0-1.23,0l-.65,0A3.59,3.59,0,0,1,19,30.77S18.35,30.37,18.1,30.4Z" transform="translate(0 0)"/><path class="logo-brown" d="M20.91,23.69a.27.27,0,0,0-.34.13c-.17.35-.24.76-.4,1.1s-.31.5-.42.76-.17.68-.3,1a1.93,1.93,0,0,0-.16,1.11c.06.25,0,.52.21.72a1.91,1.91,0,0,0,.68.31l.45.16A1.65,1.65,0,0,0,21,29c.21,0,.53,0,.46-.34a.69.69,0,0,0-.33-.4l-.16-.1a2.22,2.22,0,0,1-.33-.28.88.88,0,0,1-.28-.38c-.12-.33.09-.76.18-1.07s.19-.67.28-1,.23-.66.32-1a1.21,1.21,0,0,0,0-.73C21.08,23.67,21,23.71,20.91,23.69Z" transform="translate(0 0)"/><path class="logo-brown" d="M22.11,28.84a.53.53,0,0,0,.24.06,2.25,2.25,0,0,0,1,0,1.24,1.24,0,0,0,.65-.52,1.28,1.28,0,0,0,.15-.9A3.82,3.82,0,0,0,24,26.5c0-.1,0-.23-.06-.34a12.77,12.77,0,0,0-.38-1.38,1.78,1.78,0,0,0-.88-1,.54.54,0,0,0-.16.51,2.14,2.14,0,0,0,.06.62c.09.31.25.59.33.91s.12.65.18,1a1.29,1.29,0,0,1-.74,1.39l-.26.2a.32.32,0,0,0-.12.2.5.5,0,0,0,0,.12A.52.52,0,0,0,22.11,28.84Z" transform="translate(0 0)"/><path class="logo-brown" d="M17.64,23.67a1.76,1.76,0,0,0-.3-1,.78.78,0,0,0-1.37.2A1.94,1.94,0,0,0,16,24a1,1,0,0,0,1.08.59A1,1,0,0,0,17.64,23.67Z" transform="translate(0 0)"/><path class="logo-brown" d="M27.37,22.44a.91.91,0,0,0-1.27.1A2,2,0,0,0,26,23.68a.9.9,0,0,0,.59.86A.78.78,0,0,0,27.5,24a1.7,1.7,0,0,0,.15-1.15A.67.67,0,0,0,27.37,22.44Z" transform="translate(0 0)"/></g></svg>