<?xml version="1.0" standalone="no"?>
<!DOCTYPE svg PUBLIC "-//W3C//DTD SVG 20010904//EN"
 "http://www.w3.org/TR/2001/REC-SVG-20010904/DTD/svg10.dtd">
<svg version="1.0" xmlns="http://www.w3.org/2000/svg"
 width="700.000000pt" height="700.000000pt" viewBox="0 0 700.000000 700.000000"
 preserveAspectRatio="xMidYMid meet">
<metadata>
Created by potrace 1.11, written by Peter Selinger 2001-2013
</metadata>
<g transform="translate(0.000000,700.000000) scale(0.100000,-0.100000)"
fill="#000000" stroke="none">
<path d="M3265 6975 c-60 -16 -117 -24 -170 -25 -136 0 -341 -41 -456 -90 -36
-15 -81 -31 -100 -35 -19 -4 -133 -40 -254 -80 -270 -90 -548 -214 -658 -293
-43 -31 -126 -86 -183 -122 -58 -36 -142 -97 -187 -136 -45 -38 -116 -95 -157
-126 -45 -34 -101 -90 -140 -140 -36 -45 -111 -134 -168 -198 -163 -182 -269
-350 -415 -660 -124 -264 -163 -371 -202 -560 -18 -89 -58 -245 -80 -315 -8
-27 -32 -129 -52 -225 -34 -161 -37 -187 -35 -325 1 -82 7 -175 13 -205 6 -30
13 -128 15 -216 2 -118 8 -183 23 -240 10 -44 34 -153 51 -244 44 -228 83
-365 145 -505 29 -66 66 -151 83 -190 16 -38 65 -129 108 -202 44 -73 95 -160
114 -195 19 -34 65 -94 101 -133 37 -38 101 -117 143 -174 43 -56 104 -131
135 -165 32 -35 84 -97 115 -139 72 -98 108 -131 241 -224 61 -42 151 -107
200 -144 119 -89 268 -177 384 -224 52 -22 121 -56 153 -77 87 -56 129 -75
215 -99 102 -28 286 -97 394 -148 57 -27 106 -42 145 -46 98 -10 364 -46 448
-61 100 -18 332 -18 411 0 33 8 100 17 150 21 49 3 155 17 234 31 109 18 162
23 220 18 66 -6 85 -3 151 20 41 15 122 33 180 41 130 17 271 58 327 93 117
74 455 313 527 372 44 36 117 91 161 120 191 128 485 409 580 555 32 51 75
100 116 134 70 59 99 96 130 168 11 26 50 94 85 150 36 56 85 146 109 201 24
54 58 123 75 152 59 101 128 288 139 380 5 47 24 127 41 178 17 51 39 150 50
220 11 70 26 149 35 175 36 117 46 272 35 539 -12 307 -16 352 -40 448 -10 41
-24 116 -30 165 -21 166 -66 331 -114 419 -24 45 -54 116 -65 158 -27 97 -121
327 -147 360 -10 14 -38 49 -60 79 -23 30 -54 87 -68 128 -15 40 -36 88 -48
105 -46 66 -327 412 -353 436 -15 14 -58 61 -95 105 -159 188 -336 337 -498
420 -52 26 -117 70 -161 109 -61 54 -91 72 -175 105 -55 22 -145 58 -198 81
-53 22 -141 52 -195 66 -54 14 -144 43 -200 65 -72 28 -137 44 -215 55 -61 9
-134 25 -162 36 -116 47 -135 50 -416 59 -151 5 -302 11 -335 14 -45 4 -83 -1
-150 -20z m600 -235 c44 -11 164 -31 267 -45 180 -25 198 -30 470 -122 310
-104 316 -107 403 -168 33 -24 96 -57 140 -74 107 -41 232 -125 335 -226 47
-45 112 -99 145 -120 78 -48 219 -186 305 -300 133 -173 193 -250 246 -312 45
-53 184 -285 252 -418 11 -22 31 -83 45 -137 14 -53 46 -136 71 -185 37 -74
51 -119 86 -283 23 -107 55 -238 70 -290 52 -178 61 -268 58 -555 -3 -231 -6
-277 -30 -410 -31 -169 -65 -326 -108 -495 -17 -63 -36 -150 -45 -194 -14 -76
-25 -100 -97 -218 -19 -31 -50 -98 -67 -149 -18 -50 -54 -127 -82 -170 -27
-43 -72 -116 -100 -162 -85 -136 -166 -231 -409 -476 -111 -112 -216 -206
-320 -286 -85 -66 -196 -161 -247 -212 -73 -72 -114 -104 -200 -152 -59 -34
-139 -73 -178 -88 -38 -14 -133 -51 -210 -81 -137 -54 -142 -55 -252 -58 -64
-1 -134 -9 -165 -18 -29 -8 -107 -26 -173 -40 -254 -54 -284 -56 -710 -56
l-401 0 -70 34 c-38 18 -110 43 -159 54 -124 29 -451 135 -512 166 -28 14 -73
38 -99 54 -27 15 -101 50 -164 77 -87 38 -129 62 -175 104 -33 29 -85 70 -115
89 -120 76 -296 196 -321 216 -14 12 -52 57 -85 99 -32 42 -88 98 -124 125
-48 36 -74 66 -100 111 -46 82 -130 197 -220 301 -85 99 -150 196 -201 300
-77 156 -159 363 -183 457 -14 54 -41 137 -61 184 -23 58 -40 122 -50 190 -8
57 -26 160 -39 229 -25 127 -28 187 -29 545 0 118 6 195 31 360 17 116 34 237
37 270 11 94 62 290 104 400 21 55 46 124 56 153 64 199 146 365 278 562 155
232 190 272 524 589 152 144 197 180 272 221 49 27 120 71 158 98 37 27 106
70 153 95 90 48 379 168 452 187 24 7 78 27 121 46 43 19 140 50 215 69 75 19
171 44 212 55 41 11 123 25 182 30 59 5 133 17 165 26 83 25 152 29 373 26
152 -2 213 -7 275 -22z"/>
<path d="M3370 6095 c-41 -13 -142 -42 -225 -65 -82 -23 -176 -55 -207 -71
-31 -16 -105 -47 -165 -69 -123 -46 -344 -160 -449 -231 -140 -94 -187 -144
-281 -294 -27 -44 -90 -132 -139 -196 -104 -134 -135 -183 -171 -277 -25 -62
-27 -78 -27 -227 -1 -207 18 -467 38 -529 11 -32 16 -86 16 -157 l0 -107 -42
-7 c-102 -16 -188 -86 -241 -195 -65 -134 -60 -250 21 -495 28 -82 59 -170 70
-195 35 -76 37 -134 8 -229 -14 -47 -26 -105 -26 -130 0 -50 35 -135 66 -163
32 -28 105 -56 164 -63 30 -4 71 -11 91 -16 36 -9 36 -9 52 -91 30 -153 79
-288 135 -371 29 -43 69 -112 91 -155 46 -91 150 -197 307 -312 57 -41 157
-131 234 -210 182 -186 253 -247 330 -284 l65 -31 266 -5 c191 -4 270 -9 281
-17 17 -15 112 -18 288 -11 103 4 133 9 170 28 135 67 250 206 425 510 65 113
153 260 196 327 43 67 101 163 130 215 29 51 70 119 90 151 25 38 43 83 54
135 10 42 19 83 21 90 2 6 16 12 31 12 84 0 196 76 245 167 35 63 45 106 58
238 15 148 32 209 96 339 69 142 127 348 128 456 1 86 -24 153 -77 208 -34 36
-96 72 -122 72 -8 0 -15 9 -15 19 0 24 43 302 76 486 29 167 54 376 54 462 0
34 5 65 10 68 14 8 12 65 -3 91 -7 12 -36 48 -65 80 -29 32 -94 115 -143 184
-50 69 -99 137 -111 152 l-21 27 66 70 c136 144 100 204 -173 285 -122 36
-250 82 -262 94 -5 5 -1 27 8 49 15 39 15 44 -2 79 -27 54 -68 70 -224 88
-159 19 -261 20 -402 5 -97 -10 -309 -59 -407 -93 -57 -21 -61 -20 -61 8 0 33
-46 85 -95 107 -53 25 -132 23 -225 -6z m-287 -1221 c43 -13 95 -24 115 -24
20 0 79 -9 131 -20 226 -48 341 -47 596 6 223 46 374 41 533 -18 82 -30 213
-119 272 -186 98 -111 137 -226 146 -437 3 -66 12 -159 21 -207 17 -95 14
-300 -6 -468 -14 -110 -29 -369 -42 -690 -15 -401 -17 -414 -82 -544 -30 -61
-64 -136 -76 -166 -12 -30 -47 -86 -78 -125 -31 -38 -73 -107 -95 -153 -21
-46 -60 -116 -87 -155 -27 -40 -71 -117 -99 -172 -27 -55 -71 -128 -96 -162
-61 -81 -178 -188 -241 -221 -50 -27 -51 -27 -270 -26 -121 0 -301 5 -400 10
-200 11 -214 15 -280 84 -55 58 -248 228 -380 335 -276 224 -367 350 -467 649
-40 119 -41 124 -50 326 l-10 205 37 145 c43 168 54 317 37 490 -7 69 -7 126
-1 165 10 57 18 176 38 540 15 266 79 459 208 630 101 134 202 192 374 214 85
12 157 4 252 -25z m-1261 -1241 c37 -13 66 -35 110 -82 l60 -64 -5 -156 c-6
-155 -16 -260 -57 -546 -33 -242 -25 -217 -68 -209 -88 16 -107 72 -66 197
l28 85 -17 82 c-9 48 -32 116 -57 166 -50 102 -76 175 -90 255 -18 100 17 235
72 273 28 20 29 20 90 -1z m3498 -11 c37 -38 45 -86 31 -186 -10 -70 -23 -105
-100 -261 -102 -205 -116 -249 -128 -395 -7 -76 -15 -119 -32 -153 -12 -26
-26 -47 -30 -47 -23 0 -28 493 -6 598 32 156 65 353 65 395 0 42 2 46 38 60
20 9 59 16 85 16 40 1 53 -4 77 -27z"/>
<path d="M2666 3891 c-44 -15 -74 -34 -113 -73 -56 -54 -131 -146 -151 -185
-26 -48 12 -67 80 -39 19 8 92 27 164 41 203 43 327 27 455 -57 54 -36 72 -43
114 -43 60 0 105 21 167 78 57 52 69 88 41 125 -29 39 -58 39 -92 3 -50 -53
-103 -40 -221 58 -90 74 -163 100 -295 107 -71 3 -102 0 -149 -15z"/>
<path d="M4203 3899 c-67 -13 -121 -41 -211 -109 -102 -78 -149 -88 -212 -46
-91 60 -125 14 -79 -110 18 -48 27 -59 63 -75 22 -10 53 -19 67 -19 36 0 153
36 212 66 72 37 222 74 298 74 77 0 132 -17 209 -64 63 -39 132 -60 166 -52
33 9 32 61 -2 111 -41 61 -125 145 -173 173 -90 53 -226 74 -338 51z"/>
<path d="M4279 3357 c-26 -17 -37 -34 -47 -72 -13 -52 -9 -133 9 -192 25 -79
125 -110 188 -58 62 52 91 201 53 274 -34 68 -137 93 -203 48z"/>
<path d="M2641 3335 c-40 -35 -55 -83 -49 -167 8 -100 54 -156 140 -165 40 -5
49 -2 81 27 64 56 72 152 21 252 -40 80 -131 104 -193 53z"/>
<path d="M3356 3135 c-8 -8 -26 -52 -41 -97 -15 -46 -44 -112 -65 -148 -21
-36 -43 -85 -50 -110 -7 -25 -23 -78 -36 -119 -41 -125 -30 -274 22 -308 37
-24 184 -72 221 -73 53 0 83 16 83 46 0 27 -25 54 -104 114 -26 19 -55 54 -67
76 -23 49 -24 43 51 294 78 257 81 270 72 303 -6 24 -14 30 -39 33 -19 2 -38
-2 -47 -11z"/>
<path d="M3670 3100 c-18 -43 -5 -137 31 -227 16 -40 36 -119 46 -174 25 -153
3 -215 -103 -285 -90 -60 -93 -95 -8 -114 131 -31 241 15 280 116 13 35 15 60
10 121 -14 152 -71 385 -117 474 -17 34 -102 119 -119 119 -4 0 -13 -14 -20
-30z"/>
<path d="M4059 2113 c-8 -10 -27 -37 -42 -60 -15 -23 -38 -50 -51 -59 -36 -23
-290 -44 -537 -44 -228 0 -262 6 -381 66 -37 19 -79 34 -93 34 -23 0 -25 -4
-25 -40 0 -84 73 -170 179 -212 60 -23 167 -28 376 -18 55 3 150 1 210 -4 168
-13 259 12 350 95 61 57 106 172 91 234 -5 19 -13 25 -35 25 -15 0 -34 -8 -42
-17z"/>
<path d="M3573 1593 c-18 -7 -16 -62 2 -69 23 -9 65 5 72 23 11 28 -40 60 -74
46z"/>
<path d="M3804 1586 c-9 -23 0 -58 17 -69 23 -14 69 0 69 21 0 47 -71 86 -86
48z"/>
<path d="M3205 1567 c-4 -12 -1 -35 4 -50 17 -45 91 -33 91 15 0 49 -84 80
-95 35z"/>
<path d="M3396 1404 c-29 -29 -16 -55 34 -67 26 -7 60 16 60 39 0 16 -39 44
-62 44 -9 0 -24 -7 -32 -16z"/>
<path d="M3652 1378 c-17 -17 -15 -64 4 -82 18 -19 20 -19 45 -6 37 20 20 100
-21 100 -9 0 -21 -5 -28 -12z"/>
<path d="M3142 1318 c-28 -28 -1 -93 36 -86 23 4 42 47 33 72 -9 24 -50 33
-69 14z"/>
<path d="M3882 1308 c-7 -7 -12 -21 -12 -33 0 -47 53 -62 72 -20 9 21 8 28 -7
45 -21 23 -36 25 -53 8z"/>
</g>
</svg>
