<?xml version="1.0" encoding="UTF-8"?>
<svg width="596px" height="101px" viewBox="0 0 596 101" version="1.1" xmlns="http://www.w3.org/2000/svg" xmlns:xlink="http://www.w3.org/1999/xlink">
    <!-- Generator: Sketch 42 (36781) - http://www.bohemiancoding.com/sketch -->
    <title>walkin-fish</title>
    <desc>Created with Sketch.</desc>
    <defs></defs>
    <g id="Page-1" stroke="none" stroke-width="1" fill="none" fill-rule="evenodd">
        <g id="walkin-fish">
            <g id="Layer_1">
                <g id="Group" transform="translate(3.000000, 29.000000)" fill-rule="nonzero" fill="#FFFFFF">
                    <polygon id="Shape" points="15.2 8.3 0.6 8.3 0.6 3 36 3 36 8.3 21.4 8.3 21.4 50.9 15.2 50.9 15.2 8.3"></polygon>
                    <path d="M44.3,0.5 L50.5,0.5 L50.5,21.9 L50.6,21.9 C51.6,20.1 53.2,18.6 55.1,17.5 C56.9,16.4 59.1,15.7 61.5,15.7 C66.1,15.7 73.5,18.5 73.5,30.4 L73.5,50.9 L67.3,50.9 L67.3,31.2 C67.3,25.7 65.2,21 59.3,21 C55.3,21 52.1,23.8 50.9,27.2 C50.5,28.1 50.5,29 50.5,30.2 L50.5,50.9 L44.3,50.9 L44.3,0.5 L44.3,0.5 Z" id="Shape"></path>
                    <path d="M90.7,34.9 C90.8,43.4 96.2,46.8 102.5,46.8 C107,46.8 109.7,46 112,45 L113.1,49.5 C110.9,50.5 107.1,51.6 101.7,51.6 C91.1,51.6 84.8,44.6 84.8,34.3 C84.8,24 90.9,15.8 100.9,15.8 C112.1,15.8 115.1,25.7 115.1,32 C115.1,33.3 115,34.3 114.9,34.9 L90.7,34.9 L90.7,34.9 Z M109,30.4 C109.1,26.4 107.4,20.2 100.3,20.2 C94,20.2 91.2,26 90.7,30.4 L109,30.4 Z" id="Shape"></path>
                    <path d="M150.4,50.9 L138.3,3 L144.8,3 L150.5,27.2 C151.9,33.2 153.2,39.1 154.1,43.7 L154.2,43.7 C155,38.9 156.5,33.3 158.1,27.1 L164.5,3 L171,3 L176.8,27.3 C178.1,33 179.4,38.7 180.1,43.7 L180.2,43.7 C181.2,38.4 182.5,33.1 184,27.2 L190.3,3.1 L196.6,3.1 L183,51 L176.5,51 L170.5,26.1 C169,20 168,15.3 167.4,10.5 L167.3,10.5 C166.4,15.3 165.4,19.9 163.6,26.1 L156.8,51 L150.4,50.9 L150.4,50.9 Z" id="Shape"></path>
                    <path d="M222.7,50.9 L222.2,46.6 L222,46.6 C220.1,49.3 216.4,51.7 211.5,51.7 C204.5,51.7 201,46.8 201,41.8 C201,33.5 208.4,28.9 221.7,29 L221.7,28.3 C221.7,25.5 220.9,20.3 213.9,20.3 C210.7,20.3 207.4,21.3 205,22.9 L203.6,18.8 C206.4,17 210.6,15.7 214.9,15.7 C225.4,15.7 228,22.9 228,29.8 L228,42.7 C228,45.7 228.1,48.6 228.6,50.9 L222.7,50.9 L222.7,50.9 Z M221.8,33.4 C215,33.3 207.2,34.5 207.2,41.1 C207.2,45.1 209.9,47.1 213.1,47.1 C217.6,47.1 220.4,44.3 221.4,41.3 C221.6,40.7 221.8,40 221.8,39.3 L221.8,33.4 L221.8,33.4 Z" id="Shape"></path>
                    <polygon id="Shape" points="241.5 0.5 247.7 0.5 247.7 50.9 241.5 50.9"></polygon>
                    <path d="M268,32.3 L268.1,32.3 C269,31.1 270.2,29.6 271.2,28.4 L281.3,16.5 L288.8,16.5 L275.5,30.6 L290.6,50.8 L283,50.8 L271.1,34.3 L268,38 L268,50.9 L261.8,50.9 L261.8,0.5 L268,0.5 L268,32.3 Z" id="Shape"></path>
                    <path d="M308.2,2.3 C306.6,8.3 303.5,15.9 301.5,19.1 L297.5,19.6 C299.1,15.4 300.9,8 301.7,2.9 L308.2,2.3 Z" id="Shape"></path>
                    <polygon id="Shape" points="325 3 325 50.9 318.8 50.9 318.8 3"></polygon>
                    <path d="M339.8,25.8 C339.8,22.2 339.7,19.3 339.5,16.5 L345,16.5 L345.4,22.2 L345.5,22.2 C347.2,18.9 351.2,15.7 356.9,15.7 C361.7,15.7 369,18.5 369,30.3 L369,50.8 L362.8,50.8 L362.8,31 C362.8,25.5 360.7,20.8 354.8,20.8 C350.7,20.8 347.5,23.7 346.4,27.2 C346.1,28 346,29 346,30.1 L346,50.8 L339.8,50.8 L339.8,25.8 L339.8,25.8 Z" id="Shape"></path>
                    <polygon id="Shape" points="401.6 3 427.4 3 427.4 8.2 407.8 8.2 407.8 24.1 425.9 24.1 425.9 29.2 407.8 29.2 407.8 50.9 401.6 50.9 401.6 3"></polygon>
                    <path d="M444.6,6.9 C444.7,9 443.1,10.7 440.6,10.7 C438.4,10.7 436.8,9 436.8,6.9 C436.8,4.7 438.4,3 440.7,3 C443.2,3 444.6,4.7 444.6,6.9 Z M437.7,50.9 L437.7,16.5 L443.9,16.5 L443.9,50.9 L437.7,50.9 Z" id="Shape"></path>
                    <path d="M457,44.5 C458.8,45.7 462.1,47 465.2,47 C469.7,47 471.9,44.7 471.9,41.9 C471.9,38.9 470.1,37.3 465.5,35.6 C459.3,33.4 456.4,30 456.4,25.9 C456.4,20.4 460.9,15.8 468.3,15.8 C471.8,15.8 474.8,16.8 476.8,17.9 L475.2,22.4 C473.9,21.5 471.4,20.4 468.2,20.4 C464.5,20.4 462.4,22.5 462.4,25.1 C462.4,27.9 464.5,29.2 468.9,30.9 C474.9,33.2 477.9,36.2 477.9,41.3 C477.9,47.3 473.2,51.6 465,51.6 C461.2,51.6 457.8,50.7 455.3,49.3 L457,44.5 Z" id="Shape"></path>
                    <path d="M489.5,0.5 L495.7,0.5 L495.7,21.9 L495.8,21.9 C496.8,20.1 498.4,18.6 500.3,17.5 C502.1,16.4 504.3,15.7 506.7,15.7 C511.3,15.7 518.7,18.5 518.7,30.4 L518.7,50.9 L512.5,50.9 L512.5,31.2 C512.5,25.7 510.4,21 504.5,21 C500.5,21 497.3,23.8 496.1,27.2 C495.7,28.1 495.7,29 495.7,30.2 L495.7,50.9 L489.5,50.9 L489.5,0.5 L489.5,0.5 Z" id="Shape"></path>
                </g>
                <g id="Group" transform="translate(3.000000, 2.000000)" fill-rule="nonzero" fill="#FFFFFF">
                    <path d="M0.7,0.4 C1.6,0.2 2.8,0.1 4,0.1 C5.8,0.1 7,0.4 7.8,1.2 C8.5,1.8 8.8,2.7 8.8,3.7 C8.8,5.4 7.7,6.6 6.3,7.1 L6.3,7.2 C7.3,7.6 7.9,8.5 8.2,9.9 C8.6,11.7 8.9,13 9.2,13.5 L7.4,13.5 C7.2,13.1 6.9,12 6.5,10.4 C6.1,8.6 5.4,7.9 3.9,7.8 L2.3,7.8 L2.3,13.5 L0.6,13.5 L0.6,0.4 L0.7,0.4 L0.7,0.4 Z M2.4,6.3 L4.1,6.3 C5.9,6.3 7.1,5.3 7.1,3.8 C7.1,2.1 5.9,1.4 4.1,1.3 C3.3,1.3 2.7,1.4 2.4,1.5 L2.4,6.3 Z" id="Shape"></path>
                    <polygon id="Shape" points="19 7.2 13.9 7.2 13.9 11.9 19.6 11.9 19.6 13.3 12.2 13.3 12.2 0.2 19.3 0.2 19.3 1.6 13.9 1.6 13.9 5.8 19 5.8"></polygon>
                    <path d="M22.5,11.3 C23.3,11.8 24.4,12.2 25.5,12.2 C27.2,12.2 28.2,11.3 28.2,10 C28.2,8.8 27.5,8.1 25.7,7.4 C23.6,6.6 22.2,5.5 22.2,3.7 C22.2,1.7 23.9,0.1 26.5,0.1 C27.8,0.1 28.8,0.4 29.4,0.7 L29,2 C28.6,1.8 27.7,1.4 26.5,1.4 C24.7,1.4 24,2.5 24,3.4 C24,4.6 24.8,5.2 26.6,5.9 C28.8,6.8 30,7.8 30,9.8 C30,11.8 28.5,13.6 25.4,13.6 C24.1,13.6 22.7,13.2 22,12.8 L22.5,11.3 Z" id="Shape"></path>
                    <polygon id="Shape" points="35.8 1.6 31.8 1.6 31.8 0.2 41.5 0.2 41.5 1.6 37.5 1.6 37.5 13.3 35.8 13.3"></polygon>
                    <path d="M44.6,9.2 L43.2,13.3 L41.4,13.3 L45.9,0.2 L47.9,0.2 L52.4,13.3 L50.6,13.3 L49.2,9.2 L44.6,9.2 Z M48.9,7.9 L47.6,4.1 C47.3,3.2 47.1,2.5 46.9,1.7 L46.9,1.7 C46.7,2.5 46.5,3.3 46.2,4.1 L44.9,7.9 L48.9,7.9 Z" id="Shape"></path>
                    <path d="M56.6,0.2 L56.6,8 C56.6,10.9 57.9,12.2 59.7,12.2 C61.7,12.2 62.9,10.9 62.9,8 L62.9,0.2 L64.6,0.2 L64.6,7.9 C64.6,11.9 62.5,13.6 59.6,13.6 C56.9,13.6 54.9,12.1 54.9,8 L54.9,0.3 L56.6,0.2 L56.6,0.2 Z" id="Shape"></path>
                    <path d="M68.5,0.4 C69.4,0.2 70.6,0.1 71.8,0.1 C73.6,0.1 74.8,0.4 75.6,1.2 C76.3,1.8 76.6,2.7 76.6,3.7 C76.6,5.4 75.5,6.6 74.1,7.1 L74.1,7.2 C75.1,7.6 75.7,8.5 76,9.9 C76.4,11.7 76.7,13 77,13.5 L75.2,13.5 C75,13.1 74.7,12 74.3,10.4 C73.9,8.6 73.2,7.9 71.7,7.8 L70.1,7.8 L70.1,13.5 L68.4,13.5 L68.4,0.4 L68.5,0.4 L68.5,0.4 Z M70.2,6.3 L71.9,6.3 C73.7,6.3 74.9,5.3 74.9,3.8 C74.9,2.1 73.7,1.4 71.9,1.3 C71.1,1.3 70.5,1.4 70.2,1.5 L70.2,6.3 Z" id="Shape"></path>
                    <path d="M82.1,9.2 L80.7,13.3 L79,13.3 L83.5,0.2 L85.5,0.2 L90,13.3 L88.2,13.3 L86.8,9.2 L82.1,9.2 Z M86.5,7.9 L85.2,4.1 C84.9,3.2 84.7,2.5 84.5,1.7 L84.5,1.7 C84.3,2.5 84.1,3.3 83.8,4.1 L82.5,7.9 L86.5,7.9 Z" id="Shape"></path>
                    <path d="M92.9,13.3 L92.9,0.2 L94.8,0.2 L99,6.8 C100,8.3 100.7,9.7 101.4,11.1 L101.4,11.1 C101.2,9.3 101.2,7.7 101.2,5.7 L101.2,0.2 L102.8,0.2 L102.8,13.3 L101.1,13.3 L96.9,6.6 C96,5.1 95.1,3.6 94.4,2.2 L94.3,2.2 C94.4,3.9 94.4,5.4 94.4,7.6 L94.4,13.2 L92.9,13.3 L92.9,13.3 Z" id="Shape"></path>
                    <polygon id="Shape" points="109.2 1.6 105.2 1.6 105.2 0.2 114.9 0.2 114.9 1.6 110.9 1.6 110.9 13.3 109.2 13.3"></polygon>
                </g>
                <path d="M0.1,99.1 L595.4,99.1" id="Shape" stroke="#FFFEFF" stroke-width="2"></path>
                <path d="M584.8,3.6 C584.1,4 583.4,4.5 582.6,4.9 C579.5,6.7 576.8,9 574.3,11.5 C571.9,13.9 569.5,16.3 567.1,18.8 C566.6,19.3 566.3,20 565.9,20.6 C563.4,23.9 561.5,27.4 559.7,31 C557.2,35.9 556,41.1 555.9,46.4 C555.8,50.1 556.1,53.8 557.9,57.2 C559.9,60.9 562.6,64.2 567,65.8 C568.3,66.3 569.7,66.8 571.1,66.9 C572.4,67 573.8,66.7 575,66.3 C578.9,65.1 582,63.1 582.8,59.2 C583.1,58.1 583.1,56.7 582.7,55.6 C581.9,53.1 580.7,50.9 578.1,49.4 C575.8,48.1 571.3,48.3 569.3,49.9 C567.7,51.2 566.4,52.5 565.9,54.5 C565.9,54.6 565.7,54.7 565.6,54.8 C561,41.5 568.5,23 584.5,15.6 C584.3,17.2 584.2,18.8 584.1,20.4 C583.8,23 583.3,25.6 583.4,28.2 C583.5,30.2 584,32.4 584.9,34.2 C586.4,37.1 588.4,39.8 590.1,42.7 C591.1,44.3 591.8,46.1 592.4,47.9 C593,49.8 593.2,51.9 593.9,53.8 C594.8,56.6 594.9,59.4 594.3,62.2 C593.6,65.5 592.3,68.7 590.2,71.6 C588.9,73.2 587.6,74.9 586.1,76.3 C582.7,79.6 578.7,82.2 573.9,83.5 C571.1,84.3 568.1,84.3 565.2,83.7 C561.8,83 558.5,81.9 555.4,80.2 C554.8,79.9 554.3,79.5 553.8,79.2 C547.3,74.9 544,69.1 542.6,62 C542,58.9 541.7,55.8 541.7,52.6 C541.7,49.3 542.8,46.2 543.8,43.1 C544.5,40.9 545.4,38.8 546.5,36.8 C547.7,34.4 549.1,32 550.6,29.7 C552,27.5 553.6,25.4 555.3,23.4 C557.3,21 559.6,18.8 561.7,16.4 C563.6,14.3 564.1,12 562.3,9.5 C561.2,8 560.2,6.4 560.5,4.4 C560.7,3.3 561.1,2.2 561.8,1.2 C562.9,-0.4 564.8,-0.2 565.8,1.4 C566,1.8 566.3,2.2 566.7,2.5 C570.3,4.6 574.1,6 578.6,4.7 C580.5,4.1 582.5,3.7 584.4,3.3 L585,3.3 C584.8,3.5 584.8,3.6 584.8,3.6 Z M547.5,55.6 C548.2,59 549.1,62.2 551.1,65.2 C553.7,69.1 556.6,72.7 560.6,75.5 C561.6,76.2 562.6,77 563.8,77.5 C565.9,78.3 568.1,78.9 570.3,79.6 C571.7,80 573.1,80.2 574.4,79.4 C577.1,77.8 579.7,75.9 581.7,73.6 C583.9,71 586.3,68.5 587.5,65.3 C588.1,63.7 588.6,62.1 589.1,60.5 C589,60.5 588.9,60.4 588.8,60.4 C588,64.3 585.6,67.6 583,70.7 C582,71.9 580.9,73 579.8,74 C579.3,74.5 578.5,74.8 578,75.2 C577.6,74.1 577.4,73.3 577,72.5 C577,72.4 576.1,72.7 575.5,72.9 C576.2,74.6 575.6,75.9 574.7,77.2 C574.1,78.2 572.7,78.6 571.4,78.2 C570.1,77.9 568.8,76.5 569,75.6 C569.1,75.1 569.4,74.6 569.8,74.3 C570.2,74 570.8,74 571.3,73.9 L571.3,73.6 C570.5,73.6 569.7,73.3 569.1,73.5 C567.4,74.1 567.3,75.5 567.4,76.9 C564.2,76.1 561.5,74.7 559.1,72.8 C553.3,68.1 549.4,62.4 547.5,55.6 Z M584,64 C581,66.9 577.2,68.9 573.2,70.5 C572.4,70.8 571.8,70.9 571.1,70.3 C570.7,70 570.1,69.7 569.5,69.7 C567.1,69.5 565.1,68.5 563.1,67.4 C559.8,65.6 557,63.2 554.8,60.3 C552.6,57.5 550.9,54.5 550.2,51.1 C549.7,48.4 549,45.7 549.2,43 C549.2,42.7 549.3,42.3 549.3,42 L549.3,41 C546.3,51.2 551.2,63.2 565.9,70.5 C565.5,70.8 565.1,71 564.8,71.3 C564.5,71.6 564.2,72 563.9,72.4 C562.7,73.8 562.9,74.6 564.9,75 C565.5,72.6 567.1,71.1 569.1,71.2 C570.9,71.3 572.8,72 573.9,75.3 C574,74.9 574,74.5 574,74.1 C573.9,73.7 573.7,73.3 573.6,72.8 C577.9,70.6 581.3,67.7 584,64 Z M582.4,44 L582.5,43.9 C581.2,42.8 580,41.8 578.7,40.7 C578.3,40.3 577.8,39.9 577.6,39.4 C576.9,37.6 576.2,35.8 575.5,33.9 C575.3,33.3 575.2,32.6 575.3,32 C575.8,30.4 576.5,28.9 577.1,27.3 C577.6,25.9 578.2,24.5 578.7,23 C575.4,25.9 573.6,29.4 572.2,33.2 C575.8,34.8 575.5,38 575.9,40.6 C578.3,41.9 580.3,42.9 582.4,44 Z M578.6,33 C579.1,36.8 582.1,39.2 583.8,42.1 C583.7,41.5 583.4,40.8 583.1,40.3 C582.1,38.3 580.9,36.3 580.1,34.3 C579.5,32.7 579.2,30.9 578.8,29.1 C578.2,30.3 577.7,31.3 577.2,32.3 C576.8,33 576.7,33.6 577.3,34.3 C577.6,33.9 578,33.6 578.6,33 Z M570.4,42.5 C571.4,40.4 571.9,38.2 574.1,36.8 C574,36.6 573.9,36.4 573.8,36.3 C573.6,36 573.3,35.7 573,35.4 C572.5,34.9 571.8,35 571.6,35.6 C570.8,37.8 570.4,40.1 570.4,42.5 Z M570.1,7.1 L567.8,7.1 C567.5,9 567.3,10.8 567,12.3 C568.7,11.1 568,8.5 570.1,7.1 Z M566.6,8.4 C565.5,6.8 564.4,5.2 563.3,3.6 C563.2,5.5 564.3,7.2 566.6,8.4 Z M570.8,11.3 C570.6,9.7 571.6,8.8 573.1,8.4 C573.3,8.3 573.4,8.3 573.6,8.2 C570.1,8.7 570.1,8.7 570.8,11.3 Z M566,6.2 C566,6.3 566,6.4 566.1,6.5 C567.8,6.3 569.5,6 571.2,5.8 C569.4,5.6 567.6,5.5 566,6.2 Z" id="Shape" fill="#FFFFFF" fill-rule="nonzero"></path>
            </g>
        </g>
    </g>
</svg>