<svg id="animation-fire" xmlns="http://www.w3.org/2000/svg" width="199" height="48.82" viewBox="0 0 199 48.82">
  <defs>
  </defs>
  <title>fire</title>
  <g id="fire-group">
    <g id="fire-03">
      <g>
        <polygon class="cls-1" points="86.78 26.64 113.21 26.64 100 0 86.78 26.64"/>
        <polygon class="cls-2" points="91.23 30.16 94.19 30.16 108.76 30.16 100 12.48 91.23 30.16"/>
      </g>
      <g>
        <polygon class="cls-1" points="106.86 32.41 128.85 32.41 117.86 10.23 106.86 32.41"/>
        <polygon class="cls-2" points="112.36 32.41 123.35 32.41 117.86 21.32 112.36 32.41"/>
      </g>
      <g>
        <polygon class="cls-1" points="71.14 32.64 93.14 32.64 82.14 10.46 71.14 32.64"/>
        <polygon class="cls-2" points="76.64 32.64 87.64 32.64 82.14 21.55 76.64 32.64"/>
      </g>
      <g>
        <polygon class="cls-1" points="101.68 36.64 120.94 36.64 111.32 17.23 101.68 36.64"/>
        <polygon class="cls-2" points="116.13 36.64 111.32 26.93 106.5 36.64 116.13 36.64"/>
      </g>
      <g>
        <polygon class="cls-1" points="78.88 36.64 98.14 36.64 88.51 17.23 78.88 36.64"/>
        <polygon class="cls-2" points="93.32 36.64 88.51 26.93 83.69 36.64 93.32 36.64"/>
        <polygon class="cls-2" points="93.32 35.91 88.51 45.63 83.69 35.91 93.32 35.91"/>
        <polygon class="cls-2" points="116.48 35.91 111.67 45.63 106.86 35.91 116.48 35.91"/>
      </g>
      <g>
        <polygon class="cls-1" points="67 39.38 80.76 39.38 73.88 25.52 67 39.38"/>
        <polygon class="cls-2" points="70.44 39.38 77.31 39.38 73.88 32.45 70.44 39.38"/>
      </g>
      <g>
        <polygon class="cls-1" points="119.24 39.38 133 39.38 126.12 25.52 119.24 39.38"/>
        <polygon class="cls-2" points="122.69 39.38 129.56 39.38 126.12 32.45 122.69 39.38"/>
      </g>
      <g>
        <polygon class="cls-1" points="86.78 45.64 113.21 45.64 100 19 86.78 45.64"/>
        <polygon class="cls-2" points="93.39 45.64 106.6 45.64 100 32.32 93.39 45.64"/>
      </g>
      <g>
        <polygon class="cls-1" points="72.7 45.52 88.88 45.52 80.78 29.2 72.7 45.52"/>
        <polygon class="cls-2" points="76.73 45.52 84.83 45.52 80.78 37.35 76.73 45.52"/>
      </g>
      <g>
        <polygon class="cls-1" points="110.91 45.52 127.09 45.52 118.99 29.2 110.91 45.52"/>
        <polygon class="cls-2" points="114.96 45.52 123.04 45.52 118.99 37.35 114.96 45.52"/>
      </g>
    </g>
    <g id="fire-02">
      <g>
        <polygon class="cls-1" points="177.9 33.64 194.08 33.64 185.99 17.33 177.9 33.64"/>
        <polygon class="cls-2" points="181.95 33.64 190.03 33.64 185.99 25.48 181.95 33.64"/>
      </g>
      <g>
        <polygon class="cls-1" points="137.22 33.64 153.41 33.64 145.31 17.33 137.22 33.64"/>
        <polygon class="cls-2" points="141.27 33.64 149.36 33.64 145.31 25.48 141.27 33.64"/>
      </g>
      <g>
        <polygon class="cls-1" points="147.82 39.64 184.34 39.64 166.08 2.83 147.82 39.64"/>
        <polygon class="cls-2" points="156.95 39.64 175.21 39.64 166.08 21.23 156.95 39.64"/>
      </g>
      <g>
        <polygon class="cls-1" points="133 39.38 146.76 39.38 139.88 25.52 133 39.38"/>
        <polygon class="cls-2" points="136.44 39.38 143.31 39.38 139.88 32.45 136.44 39.38"/>
      </g>
      <g>
        <polygon class="cls-1" points="185.24 39.38 199 39.38 192.12 25.52 185.24 39.38"/>
        <polygon class="cls-2" points="188.69 39.38 195.56 39.38 192.12 32.45 188.69 39.38"/>
      </g>
      <g>
        <polygon class="cls-1" points="162.66 45.64 194.2 45.64 178.44 13.86 162.66 45.64"/>
        <polygon class="cls-2" points="186.31 45.64 178.44 29.75 170.55 45.64 186.31 45.64"/>
      </g>
      <g>
        <polygon class="cls-1" points="137.43 45.74 169.06 45.74 153.25 13.86 137.43 45.74"/>
        <polygon class="cls-2" points="161.15 45.74 153.25 29.8 145.34 45.74 161.15 45.74"/>
      </g>
    </g>
    <g id="fire-01">
      <g>
        <polygon class="cls-1" points="33.64 35.74 62.2 35.74 47.93 6.96 33.64 35.74"/>
        <polygon class="cls-2" points="55.05 35.74 47.93 21.35 40.78 35.74 48.51 37.64 55.05 35.74"/>
      </g>
      <g>
        <polygon class="cls-1" points="5.43 35.74 33.98 35.74 19.71 6.96 5.43 35.74"/>
        <polygon class="cls-2" points="26.84 35.74 19.71 21.35 12.57 35.74 19.7 38.64 26.84 35.74"/>
      </g>
      <g>
        <polygon class="cls-1" points="1 39.38 14.76 39.38 7.88 25.52 1 39.38"/>
        <polygon class="cls-2" points="4.45 39.38 11.31 39.38 7.88 32.45 4.45 39.38"/>
      </g>
      <g>
        <polygon class="cls-1" points="53.24 39.38 67 39.38 60.12 25.52 53.24 39.38"/>
        <polygon class="cls-2" points="56.69 39.38 63.55 39.38 60.12 32.45 56.69 39.38"/>
      </g>
      <g>
        <polygon class="cls-1" points="15.82 45.29 52.34 45.29 34.08 8.47 15.82 45.29"/>
        <polygon class="cls-2" points="24.95 45.29 43.21 45.29 34.08 26.87 24.95 45.29"/>
      </g>
      <g>
        <polygon class="cls-1" points="6.7 45.52 22.88 45.52 14.78 29.2 6.7 45.52"/>
        <polygon class="cls-2" points="10.73 45.52 18.83 45.52 14.78 37.35 10.73 45.52"/>
      </g>
      <g>
        <polygon class="cls-1" points="44.91 45.52 61.09 45.52 52.99 29.2 44.91 45.52"/>
        <polygon class="cls-2" points="48.96 45.52 57.04 45.52 52.99 37.35 48.96 45.52"/>
      </g>
    </g>
  </g>
  <g id="rocks">
    <path class="cls-3" d="M594,938v4.91h-9.83V938a4.92,4.92,0,1,1,9.83,0Z" transform="translate(-526 -898.97)"/>
    <g>
      <path class="cls-3" d="M535.83,938v4.91H526V938a4.92,4.92,0,1,1,9.83,0Z" transform="translate(-526 -898.97)"/>
      <path class="cls-3" d="M540.75,942.87v4.92h-9.83v-4.92a4.92,4.92,0,0,1,9.83,0Z" transform="translate(-526 -898.97)"/>
    </g>
    <path class="cls-3" d="M550.59,942.87v4.92h-9.84v-4.92a4.92,4.92,0,0,1,9.84,0Z" transform="translate(-526 -898.97)"/>
    <g>
      <path class="cls-3" d="M560.42,942.87v4.92h-9.83v-4.92a4.92,4.92,0,0,1,9.83,0Z" transform="translate(-526 -898.97)"/>
      <path class="cls-3" d="M570.26,942.87v4.92h-9.84v-4.92a4.92,4.92,0,0,1,9.84,0Z" transform="translate(-526 -898.97)"/>
    </g>
    <path class="cls-3" d="M580.09,942.87v4.92h-9.83v-4.92a4.92,4.92,0,0,1,9.83,0Z" transform="translate(-526 -898.97)"/>
    <path class="cls-3" d="M589.08,942.87v4.92h-9.83v-4.92a4.92,4.92,0,0,1,9.83,0Z" transform="translate(-526 -898.97)"/>
  </g>
</svg>
