<svg id="animation-bubbles" xmlns="http://www.w3.org/2000/svg" xmlns:xlink="http://www.w3.org/1999/xlink" width="54" height="25.02" viewBox="0 0 54 25.02"><defs><radialGradient id="radial-gradient" cx="48.82" cy="7.62" r="2.72" gradientUnits="userSpaceOnUse"><stop offset="0" stop-color="#fff"/><stop offset="0.3" stop-color="#fcfcff"/><stop offset="0.55" stop-color="#f2f3ff"/><stop offset="0.77" stop-color="#e1e4ff"/><stop offset="0.99" stop-color="#c9cfff"/><stop offset="1" stop-color="#c7ceff"/></radialGradient><radialGradient id="radial-gradient-2" cx="52.1" cy="16.71" r="1.65" xlink:href="#radial-gradient"/><radialGradient id="radial-gradient-3" cx="46.9" cy="23.02" r="1.65" xlink:href="#radial-gradient"/><radialGradient id="radial-gradient-4" cx="43.12" cy="2.59" r="1.1" xlink:href="#radial-gradient"/><radialGradient id="radial-gradient-5" cx="39.82" cy="13.12" r="2.72" xlink:href="#radial-gradient"/><radialGradient id="radial-gradient-6" cx="505.88" cy="718.14" r="1.65" xlink:href="#radial-gradient"/><radialGradient id="radial-gradient-7" cx="491.69" cy="698.53" r="1.65" xlink:href="#radial-gradient"/><radialGradient id="radial-gradient-8" cx="496.9" cy="703.82" r="1.1" xlink:href="#radial-gradient"/><radialGradient id="radial-gradient-9" cx="30.82" cy="18.78" r="2.72" xlink:href="#radial-gradient"/><radialGradient id="radial-gradient-10" cx="484.6" cy="717.98" r="2.72" xlink:href="#radial-gradient"/><radialGradient id="radial-gradient-11" cx="25.1" cy="1.99" r="1.65" xlink:href="#radial-gradient"/><radialGradient id="radial-gradient-12" cx="482.69" cy="704.22" r="1.65" xlink:href="#radial-gradient"/><radialGradient id="radial-gradient-13" cx="487.9" cy="709.51" r="1.1" xlink:href="#radial-gradient"/><radialGradient id="radial-gradient-14" cx="16.1" cy="5.83" r="1.65" xlink:href="#radial-gradient"/><radialGradient id="radial-gradient-15" cx="473.69" cy="708.07" r="1.65" xlink:href="#radial-gradient"/><radialGradient id="radial-gradient-16" cx="16.12" cy="17.43" r="1.1" xlink:href="#radial-gradient"/><radialGradient id="radial-gradient-17" cx="3.82" cy="2.97" r="2.72" xlink:href="#radial-gradient"/><radialGradient id="radial-gradient-18" cx="7.1" cy="12.06" r="1.65" xlink:href="#radial-gradient"/><radialGradient id="radial-gradient-19" cx="464.69" cy="714.29" r="1.65" xlink:href="#radial-gradient"/><radialGradient id="radial-gradient-20" cx="7.12" cy="23.65" r="1.1" xlink:href="#radial-gradient"/></defs><title>bubbles</title><g id="bubbles-group"><g id="bubbles-06"><g style="isolation:isolate"><circle cx="48.82" cy="7.62" r="2.72" style="fill:url(#radial-gradient)"/><path d="M511.6,701.08a2.47,2.47,0,1,1-2.46,2.47,2.48,2.48,0,0,1,2.46-2.47m0-.5a3,3,0,1,0,3,3,3,3,0,0,0-3-3Z" transform="translate(-462.78 -695.93)" style="fill:#c7ceff"/></g><g style="isolation:isolate"><circle cx="52.1" cy="16.71" r="1.65" style="fill:url(#radial-gradient-2)"/><path d="M514.88,711.24a1.4,1.4,0,1,1-1.4,1.4,1.4,1.4,0,0,1,1.4-1.4m0-.5a1.9,1.9,0,1,0,1.9,1.9,1.9,1.9,0,0,0-1.9-1.9Z" transform="translate(-462.78 -695.93)" style="fill:#c7ceff"/></g><g style="isolation:isolate"><circle cx="46.9" cy="23.02" r="1.65" style="fill:url(#radial-gradient-3)"/><path d="M509.69,717.54a1.41,1.41,0,1,1-1.41,1.41,1.41,1.41,0,0,1,1.41-1.41m0-.5a1.91,1.91,0,1,0,1.9,1.91,1.91,1.91,0,0,0-1.9-1.91Z" transform="translate(-462.78 -695.93)" style="fill:#c7ceff"/></g><rect x="45" width="9" height="25" style="fill:none"/></g><g id="bubbles-05"><g style="isolation:isolate"><circle cx="43.12" cy="2.59" r="1.1" style="fill:url(#radial-gradient-4)"/><path d="M505.9,697.67a.85.85,0,1,1-.84.84.85.85,0,0,1,.84-.84m0-.5a1.35,1.35,0,1,0,1.35,1.34,1.34,1.34,0,0,0-1.35-1.34Z" transform="translate(-462.78 -695.93)" style="fill:#c7ceff"/></g><rect x="36" width="9" height="25" style="fill:none"/><g id="bubbles-04"><g style="isolation:isolate"><circle cx="39.82" cy="13.12" r="2.72" style="fill:url(#radial-gradient-5)"/><path d="M502.6,706.58a2.47,2.47,0,1,1-2.46,2.47,2.48,2.48,0,0,1,2.46-2.47m0-.5a3,3,0,1,0,3,3,3,3,0,0,0-3-3Z" transform="translate(-462.78 -695.93)" style="fill:#c7ceff"/></g><g style="isolation:isolate"><path d="M505.88,719.79a1.65,1.65,0,1,1,1.65-1.65A1.65,1.65,0,0,1,505.88,719.79Z" transform="translate(-462.78 -695.93)" style="fill:url(#radial-gradient-6)"/><path d="M505.88,716.74a1.4,1.4,0,1,1-1.4,1.4,1.4,1.4,0,0,1,1.4-1.4m0-.5a1.9,1.9,0,1,0,1.9,1.9,1.9,1.9,0,0,0-1.9-1.9Z" transform="translate(-462.78 -695.93)" style="fill:#c7ceff"/></g></g></g><g id="bubbles-04-2" data-name="bubbles-04"><g style="isolation:isolate"><path d="M491.69,700.18a1.65,1.65,0,1,1,1.65-1.65A1.66,1.66,0,0,1,491.69,700.18Z" transform="translate(-462.78 -695.93)" style="fill:url(#radial-gradient-7)"/><path d="M491.69,697.13a1.4,1.4,0,1,1-1.41,1.4,1.4,1.4,0,0,1,1.41-1.4m0-.5a1.9,1.9,0,1,0,1.9,1.9,1.91,1.91,0,0,0-1.9-1.9Z" transform="translate(-462.78 -695.93)" style="fill:#c7ceff"/></g><g style="isolation:isolate"><path d="M496.9,704.92a1.1,1.1,0,1,1,1.1-1.1A1.09,1.09,0,0,1,496.9,704.92Z" transform="translate(-462.78 -695.93)" style="fill:url(#radial-gradient-8)"/><path d="M496.9,703a.85.85,0,1,1-.84.84.85.85,0,0,1,.84-.84m0-.5a1.35,1.35,0,1,0,1.35,1.34,1.34,1.34,0,0,0-1.35-1.34Z" transform="translate(-462.78 -695.93)" style="fill:#c7ceff"/></g><rect x="27" width="9" height="25" style="fill:none"/><g id="bubbles-03"><g style="isolation:isolate"><circle cx="30.82" cy="18.78" r="2.72" style="fill:url(#radial-gradient-9)"/><path d="M493.6,712.24a2.47,2.47,0,1,1-2.46,2.46,2.47,2.47,0,0,1,2.46-2.46m0-.5a3,3,0,1,0,3,3,3,3,0,0,0-3-3Z" transform="translate(-462.78 -695.93)" style="fill:#c7ceff"/></g></g></g><g id="bubbles-03-2" data-name="bubbles-03"><g style="isolation:isolate"><path d="M484.6,720.7a2.72,2.72,0,1,1,2.72-2.72A2.72,2.72,0,0,1,484.6,720.7Z" transform="translate(-462.78 -695.93)" style="fill:url(#radial-gradient-10)"/><path d="M484.6,715.52a2.47,2.47,0,1,1-2.46,2.46,2.47,2.47,0,0,1,2.46-2.46m0-.5a3,3,0,1,0,3,3,3,3,0,0,0-3-3Z" transform="translate(-462.78 -695.93)" style="fill:#c7ceff"/></g><g style="isolation:isolate"><circle cx="25.1" cy="1.99" r="1.65" style="fill:url(#radial-gradient-11)"/><path d="M487.88,696.51a1.41,1.41,0,1,1-1.4,1.41,1.4,1.4,0,0,1,1.4-1.41m0-.5a1.91,1.91,0,1,0,1.9,1.91,1.91,1.91,0,0,0-1.9-1.91Z" transform="translate(-462.78 -695.93)" style="fill:#c7ceff"/></g><g style="isolation:isolate"><path d="M482.69,705.87a1.65,1.65,0,1,1,1.65-1.65A1.66,1.66,0,0,1,482.69,705.87Z" transform="translate(-462.78 -695.93)" style="fill:url(#radial-gradient-12)"/><path d="M482.69,702.82a1.4,1.4,0,1,1-1.41,1.4,1.4,1.4,0,0,1,1.41-1.4m0-.5a1.9,1.9,0,1,0,1.9,1.9,1.91,1.91,0,0,0-1.9-1.9Z" transform="translate(-462.78 -695.93)" style="fill:#c7ceff"/></g><g style="isolation:isolate"><path d="M487.9,710.61a1.1,1.1,0,1,1,1.1-1.1A1.09,1.09,0,0,1,487.9,710.61Z" transform="translate(-462.78 -695.93)" style="fill:url(#radial-gradient-13)"/><path d="M487.9,708.67a.85.85,0,1,1-.84.84.85.85,0,0,1,.84-.84m0-.5a1.35,1.35,0,1,0,1.35,1.34,1.34,1.34,0,0,0-1.35-1.34Z" transform="translate(-462.78 -695.93)" style="fill:#c7ceff"/></g><rect x="18" width="9" height="25" style="fill:none"/></g><g id="bubbles-02"><g style="isolation:isolate"><circle cx="16.1" cy="5.83" r="1.65" style="fill:url(#radial-gradient-14)"/><path d="M478.88,700.36a1.4,1.4,0,1,1-1.4,1.4,1.4,1.4,0,0,1,1.4-1.4m0-.5a1.9,1.9,0,1,0,1.9,1.9,1.9,1.9,0,0,0-1.9-1.9Z" transform="translate(-462.78 -695.93)" style="fill:#c7ceff"/></g><g style="isolation:isolate"><path d="M473.69,709.72a1.66,1.66,0,1,1,1.65-1.65A1.66,1.66,0,0,1,473.69,709.72Z" transform="translate(-462.78 -695.93)" style="fill:url(#radial-gradient-15)"/><path d="M473.69,706.66a1.41,1.41,0,1,1-1.41,1.41,1.41,1.41,0,0,1,1.41-1.41m0-.5a1.91,1.91,0,1,0,1.9,1.91,1.91,1.91,0,0,0-1.9-1.91Z" transform="translate(-462.78 -695.93)" style="fill:#c7ceff"/></g><g style="isolation:isolate"><circle cx="16.12" cy="17.43" r="1.1" style="fill:url(#radial-gradient-16)"/><path d="M478.9,712.51a.85.85,0,1,1-.84.85.85.85,0,0,1,.84-.85m0-.5a1.35,1.35,0,1,0,1.35,1.35A1.34,1.34,0,0,0,478.9,712Z" transform="translate(-462.78 -695.93)" style="fill:#c7ceff"/></g><rect x="9" width="9" height="25" style="fill:none"/></g><g id="bubbles-01"><g style="isolation:isolate"><circle cx="3.82" cy="2.97" r="2.72" style="fill:url(#radial-gradient-17)"/><path d="M466.6,696.43a2.47,2.47,0,1,1-2.46,2.46,2.47,2.47,0,0,1,2.46-2.46m0-.5a3,3,0,1,0,3,3,3,3,0,0,0-3-3Z" transform="translate(-462.78 -695.93)" style="fill:#c7ceff"/></g><g style="isolation:isolate"><circle cx="7.1" cy="12.06" r="1.65" style="fill:url(#radial-gradient-18)"/><path d="M469.88,706.58a1.4,1.4,0,1,1-1.4,1.4,1.4,1.4,0,0,1,1.4-1.4m0-.5a1.9,1.9,0,1,0,1.9,1.9,1.9,1.9,0,0,0-1.9-1.9Z" transform="translate(-462.78 -695.93)" style="fill:#c7ceff"/></g><g style="isolation:isolate"><path d="M464.69,715.94a1.65,1.65,0,1,1,1.65-1.65A1.66,1.66,0,0,1,464.69,715.94Z" transform="translate(-462.78 -695.93)" style="fill:url(#radial-gradient-19)"/><path d="M464.69,712.89a1.4,1.4,0,1,1-1.41,1.4,1.4,1.4,0,0,1,1.41-1.4m0-.5a1.9,1.9,0,1,0,1.9,1.9,1.91,1.91,0,0,0-1.9-1.9Z" transform="translate(-462.78 -695.93)" style="fill:#c7ceff"/></g><g style="isolation:isolate"><circle cx="7.12" cy="23.65" r="1.1" style="fill:url(#radial-gradient-20)"/><path d="M469.9,718.73a.85.85,0,1,1-.84.85.85.85,0,0,1,.84-.85m0-.5a1.35,1.35,0,1,0,1.35,1.35,1.35,1.35,0,0,0-1.35-1.35Z" transform="translate(-462.78 -695.93)" style="fill:#c7ceff"/></g><rect width="9" height="25" style="fill:none"/></g></g></svg>