<svg id="animation-fish" xmlns="http://www.w3.org/2000/svg" width="480" height="21" viewBox="0 0 480 21"><title>fish</title><g id="fish-group"><rect id="fish-01" width="48" height="21" style="fill:none"/><g id="fish-02"><path d="M434.66,723.81l-1.11-4.65-4.65-1.11Z" transform="translate(-380.48 -705.43)" style="fill:#312c22"/><path d="M438.46,710.3c-4.93,1.85-4.93,8.11-4.91,8.86.75,0,7,0,8.86-4.91a9.09,9.09,0,0,0,.4-4.35A9.09,9.09,0,0,0,438.46,710.3Zm2,1.33a.47.47,0,0,1-.64-.1.46.46,0,0,1-.1-.64.47.47,0,0,1,.65.09A.48.48,0,0,1,440.48,711.63Z" transform="translate(-380.48 -705.43)" style="fill:#312c22"/><rect x="48" width="48" height="21" style="fill:none"/></g><g id="fish-03"><rect x="96" width="48" height="21" style="fill:none"/><path d="M492.68,714l2.5-4.07q-1.24-2-2.5-4.07Z" transform="translate(-380.48 -705.43)" style="fill:#312c22"/><path d="M504.92,707.1c-4.8-2.17-9.21,2.25-9.74,2.8.53.54,4.94,5,9.74,2.79a9.24,9.24,0,0,0,3.36-2.79A9.26,9.26,0,0,0,504.92,707.1Zm.49,2.37c-.21,0-.39-.24-.39-.52s.18-.53.39-.53.39.24.39.53S505.63,709.47,505.41,709.47Z" transform="translate(-380.48 -705.43)" style="fill:#312c22"/></g><g id="fish-04"><rect x="144" width="48" height="21" style="fill:none"/><path d="M556.94,713.24l4.64-1.11c.38-1.55.75-3.1,1.12-4.65Z" transform="translate(-380.48 -705.43)" style="fill:#312c22"/><path d="M570.44,717c-1.85-4.93-8.1-4.92-8.86-4.91,0,.75,0,7,4.92,8.86a9.05,9.05,0,0,0,4.34.4A9.1,9.1,0,0,0,570.44,717Zm-1.32,2a.55.55,0,0,1,.74-.74.48.48,0,0,1-.1.65A.47.47,0,0,1,569.12,719.06Z" transform="translate(-380.48 -705.43)" style="fill:#312c22"/></g><g id="fish-05"><path d="M613.8,724.72a11.47,11.47,0,0,0-1.32-1.52,11.47,11.47,0,0,0-1.32,1.52Z" transform="translate(-380.48 -705.43)" style="fill:#312c22"/><rect x="192" width="48" height="21" style="fill:none"/><path d="M608.41,720.7l4.07,2.5,4.07-2.5Z" transform="translate(-380.48 -705.43)" style="fill:#312c22"/><path d="M612.58,725.08c-3,0-5.43-1.44-5.43-3.27s2.44-3.27,5.43-3.27S618,720,618,721.81,615.62,725.08,612.58,725.08Zm0-6c-2.72,0-4.93,1.25-4.93,2.77s2.21,2.77,4.93,2.77,4.93-1.25,4.93-2.77S615.3,719,612.58,719Z" transform="translate(-380.48 -705.43)" style="fill:#c7ceff"/><path d="M612.58,726c-3.65,0-6.61-1.91-6.61-4.25s3-4.25,6.61-4.25,6.6,1.91,6.6,4.25S616.22,726,612.58,726Zm0-8c-3.37,0-6.11,1.68-6.11,3.75s2.74,3.75,6.11,3.75,6.1-1.68,6.1-3.75S615.94,718,612.58,718Z" transform="translate(-380.48 -705.43)" style="fill:#c7ceff"/></g><g id="fish-06"><rect x="240" width="48" height="21" style="fill:none"/><path d="M660.58,725.08c-3.05,0-5.43-1.44-5.43-3.27s2.43-3.27,5.43-3.27S666,720,666,721.81,663.62,725.08,660.58,725.08Zm0-6c-2.72,0-4.93,1.25-4.93,2.77s2.21,2.77,4.93,2.77,4.92-1.25,4.92-2.77S663.29,719,660.58,719Z" transform="translate(-380.48 -705.43)" style="fill:#c7ceff"/><path d="M660.58,724.06c-2.43,0-4.33-1-4.33-2.3s1.9-2.3,4.33-2.3,4.33,1,4.33,2.3S663,724.06,660.58,724.06Zm0-4.1c-2.08,0-3.83.82-3.83,1.8s1.75,1.8,3.83,1.8,3.83-.83,3.83-1.8S662.65,720,660.58,720Z" transform="translate(-380.48 -705.43)" style="fill:#c7ceff"/></g><g id="fish-07"><rect x="288" width="48" height="21" style="fill:none"/><path d="M708.57,724.06c-2.43,0-4.33-1-4.33-2.3s1.9-2.3,4.33-2.3,4.33,1,4.33,2.3S711,724.06,708.57,724.06Zm0-4.1c-2.07,0-3.83.82-3.83,1.8s1.76,1.8,3.83,1.8,3.83-.83,3.83-1.8S710.65,720,708.57,720Z" transform="translate(-380.48 -705.43)" style="fill:#c7ceff"/><path d="M708.57,723.1c-1.55,0-3.2-.49-3.2-1.39s1.65-1.39,3.2-1.39,3.2.49,3.2,1.39S710.12,723.1,708.57,723.1Zm0-2.28c-1.65,0-2.7.53-2.7.89s1,.89,2.7.89,2.7-.53,2.7-.89S710.22,720.82,708.57,720.82Z" transform="translate(-380.48 -705.43)" style="fill:#c7ceff"/></g><g id="fish-08"><rect x="336" width="48" height="21" style="fill:none"/><path d="M756.57,723.1c-1.56,0-3.2-.49-3.2-1.39s1.64-1.39,3.2-1.39,3.2.49,3.2,1.39S758.12,723.1,756.57,723.1Zm0-2.28c-1.65,0-2.7.53-2.7.89s1,.89,2.7.89,2.7-.53,2.7-.89S758.22,720.82,756.57,720.82Z" transform="translate(-380.48 -705.43)" style="fill:#c7ceff"/><path d="M756.56,722.38c-.49,0-2.1,0-2.1-.68s1.61-.69,2.1-.69,2.11,0,2.11.69S757.06,722.38,756.56,722.38Zm-1.48-.68a6.17,6.17,0,0,0,3,0,5.86,5.86,0,0,0-3,0Z" transform="translate(-380.48 -705.43)" style="fill:#c7ceff"/></g><g id="fish-09"><rect x="384" width="48" height="21" style="fill:none"/><path d="M804.56,722.38c-.49,0-2.1,0-2.1-.68s1.61-.69,2.1-.69,2.11,0,2.11.69S805.06,722.38,804.56,722.38Zm-1.48-.68a6.17,6.17,0,0,0,3,0,5.86,5.86,0,0,0-3,0Z" transform="translate(-380.48 -705.43)" style="fill:#c7ceff"/></g><g id="fish-10"><rect x="432" width="48" height="21" style="fill:none"/></g></g></svg>