<svg xmlns="http://www.w3.org/2000/svg" viewBox="675 69 597.125 800"><defs><style>.a{fill:#bda7b4;}.b{fill:#fed5b2;}.c{fill:#5d5345;}</style></defs><g transform="translate(675 69.029)"><path class="a" d="M523.349,486.881c-4.305,5.038-9.251,9.434-13.923,14.2-4.58,4.671-8.427,10.167-13.373,14.655-4.855,4.4-10.442,8.06-15.571,12.366-5.038,4.213-10.442,8.06-15.571,12.274s-8.885,10.259-14.2,14.106c-5.4,3.939-11.633,6.6-17.4,9.8-5.587,3.114-11.724,4.855-17.77,6.87s-11.724,5.587-17.953,6.961c-6.229,1.282-13.007,0-19.235,1.191-5.129,1.008-10.167,2.839-15.3,3.755s-10.259,2.29-15.48,3.114S337.225,588.1,332,588.645c-5.221.641-10.534,0-15.755.275-5.679.366-11.175-.458-16.762-.55s-11.175.183-16.671-.366c-5.587-.55-11.358.458-16.854-.55s-10.442-4.671-15.846-6.045-10.9-2.382-16.213-4.122-10.717-3.114-15.938-5.129c-5.129-2.015-10.9-2.839-16.029-5.221-5.5-2.473-10.442-6.137-15.846-8.793S174.732,553.839,169.42,551c-5.221-2.931-9.068-8.244-14.2-11.45-5.038-3.206-10.259-6.137-15.113-9.709s-10.35-6.32-14.839-10.35c-4.488-3.939-7.328-9.618-11.45-14.014-3.481-3.755-8.61-6.229-12-10.167s-5.313-9.068-8.519-13.19-6.412-8.152-9.526-12.274c-3.114-4.213-7.145-7.694-10.076-11.908-3.389-4.855-6.687-9.892-9.526-14.93-2.931-5.129-4.763-10.808-7.236-16.213s-4.855-10.717-6.87-16.3c-2.015-5.5-3.023-11.358-4.671-17.037s-4.855-10.9-6.137-16.671S37.795,365.058,36.7,359.2c-1.008-5.771-2.473-11.541-3.389-17.4-.824-5.5.092-11.175-.275-16.762-.366-5.5-1.832-11.083-1.832-16.671s.733-11.083,1.1-16.762c.366-5.587,1.74-10.992,2.382-16.579s1.374-11.083,2.382-16.487c1.008-5.5,1.191-11.175,2.382-16.579,1.282-5.5,2.473-10.992,3.939-16.3,1.557-5.4,4.122-10.442,5.954-15.663,2.107-5.862,3.755-11.908,6.229-17.587s4.4-11.724,7.328-17.22c2.84-5.5,6.412-10.717,9.618-16.029,3.3-5.313,6.87-10.35,10.534-15.48,3.664-5.038,7.511-9.984,11.45-14.747s8.976-8.61,13.373-13.1c4.305-4.488,8.61-8.885,13.282-13.007,4.305-3.847,7.694-8.61,12.274-12.091s10.076-5.5,14.839-8.7c4.763-3.114,9.16-6.778,14.2-9.618,4.946-2.84,9.984-5.5,15.205-7.969,5.129-2.473,10.534-4.305,15.846-6.5s10.534-4.305,15.938-6.229c5.587-2.015,10.9-4.763,16.487-6.5,5.679-1.74,11.45-2.931,17.22-4.4,5.771-1.557,11.358-3.481,17.129-4.671s11.816-1.008,17.678-1.924c5.862-.824,11.541-3.481,17.4-3.939S307.181,30,313.135,30c5.587,0,11.266-.092,16.945.275,5.587.366,10.992,2.839,16.579,3.572s11.175,1.191,16.671,2.29c5.5,1.008,11.266,1.282,16.671,2.656,5.5,1.374,10.625,3.664,16.029,5.4,5.313,1.74,10.625,3.572,15.846,5.587s10.992,3.023,16.029,5.313c5.129,2.382,9.343,6.412,14.381,9.068,4.946,2.656,10.808,3.755,15.571,6.687s9.434,6.229,14.014,9.526,7.786,8.335,12.091,11.908,9.892,5.771,14.014,9.618c4.305,4.03,8.518,8.152,12.549,12.457,4.03,4.213,6.87,9.618,10.625,14.106s7.419,8.977,10.9,13.74,8.061,8.7,11.266,13.648,5.862,10.259,8.7,15.388,5.679,10.259,8.244,15.571,2.839,11.541,5.038,16.945,5.771,10.35,7.694,15.846c1.832,5.587,2.29,11.541,3.847,17.22s2.656,11.358,3.847,17.037c1.191,5.771,3.847,11.175,4.671,17.037s2.29,11.724,2.656,17.678c.458,5.954,0,11.908,0,17.861s.092,11.908-.275,17.861-2.382,11.724-3.114,17.587-1.832,11.724-2.839,17.495c-1.1,5.862-2.382,11.541-3.847,17.312-1.374,5.771-2.656,11.541-4.4,17.22s-1.74,12-3.847,17.495c-2.107,5.679-6.87,10.167-9.251,15.388-2.473,5.5-3.389,11.633-6.229,16.762-2.839,5.221-6.32,10.167-9.526,15.113-3.206,5.038-6.045,10.35-9.526,15.022C531.868,478.454,527.2,482.393,523.349,486.881Z" transform="translate(-2.622 -2.52)"/><path class="b" d="M164.177,395.887c-.183-4.488,3.755-9.892,4.03-14.747.55-8.427-3.206-15.755-6.778-23.174a98.263,98.263,0,0,1-6.045-16.762,32.308,32.308,0,0,1-.183-17.22c2.015-7.694,5.4-10.992,9.709-11.083a10.143,10.143,0,0,0,6.778,2.473h.275c4.213,3.023,7.877,8.244,10.9,11.908,0,.092.092.092.183.183,0,1.374-.092,2.748-.183,4.122-.275,4.946.824,10.076.641,15.3-.183,5.038-1.466,10.076-1.924,15.113-.916,11.358-3.114,21.892-4.488,33.158-.366,3.389-.824,6.87-1.1,10.35a46.09,46.09,0,0,1-5.313-.824C167.017,403.856,164.544,401.749,164.177,395.887Z" transform="translate(-12.951 -26.296)"/><path class="b" d="M420.6,425.122c-2.2,4.58-3.206,9.8-5.771,14.2-2.473,4.4-6.595,7.877-9.343,12.274-2.656,4.305-4.122,9.434-6.87,13.74s-5.771,8.427-8.518,12.732c-2.473,3.847-4.122,8.976-6.87,13.74-2.473,4.4-5.954,8.427-8.885,12.64-3.114,4.305-7.236,7.511-11.083,10.534-4.122,3.3-8.244,5.954-13.465,6.5a79.234,79.234,0,0,1-14.747-.183c-4.946-.458-9.8.183-14.747.366-5.587.275-11.266-1.74-16.945-1.923-5.587-.092-11.266.733-16.854.275-5.4-.458-9.16-5.587-13.556-10.35-4.213-4.671-9.434-8.61-13.007-11.908a163.838,163.838,0,0,0-13.007-10.9c-4.488-3.389-8.7-7.236-13.1-10.9a93.355,93.355,0,0,1-12.274-11.816c-3.939-4.671-6.778-9.984-9.8-15.3a99.3,99.3,0,0,1-7.145-16.671,96.957,96.957,0,0,1-4.763-17.495c-.733-4.58-.366-8.976-.275-13.465.092-4.58-1.74-9.251-1.191-13.74,1.374-10.992,5.954-21.617,7.053-32.792a172.623,172.623,0,0,0,.183-18.228c-.092-4.855-1.282-9.8-1.191-14.747.183-4.855,1.557-9.8,1.832-14.747s-.55-9.892-.275-14.839,2.29-9.8,2.473-14.655c.183-5.313-.55-10.625,0-15.938a130.923,130.923,0,0,1,2.931-15.663,92.915,92.915,0,0,1,5.221-14.93,68.939,68.939,0,0,1,8.335-13.373c3.939-5.313,7.511-9.618,12.182-12.64a38.121,38.121,0,0,1,16.487-5.954c5.587-.733,11.633-2.2,18.045-.916,4.58.916,8.976,3.389,13.74,4.122s9.709.275,14.2,1.74c5.679,1.832,10.808,2.2,15.938,2.84a62.481,62.481,0,0,0,16.029,0c6.412-.824,12.824-1.1,19.052-2.748a101.589,101.589,0,0,1,18.869-3.206,54.124,54.124,0,0,1,16.3,1.374c5.313,1.282,10.992,2.382,15.846,5.038a72.038,72.038,0,0,1,13.74,9.526,59.493,59.493,0,0,1,11.358,14.381c2.931,5.221,3.481,11.541,4.763,17.495,1.282,5.679,1.374,11.541,1.557,17.77.092,5.221,2.382,10.534,2.473,15.938.183,5.313-.458,10.625-.366,15.938,0,5.313-1.557,10.625-1.832,15.938-.275,5.4-.733,10.625-1.466,15.755-.733,5.5-.183,11.266-.733,16.762s-.458,11.175-.916,16.671c-.458,5.587-.275,11.175-.55,16.671s-.733,10.534-1.008,15.48v.458a10.648,10.648,0,0,0-.733,7.877,59.641,59.641,0,0,1-1.191,7.053C425.734,415.687,422.986,420.084,420.6,425.122Z" transform="translate(-16.663 -16.603)"/><path class="b" d="M496.421,326.674c-.366,5.221-.916,10.625-3.023,15.388s-5.221,9.068-7.328,13.648c-1.832,3.847-3.939,7.328-5.221,11.266-1.282,3.847-3.572,7.6-4.213,11.816-.183,1.466.641,9.434-.916,16.029-1.191,4.855-2.84,8.976-5.221,9.8.092-.55.092-1.191.183-1.74.275-6.045-1.282-12.182-1.282-18.228.092-6.045-.092-12.182.366-18.228.366-4.671,1.282-9.434,1.924-14.106.641-4.946,2.107-9.984,2.748-15.3.641-5.038,2.107-10.076,2.565-15.388a24.259,24.259,0,0,0-.183-5.129c4.305-1.924,8.885-3.572,12.457-3.114C494.04,313.943,497.062,318.339,496.421,326.674Z" transform="translate(-39.445 -26.331)"/><path class="c" d="M89.094,752.1c-1.1-2.656-.55-5.771-.458-8.244,0-.641.092-1.191.092-1.832-.092-4.58,0-9.16.183-13.74v-1.74c0-2.107-.092-4.122-.092-6.32,0-.458-.092-1.008-.092-1.557-1.282-10.35-1.282-20.7-1.832-31.143,0-3.572,0-9.892-4.4-11.45H81.309a3.923,3.923,0,0,0-1.191.458H78.836a7.018,7.018,0,0,1-2.473-.366,6.492,6.492,0,0,0-1.282-.092,5.319,5.319,0,0,0-2.656,1.008s-.183.183-.641.55a4.887,4.887,0,0,0-3.3,3.847,6.488,6.488,0,0,0-.092,1.282c-.641,5.313.366,10.076,1.1,15.022,0,.55.092,1.008.092,1.374.183,3.3.366,4.4.366,7.6H68.76a3.962,3.962,0,0,0-3.664,0,6.163,6.163,0,0,0-1.1.55c-3.481,1.924-7.6,2.931-11.358,1.924-2.656-.916-.916-3.939-.092-6.687a12.491,12.491,0,0,1,.366-1.557c-.733-6.961-1.74-10.992-1.374-17.77a10.54,10.54,0,0,0-.55-1.557,12.392,12.392,0,0,0-3.664-5.129,7.8,7.8,0,0,0-1.557-.55,11.281,11.281,0,0,0-1.832-.183,9.9,9.9,0,0,1-1.649,0,11.228,11.228,0,0,1-1.74.183c-1.1.092-2.2.366-3.389.458a6.888,6.888,0,0,0-1.924,1.1c-1.924,1.557-3.481,3.939-2.656,6.687a14.126,14.126,0,0,1,.458,1.557,14.98,14.98,0,0,1,.458,4.4v2.29a11.085,11.085,0,0,1-.092,1.74v1.832c0,2.839,0,5.679-.092,8.61V706.3c.092,8.61.183,17.312.092,26.105v1.924c.092,4.122,1.191,8.793-.183,13.007v1.557c-.092,2.107-.092,4.122-.092,6.137a4.96,4.96,0,0,0,.366,1.374c.458,2.382,1.557,4.58,3.847,5.587,1.557,0,3.206.55,4.671-.366.458,0,.916-.092,1.282-.092a6.773,6.773,0,0,1,2.656.458,6.492,6.492,0,0,0,1.282.092,4.743,4.743,0,0,0,2.656-1.1s.092-.092.55-.458c4.122-1.191,3.572-5.862,3.389-9.251,0-.55-.092-1.191-.092-1.74-.092-1.649-.366-3.3-.458-4.763,0-.55-.092-1.1-.092-1.649-.092-.55-.092-1.008-.183-1.557,0-.458-.092-1.008-.092-1.374a4.96,4.96,0,0,0-.366-1.374c-1.282-4.488.916-6.412,3.847-7.877a11.606,11.606,0,0,1,1.649-.55c3.847-.641,7.511-3.847,11.083-1.191,2.656,2.107,2.107,5.771,1.282,8.61.092.458.092.916.183,1.282a26.245,26.245,0,0,1,1.1,6.229c0,2.656-2.656,5.221-1.282,8.518a5.56,5.56,0,0,0,.458,1.649c1.008,3.847,3.023,6.687,7.786,6.778.55,0,1.1-.092,1.649-.092s1.1-.092,1.649-.092c1.1-.183,2.29-.366,3.481-.458.366-.092.641-.366,1.008-.458,2.656-1.191,3.572-4.763,3.481-7.419A6.67,6.67,0,0,1,89.094,752.1Z" transform="translate(-2.719 -56.792)"/><path class="c" d="M212.642,713.678a104.274,104.274,0,0,1-5.862-15.388c-1.832-6.5-2.656-13.648-7.511-18.869a28.245,28.245,0,0,0-2.473-2.2,16.058,16.058,0,0,0-10.9-2.931,16.35,16.35,0,0,0-9.16,4.671c-4.03,4.03-5.954,9.709-6.778,15.388-.641,5.679-.458,11.358-.641,17.129-.55,14.93-10.808,29.4-6.32,44.791a13.373,13.373,0,0,0,1.74,3.847,5.889,5.889,0,0,0,3.572,1.649c3.023.641,6.137,1.282,9.16.916s6.137-1.832,7.511-4.58c1.191-2.107,1.191-4.58,1.649-6.961.55-2.381,1.924-4.946,4.213-5.313,2.656-.458,4.946,1.74,5.954,4.03,1.191,2.381,1.649,5.038,3.206,7.053,2.656,3.481,7.786,4.4,11.816,2.748,3.939-1.649,6.778-5.313,8.244-9.343,2.2-5.954,1.649-12.732-.092-18.869C218.137,725.219,215.3,719.448,212.642,713.678Zm-17.861,2.931a11.033,11.033,0,0,1-10.259-2.473,5.245,5.245,0,0,1-1.466-3.023c.092-1.557.092-3.3.092-4.855,0-6.5,8.7-5.221,9.8-3.023a41.482,41.482,0,0,1,3.664,11.083A4.744,4.744,0,0,1,194.78,716.609Z" transform="translate(-13.602 -56.657)"/><path class="c" d="M349.8,690.055c-.183-.55-.55-1.008-.733-1.557-1.557-2.29-3.481-4.213-5.038-6.32a6.421,6.421,0,0,0-.733-.916c-.366-.183-.641-.55-1.008-.733a3.346,3.346,0,0,0-1.282-.641,11.686,11.686,0,0,0-1.1-.641,20.668,20.668,0,0,0-3.572-1.374,6.022,6.022,0,0,1-1.374-.366c-3.664-1.008-7.419-1.008-11.083-1.282-.55-.092-1.1-.092-1.649-.183a46.939,46.939,0,0,0-9.892-1.649,9.96,9.96,0,0,1-1.649-.092,10.5,10.5,0,0,0-4.4,1.191,10.014,10.014,0,0,0-1.374.733c-1.1.733-2.29,1.649-3.389,2.381-.458.366-.733.641-1.191,1.008-7.419,12.824-6.32,28.029-5.587,42.409V723.4a112.821,112.821,0,0,0,.641,13.556c0,.55-.092,1.191-.092,1.74-.092,5.221-.366,10.442-.366,15.571a6.027,6.027,0,0,0,.366,1.374c.458,2.29,1.557,4.58,3.847,5.587,1.557,0,3.023.458,4.671-.458H305.1a8.855,8.855,0,0,1,2.656.366,6.488,6.488,0,0,0,1.282.092,5.319,5.319,0,0,0,2.656-1.008,2.149,2.149,0,0,1,.55-.55c4.03-1.1,3.572-5.771,3.389-9.16,0-.641-.092-1.282-.092-1.832-.092-1.649-.366-3.206-.458-4.763,0-.55-.092-1.1-.092-1.649-.183-1.191-.366-2.473-.458-3.847a6.49,6.49,0,0,1-.092-1.282c-.092-2.473-1.1-5.679,1.008-6.687a23.613,23.613,0,0,1,4.488-2.931,12.981,12.981,0,0,0,1.649-.733c7.969-4.671,16.762-8.793,21.617-16.671a.913.913,0,0,0-.092.366c1.008-2.382,3.572-4.488,4.122-7.328a10.663,10.663,0,0,1,.55-1.374c1.374-3.389,2.931-6.687,2.748-10.259A10.887,10.887,0,0,0,349.8,690.055ZM327.91,697.84c-.092.092-.183.092-.366.183-.092,1.557-1.832,2.381-2.382,3.481-.183.183-.55.458-.733.641-.183.366-.458.55-.641.916l-1.008,1.008c-1.008.733-2.107,1.374-3.023,1.924a2.253,2.253,0,0,1-1.008.366,8.375,8.375,0,0,1-3.023,0,3.192,3.192,0,0,1-.55-1.557,7.759,7.759,0,0,0-.366-1.557,4.4,4.4,0,0,1,0-1.1v-9.984c0-.366-.092-.55-.092-.733h1.832c.733,0,1.557-.183,2.29-.183a6.083,6.083,0,0,1,1.191-.092c2.382,0,4.946-.458,6.961.458C329.1,692.986,329.1,695.825,327.91,697.84Z" transform="translate(-24.725 -56.666)"/><path class="c" d="M471.632,710.123a.913.913,0,0,0-.092.366c1.008-2.382,3.572-4.488,4.122-7.328a10.664,10.664,0,0,1,.55-1.374c1.374-3.389,2.931-6.687,2.748-10.259a2.468,2.468,0,0,0-.458-1.374c-.183-.55-.55-1.008-.733-1.557-1.557-2.29-3.481-4.213-5.038-6.32a6.415,6.415,0,0,0-.733-.916c-.366-.183-.641-.55-1.008-.733a3.346,3.346,0,0,0-1.282-.641,11.68,11.68,0,0,0-1.1-.641,20.669,20.669,0,0,0-3.572-1.374,6.026,6.026,0,0,1-1.374-.366c-3.664-1.008-7.419-1.008-11.083-1.282-.55-.092-1.1-.092-1.649-.183a46.944,46.944,0,0,0-9.892-1.649,9.953,9.953,0,0,1-1.649-.092,10.5,10.5,0,0,0-4.4,1.191,10.016,10.016,0,0,0-1.374.733c-1.1.733-2.29,1.649-3.389,2.381-.458.366-.733.641-1.191,1.008-7.419,12.824-6.32,28.029-5.587,42.409V723.5a112.821,112.821,0,0,0,.641,13.556c0,.55-.092,1.191-.092,1.74-.092,5.221-.366,10.442-.366,15.571a6.027,6.027,0,0,0,.366,1.374c.458,2.29,1.557,4.58,3.847,5.587,1.557,0,3.023.458,4.671-.458H433.8a8.853,8.853,0,0,1,2.656.366,6.492,6.492,0,0,0,1.282.092,5.319,5.319,0,0,0,2.656-1.008,2.148,2.148,0,0,1,.55-.55c4.03-1.1,3.572-5.771,3.389-9.16,0-.641-.092-1.282-.092-1.832-.092-1.649-.366-3.206-.458-4.763,0-.55-.092-1.1-.092-1.649-.183-1.191-.366-2.473-.458-3.847a6.488,6.488,0,0,1-.092-1.282c-.092-2.473-1.1-5.679,1.008-6.687a23.617,23.617,0,0,1,4.488-2.931,12.981,12.981,0,0,0,1.649-.733C457.984,722.122,466.869,717.909,471.632,710.123ZM456.61,697.849c-.092.092-.183.092-.366.183-.092,1.557-1.832,2.381-2.382,3.481-.183.183-.55.458-.733.641-.183.366-.458.55-.641.916l-1.008,1.008c-1.008.733-2.107,1.374-3.023,1.924a2.253,2.253,0,0,1-1.008.366,8.375,8.375,0,0,1-3.023,0,3.192,3.192,0,0,1-.55-1.557,7.761,7.761,0,0,0-.366-1.557,4.4,4.4,0,0,1,0-1.1V692.17c0-.366-.092-.55-.092-.733h1.832c.733,0,1.557-.183,2.29-.183a6.083,6.083,0,0,1,1.191-.092c2.382,0,4.946-.458,6.961.458C457.8,692.994,457.8,695.834,456.61,697.849Z" transform="translate(-35.54 -56.674)"/><path class="c" d="M571.018,722.521c3.3,4.946,3.206,9.343,2.931,15.113-.092,3.847-.183,7.511-.366,11.266v2.839c-.366,2.748-2.382,5.313-.733,7.969,1.008,2.473,5.129,2.473,8.244,2.473h1.649c8.244-.458,11.358-7.419,10.992-14.747a59.728,59.728,0,0,0-.641-8.06,52.942,52.942,0,0,1-1.282-6.412,21.162,21.162,0,0,1,1.74-10.076c1.282-2.931,2.2-6.412,3.939-9.16,3.664-5.771,8.976-8.7,10.9-15.846,1.1-3.664,1.74-7.419,3.481-10.808.641-1.282,1.374-2.473,1.924-3.847a4.308,4.308,0,0,0-.183-3.572c-1.1-2.2-3.939-3.3-6.412-3.847-3.572-.641-6.778,1.924-9.251,4.58-.366.458-.641.916-1.008,1.374-2.748,5.313-5.862,10.442-9.892,14.472a3.507,3.507,0,0,0-.733,1.008c-.733.916-1.557,1.832-2.29,2.839-.458-.641-.733-1.374-1.191-2.107-.458-.55-.733-1.1-1.1-1.557-.916-1.557-1.832-3.023-2.839-4.671-.183-.366-.458-.641-.641-1.008s-.458-.641-.641-1.008-.458-.641-.641-1.008c-1.374-8.06-7.236-14.289-16.121-13.923-.55.092-1.1.366-1.557.458a7.427,7.427,0,0,0-1.649.916c-.458.366-1.008.641-1.374,1.008-6.229,4.122-5.771,10.9-1.374,16.579a15.94,15.94,0,0,0,1.008,1.649,25.808,25.808,0,0,0,3.481,4.213,36337.818,36337.818,0,0,0,1.1,1.832c1.924,3.389,4.4,6.5,5.862,10.167C567.72,715.468,568.545,718.948,571.018,722.521Z" transform="translate(-46.352 -56.706)"/><path class="c" d="M75.967,849.583c-1.008-.916-2.015-1.924-2.931-2.748a10.456,10.456,0,0,1-1.008-1.008,24.022,24.022,0,0,1-2.29-2.015,10.97,10.97,0,0,0-1.1-1.008,24.735,24.735,0,0,1-4.488-3.3,4.8,4.8,0,0,1-.916-1.008c-.366-.275-.641-.641-1.008-.916-3.206-1.466-4.488-3.114-4.58-4.946a4.459,4.459,0,0,1,.092-1.1c.183-.458.458-.916.641-1.282.183-.55.275-1.008.458-1.466s.366-.916.55-1.282a44.876,44.876,0,0,1,5.221-8.244,10.02,10.02,0,0,1,.916-1.008c2.382-4.946,4.946-9.251,8.61-12.366a8.253,8.253,0,0,0,.916-.824,4.376,4.376,0,0,0,1.374-4.122c0-1.74-1.282-4.763-3.664-4.946a5.842,5.842,0,0,0-1.282-.733c-2.473-.641-4.305.366-5.954,1.924a8.634,8.634,0,0,0-.916.916c-3.206,3.664-4.946,8.885-9.984,10.9a8.258,8.258,0,0,1-.916.824,24.394,24.394,0,0,0-4.763,4.946c0-1.832-.916-3.023-.824-4.763,0-.366-.092-.733-.092-1.1-1.282-4.488.916-10.534-3.3-13.281a2.744,2.744,0,0,0-.916-.366,5.543,5.543,0,0,0-2.2-.366H40.244c-.458.092-1.008.092-1.466.183-.916.092-1.832.183-2.748.366a7.427,7.427,0,0,0-1.649.916c-1.649,1.282-2.84,3.206-2.2,5.5a6.746,6.746,0,0,1,.366,1.282c.092.366.092.641.183,1.008.092.275.092.641.183.916-.275,6.32-.183,12.732-.092,19.235v1.466a24.085,24.085,0,0,1,.183,13.465v1.282c0,2.473-.092,4.855-.183,7.328v1.191a19.357,19.357,0,0,1,0,6.5c0,.458-.092.916-.092,1.466l-.275,1.374a7.851,7.851,0,0,0,9.526,7.419l1.1.275a4.416,4.416,0,0,0,1.1,0,3.654,3.654,0,0,0,2.2-.824,1.585,1.585,0,0,1,.458-.458c3.389-.916,2.931-4.763,2.748-7.511,0-.55-.092-1.008-.092-1.557-.092-1.282-.275-2.565-.366-3.939,0-.366-.092-.824-.092-1.282-.275-1.649-.366-3.3-.55-4.946l.916.916c1.1,1.008,2.29,1.924,3.3,2.839.366.275.733.641,1.1.916,4.03,3.755,6.229,8.977,10.35,12.824a9.738,9.738,0,0,1,.824,1.008,6.994,6.994,0,0,0,1.008.733,6.477,6.477,0,0,0,5.679,1.557c1.1-.824,2.473-1.282,3.023-2.656.275-.275.55-.458.824-.733a8.62,8.62,0,0,1,2.015-1.1,3.289,3.289,0,0,0,.916-.641,3.85,3.85,0,0,0,1.282-2.015,2.928,2.928,0,0,1,.092-.641c2.2-2.839-.824-5.587-2.748-7.6C76.7,850.408,76.333,850.041,75.967,849.583Z" transform="translate(-2.69 -66.8)"/><path class="c" d="M176.229,846.057c-2.565-.55-5.4-.641-7.786-1.649a18.333,18.333,0,0,1-7.053-5.038,2.5,2.5,0,0,1,1.74-4.122c3.023-.458,6.5.366,9.434-.733a7.856,7.856,0,0,0,4.946-5.5c.733-2.473-.275-5.038-1.649-7.236-1.191-2.107-3.939-1.924-4.305-1.832h-.092l-11.358.092c-.916-.092-1.832-.092-2.656-.092a.917.917,0,0,1-.916-1.1,8.574,8.574,0,0,1,1.924-4.122c4.03-4.488,10.534-1.466,15.663-3.3a8.938,8.938,0,0,0,5.5-5.954c.733-2.748-.366-5.587-1.832-7.969-1.374-2.29-4.4-2.107-4.855-2.015H160.383c-4.488-.092-9.343-.092-12.824,2.748-2.656,2.29-3.939,5.771-4.855,9.16a69.138,69.138,0,0,0,4.4,46.348c1.557,3.206,3.389,6.412,6.32,8.518,3.755,2.839,8.793,3.389,13.465,3.481,2.931.092,6.137,0,8.793-1.466a15.544,15.544,0,0,0,5.313-5.587c1.649-2.565,2.84-5.771,1.74-8.427C181.45,847.889,178.794,846.607,176.229,846.057Z" transform="translate(-11.813 -66.846)"/><path class="c" d="M297.517,796.79a9.387,9.387,0,0,0-1.282-.366c-.458-.092-1.008-.092-1.466-.183h-1.374a12.659,12.659,0,0,0-8.7,4.122,9.71,9.71,0,0,0-.916,1.1c-3.939,6.5-6.137,14.2-12.64,18.319a6.042,6.042,0,0,1-1.282-.092,3.675,3.675,0,0,1-3.206-1.923c-.183-.366-.275-.733-.458-1.191-1.008-1.465-.55-3.481-1.374-4.855-2.565-4.671-5.587-8.518-7.236-13.373a8.482,8.482,0,0,0-.458-.916,6.1,6.1,0,0,0-5.4-2.931c-.458,0-1.008.092-1.374.092-.458,0-1.008.092-1.466.092-.916.183-1.832.275-2.748.366a7.423,7.423,0,0,0-1.649.916c-1.649,1.282-2.84,3.206-2.2,5.5a9.4,9.4,0,0,1,.366,1.282,13.089,13.089,0,0,1,.366,3.664v1.832a7.4,7.4,0,0,1-.092,1.465v1.557c.092,11.45-1.191,22.533.092,34.349,0,.458-.092.916-.092,1.465-.092,4.305-.275,8.61-.275,12.824.092.366.183.733.275,1.191a5.777,5.777,0,0,0,3.114,4.488c1.282,0,2.565.458,3.847-.275h1.1a9.032,9.032,0,0,1,2.2.275,4.462,4.462,0,0,0,1.1.092,4.354,4.354,0,0,0,2.2-.824,1.585,1.585,0,0,1,.458-.458c3.389-1.008,2.931-4.855,2.748-7.6,0-.458-.092-1.007-.092-1.465-.092-1.374-.275-2.656-.366-3.939,0-.458-.092-.916-.092-1.374-.275-2.931-.641-6.045-.733-9.068-.183-2.656-.733-6.595.275-9.16,1.374.916,2.2,2.931,2.84,4.4,1.924,3.389,4.946,6.045,8.885,6.412,3.481.275,6.778-2.656,8.427-5.4.916-1.466,1.924-4.671,3.389-5.5a44.352,44.352,0,0,1,.366,7.786c0,.458-.092.916-.092,1.374a42.011,42.011,0,0,1,.55,6.687,6.934,6.934,0,0,1-.092,1.374c-1.191,6.87-2.84,18.869,7.419,17.22h1.282c2.931-.366,5.587-1.74,6.32-4.946a6.3,6.3,0,0,0,.183-1.191c.092-4.214-.092-8.519-.275-12.824V845.7a93.95,93.95,0,0,0-1.832-12.823,7.12,7.12,0,0,1-.183-1.466c-.824-5.679.916-10.808,1.374-16.029,0-.366.092-.824.092-1.282s.092-.824.092-1.282c.275-3.389.366-6.961.916-10.35a3.116,3.116,0,0,1,.092-.916,7.776,7.776,0,0,0-.641-3.847A1.107,1.107,0,0,0,297.517,796.79Z" transform="translate(-20.345 -66.766)"/><path class="c" d="M404.981,806.39c-.183-.458-.458-.824-.641-1.282-1.282-1.924-2.84-3.481-4.122-5.221a4.586,4.586,0,0,0-.641-.733c-.275-.183-.55-.458-.824-.641a3.1,3.1,0,0,0-1.1-.55,8.056,8.056,0,0,0-.916-.55,27.988,27.988,0,0,0-2.931-1.191c-.366-.092-.824-.183-1.191-.275-3.023-.824-6.137-.824-9.16-1.1-.458-.092-.916-.092-1.374-.183a34.853,34.853,0,0,0-8.152-1.374,6.936,6.936,0,0,1-1.374-.092,8.044,8.044,0,0,0-3.572,1.008c-.366.183-.733.366-1.191.641-.916.641-1.924,1.374-2.748,2.015-.366.275-.641.549-1.008.824-6.137,10.625-5.221,23.082-4.58,34.99v1.191a92.206,92.206,0,0,0,.55,11.175c0,.458-.092,1.008-.092,1.466-.092,4.305-.275,8.61-.275,12.824.092.366.183.824.275,1.191a5.93,5.93,0,0,0,3.114,4.58c1.282,0,2.473.366,3.847-.366h1.1a9.032,9.032,0,0,1,2.2.275,4.462,4.462,0,0,0,1.1.092,4.354,4.354,0,0,0,2.2-.824,1.585,1.585,0,0,1,.458-.458c3.3-.916,2.931-4.763,2.748-7.511,0-.55-.092-1.1-.092-1.557-.092-1.374-.275-2.565-.366-3.939,0-.458-.092-.916-.092-1.374-.183-1.008-.275-2.107-.366-3.114a4.459,4.459,0,0,1-.092-1.1c-.092-2.107-.916-4.671.824-5.5a28.62,28.62,0,0,1,3.664-2.473,9.242,9.242,0,0,0,1.374-.641c6.595-3.847,13.831-7.328,17.77-13.74a.709.709,0,0,0-.092.275c.824-2.015,2.931-3.664,3.389-6.045.183-.458.275-.824.458-1.191,1.191-2.748,2.382-5.5,2.29-8.427A3.091,3.091,0,0,0,404.981,806.39ZM386.845,812.8c-.092.092-.183.092-.275.183-.092,1.282-1.557,2.015-2.015,2.839-.183.183-.458.366-.641.55-.183.275-.366.458-.55.733l-.824.824a28.916,28.916,0,0,1-2.473,1.649,1.477,1.477,0,0,1-.824.275,5.632,5.632,0,0,1-2.473,0,3.077,3.077,0,0,1-.458-1.282c-.092-.458-.183-.916-.275-1.282a3.053,3.053,0,0,1,0-.916V808.13c0-.275-.092-.458-.092-.641H377.5c.641,0,1.282-.183,1.924-.183a4.11,4.11,0,0,1,1.008-.092c2.015,0,4.03-.366,5.771.366C387.853,808.771,387.853,811.153,386.845,812.8Z" transform="translate(-30.167 -66.657)"/><path class="c" d="M500.929,846.057c-2.565-.55-5.4-.641-7.786-1.649a18.333,18.333,0,0,1-7.053-5.038,2.5,2.5,0,0,1,1.74-4.122c3.023-.458,6.5.366,9.434-.733a7.856,7.856,0,0,0,4.946-5.5c.733-2.473-.275-5.038-1.649-7.236-1.191-2.107-3.939-1.924-4.305-1.832h-.092l-11.358.092c-.916-.092-1.832-.092-2.656-.092a.917.917,0,0,1-.916-1.1,8.574,8.574,0,0,1,1.924-4.122c4.03-4.488,10.534-1.466,15.663-3.3a8.938,8.938,0,0,0,5.5-5.954c.733-2.748-.366-5.587-1.832-7.969-1.374-2.29-4.4-2.107-4.855-2.015H485.083c-4.488-.092-9.343-.092-12.824,2.748-2.656,2.29-3.939,5.771-4.855,9.16a69.138,69.138,0,0,0,4.4,46.348c1.557,3.206,3.389,6.412,6.32,8.518,3.755,2.839,8.793,3.389,13.465,3.481,2.931.092,6.137,0,8.793-1.466a15.544,15.544,0,0,0,5.313-5.587c1.649-2.565,2.839-5.771,1.74-8.427C506.242,847.889,503.585,846.607,500.929,846.057Z" transform="translate(-39.098 -66.846)"/><path class="c" d="M613.638,854.63a32.628,32.628,0,0,0-2.839-2.382c-3.3-2.656-5.5-6.412-7.694-10.076-1.374-2.29-2.656-4.763-2.29-7.328,1.1-5.587,9.343-6.687,11.541-11.908,2.107-4.946-1.832-12.274-4.763-16.121-3.389-4.4-8.244-7.328-13.373-9.251a46.255,46.255,0,0,0-18.319-2.473c-2.931.183-6.32.916-7.786,3.481a9.556,9.556,0,0,0-.916,3.939c-.183,5.954,1.557,11.816,2.2,17.678,1.466,13.556-3.206,27.387-1.191,40.944.366,2.107,1.1,4.4,2.931,5.129a8.216,8.216,0,0,0,3.664.092c3.3-.275,7.328.183,9.16-2.473,1.008-1.557.916-3.389.824-5.129-.458-5.954-.824-11.908-1.282-17.77a58.9,58.9,0,0,0,6.5,7.694,38.65,38.65,0,0,1,4.946,5.313c1.832,2.565,2.748,5.679,4.488,8.244,1.74,2.656,4.58,4.946,7.694,4.488a9.153,9.153,0,0,0,4.122-2.015c2.473-1.832,4.855-4.671,4.03-7.6A6.19,6.19,0,0,0,613.638,854.63Zm-22.35-33.524c-.275.092-.641.183-.916.275-.183,0-.275.092-.458.092-.366.092-.733.275-1.1.366h-.366c-.916.092-1.832,0-2.565.092h-.366a7.883,7.883,0,0,0-1.466.092h-.275c0-1.282.092-2.473.092-3.755v-.733c1.008-2.107-.55-3.939.55-5.954v-.55a20.179,20.179,0,0,1,6.229,1.649,3.827,3.827,0,0,1,.916.366,7.787,7.787,0,0,1,1.74.55,8.436,8.436,0,0,0,.733.458C596.418,816.067,593.4,819.64,591.289,821.105Z" transform="translate(-47.662 -66.808)"/><path class="c" d="M596.661,297.87c0-5.587-.366-11.175-.641-16.671-.366-5.771-.183-11.633-.824-17.4s-2.748-11.358-3.755-17.037-1.282-11.541-2.565-17.22c-1.374-5.679-2.29-11.45-3.939-16.945-1.649-5.587-5.771-10.259-7.786-15.755-2.015-5.4-3.023-11.266-5.221-16.579-2.29-5.313-4.03-10.9-6.595-16.121s-7.236-9.251-10.076-14.289-3.755-11.266-6.87-16.121-7.236-9.16-10.625-13.831-7.328-8.885-11.083-13.373c-3.664-4.488-7.786-8.519-11.633-12.824-4.03-4.4-7.419-9.434-11.724-13.556S495.081,71.351,490.5,67.5s-9.709-7.053-14.564-10.534c-4.855-3.572-10.717-5.4-15.755-8.61S451.389,39.842,446.168,37c-5.221-2.931-10.808-5.129-16.213-7.786-5.4-2.565-11.083-4.488-16.579-6.778s-11.633-2.931-17.312-4.855-10.992-4.763-16.762-6.32-11.816-1.649-17.678-2.839S350.358,3.57,344.5,2.745,332.588,1.738,326.634,1.28c-6.229-.55-12.549.55-18.777.458S295.308-.277,289.079,0c-6.229.366-12.274,3.023-18.411,3.755-6.412.824-12.824-.092-18.961,1.1-6.137,1.1-12.274,2.565-18.319,4.03s-11.724,4.4-17.678,6.229-11.816,3.847-17.678,5.954c-5.862,2.015-12.091,3.3-17.861,5.587s-11.45,4.946-17.129,7.6c-5.679,2.565-11.633,4.671-17.129,7.6s-9.984,7.6-15.205,10.992c-5.221,3.3-10.9,6.045-15.938,9.8-4.671,3.481-8.885,7.511-13.282,11.266S91.78,80.6,87.658,84.633,80.422,93.793,76.483,98.1s-8.061,8.427-11.633,12.915c-3.572,4.58-7.786,8.7-11.083,13.465s-6.412,9.709-9.434,14.655-5.038,10.534-7.786,15.663c-2.656,5.129-5.038,10.442-7.328,15.755-2.382,5.313-5.4,10.35-7.419,15.755s-3.206,11.175-4.946,16.762c-1.649,5.587-2.382,11.358-3.664,17.037s-2.931,11.175-3.847,16.945a11.357,11.357,0,0,0-1.1,2.107c-1.74,6.137-3.114,12.274-4.213,18.411C2.931,263.8,1.008,269.933.55,276.253,0,282.482,0,288.894,0,295.214c.092,6.32,1.832,12.549,2.382,18.869.458,6.32-.275,12.732.55,18.961.733,5.221,2.382,10.259,3.3,15.48S8.244,358.874,9.343,364s1.74,10.442,2.931,15.571c1.466,6.137,3.206,12.091,5.129,17.861,1.924,5.954,4.946,11.358,7.328,16.945,2.382,5.679,4.58,11.45,7.419,16.945s6.412,10.534,9.618,15.755,5.587,11.083,9.068,16.121,8.7,8.793,12.457,13.74c3.664,4.855,7.145,9.892,10.992,14.839,3.572,4.488,7.511,8.518,11.266,12.64,3.847,4.213,6.5,9.618,10.625,13.465,4.122,3.939,8.7,7.419,13.1,10.992s9.526,6.229,14.106,9.618c4.58,3.3,8.885,7.145,13.648,10.167s9.709,5.954,14.655,8.7,10.534,4.213,15.663,6.687c5.313,2.656,9.892,6.687,15.205,9.16,5.4,2.473,11.541,2.931,17.037,5.038,5.5,2.2,10.9,4.305,16.487,6.229s10.625,5.587,16.3,7.145,11.908,1.008,17.678,2.107,11.541,2.015,17.4,2.656,11.541,2.382,17.495,2.565c5.5.092,11.083-.092,16.579-.366s10.9-2.2,16.4-2.748,10.992-.824,16.487-1.557c5.5-.824,10.9-1.74,16.3-2.748,5.313-.916,11.083.55,16.4-.366s10.442-3.481,15.755-4.488,10.9-.916,16.213-2.29,10.625-2.748,15.663-4.58c5.4-1.923,9.892-5.862,14.839-8.518,5.038-2.656,9.251-6.32,13.923-9.526s9.526-5.954,14.014-9.434,8.793-7.236,13.19-10.717c4.4-3.572,9.8-5.954,14.014-9.526,4.305-3.664,8.793-7.145,12.915-10.9,4.213-3.755,8.427-7.511,12.457-11.45s7.694-8.244,11.541-12.366,5.954-9.709,9.526-14.014,9.068-7.145,12.457-11.724c3.3-4.488,4.855-10.259,7.877-15.022,2.931-4.671,6.229-9.251,8.885-14.289,2.656-4.855,4.488-10.167,6.778-15.388,2.29-5.038,5.771-9.618,7.786-14.839s4.58-10.259,6.32-15.48c1.74-5.313.916-11.358,2.382-16.762s3.847-10.442,5.038-15.938c1.191-5.4,1.649-10.992,2.565-16.487s3.3-10.808,3.847-16.3,1.557-11.083,1.832-16.671C597.486,309.045,596.661,303.458,596.661,297.87Zm-19.419,15.846c-.366,5.954-2.381,11.724-3.114,17.587s-1.832,11.724-2.839,17.495c-1.1,5.862-2.381,11.541-3.847,17.312-1.374,5.771-2.656,11.541-4.4,17.22s-1.74,12-3.847,17.495c-2.107,5.679-6.87,10.167-9.251,15.388-2.473,5.5-3.389,11.633-6.229,16.762-2.839,5.221-6.32,10.167-9.526,15.113-3.206,5.038-6.045,10.35-9.526,15.022-3.572,4.763-8.152,8.7-12,13.19-4.305,5.038-9.251,9.434-13.923,14.2-4.58,4.671-8.427,10.167-13.373,14.655-4.855,4.4-10.442,8.061-15.571,12.366-5.038,4.213-10.442,8.06-15.571,12.274s-8.885,10.259-14.2,14.106c-5.4,3.939-11.633,6.595-17.4,9.8-5.587,3.114-11.724,4.855-17.77,6.87s-11.724,5.587-17.953,6.961c-6.229,1.282-13.007,0-19.235,1.191-5.129,1.008-10.167,2.839-15.3,3.755s-10.259,2.29-15.48,3.114-10.35,1.924-15.571,2.473c-5.221.641-10.534,0-15.755.275-5.679.366-11.175-.458-16.762-.55s-11.175.183-16.671-.366c-5.587-.55-11.358.458-16.854-.55s-10.442-4.671-15.846-6.045-10.9-2.382-16.213-4.122-10.717-3.114-15.938-5.129c-5.129-2.015-10.9-2.839-16.029-5.221-5.5-2.473-10.442-6.137-15.846-8.793s-11.358-4.305-16.671-7.145c-5.221-2.931-9.068-8.244-14.2-11.45-5.038-3.206-10.259-6.137-15.113-9.709s-10.35-6.32-14.839-10.35c-4.488-3.939-7.328-9.618-11.45-14.014-3.481-3.755-8.61-6.229-12-10.167s-5.313-9.068-8.519-13.19-6.412-8.152-9.526-12.274c-3.114-4.213-7.145-7.694-10.076-11.908-3.389-4.855-6.687-9.892-9.526-14.93-2.931-5.129-4.763-10.808-7.236-16.213s-4.855-10.717-6.87-16.3c-2.015-5.5-3.023-11.358-4.671-17.037s-4.855-10.9-6.137-16.671-1.466-11.724-2.565-17.587c-1.008-5.771-2.473-11.541-3.389-17.4-.824-5.5.092-11.175-.275-16.762-.366-5.5-1.832-11.083-1.832-16.671s.733-11.083,1.1-16.762c.366-5.587,1.74-10.992,2.382-16.579s1.374-11.083,2.382-16.487c1.008-5.5,1.191-11.175,2.382-16.579,1.282-5.5,2.473-10.992,3.939-16.3,1.557-5.4,4.122-10.442,5.954-15.663,2.107-5.862,3.755-11.908,6.229-17.587s4.4-11.724,7.328-17.22c2.839-5.5,6.412-10.717,9.618-16.029,3.3-5.313,6.87-10.35,10.534-15.48,3.664-5.038,7.511-9.984,11.45-14.747s8.976-8.61,13.373-13.1c4.305-4.488,8.61-8.885,13.282-13.007,4.305-3.847,7.694-8.61,12.274-12.091s10.076-5.5,14.839-8.7c4.763-3.114,9.16-6.778,14.2-9.618,4.946-2.84,9.984-5.5,15.205-7.969,5.129-2.473,10.534-4.305,15.846-6.5s10.534-4.305,15.938-6.229c5.587-2.015,10.9-4.763,16.487-6.5,5.679-1.74,11.45-2.931,17.22-4.4,5.771-1.557,11.358-3.481,17.129-4.671s11.816-1.008,17.678-1.924c5.862-.824,11.541-3.481,17.4-3.939s11.816-.275,17.77-.275c5.587,0,11.266-.092,16.945.275,5.587.366,10.992,2.84,16.579,3.572s11.175,1.191,16.671,2.29c5.5,1.008,11.266,1.282,16.671,2.656,5.5,1.374,10.625,3.664,16.029,5.4,5.313,1.74,10.625,3.572,15.846,5.587s10.992,3.023,16.029,5.313c5.129,2.382,9.343,6.412,14.381,9.068,4.946,2.656,10.808,3.755,15.571,6.687s9.434,6.229,14.014,9.526S468.975,78.13,473.28,81.7s9.892,5.771,14.014,9.618c4.305,4.03,8.518,8.152,12.549,12.457,4.03,4.213,6.87,9.618,10.625,14.106s7.419,8.976,10.9,13.74,8.06,8.7,11.266,13.648,5.862,10.259,8.7,15.388,5.679,10.259,8.244,15.571,2.839,11.541,5.038,16.945,5.771,10.35,7.694,15.846c1.832,5.587,2.29,11.541,3.847,17.22s2.656,11.358,3.847,17.037c1.191,5.771,3.847,11.175,4.671,17.037s2.29,11.724,2.656,17.678c.458,5.954,0,11.908,0,17.861C577.518,301.809,577.609,307.763,577.243,313.716Z" transform="translate(0 0)"/><path class="c" d="M427.38,309.518a9.993,9.993,0,0,1-1.008-.55c-4.488-2.656-8.793-6.412-13.923-7.694a52.473,52.473,0,0,0-16.029-1.191c-5.313.458-10.35,2.748-15.113,5.221-4.58,2.382-8.244,5.954-11.633,10.442-4.488,5.862-8.06,13.465-17.129,11.541-1.832-.366-3.572-1.74-5.4-1.832-8.976-.366-.275,14.747,3.939,16.762,4.488,2.107,9.068.55,13.831-1.832,4.671-2.382,8.518-6.229,11.541-8.976,3.572-3.3,8.518-5.129,12.64-7.6,4.213-2.473,8.518-4.488,13.465-5.129a32.142,32.142,0,0,1,13.19,1.282c4.4,1.191,8.793,3.206,13.282,2.107,1.374-.275,3.572-.733,4.488-1.832,1.374-1.74-.183-4.763-1.282-6.687C431.044,311.534,429.212,310.618,427.38,309.518Z" transform="translate(-28.842 -25.205)"/><path class="c" d="M412.989,340.832c-4.671-4.03-14.2-4.213-17.678,1.466-2.382,3.847-2.29,10.35-1.74,15.755.55,5.5,2.656,10.442,8.244,12,6.229,1.832,10.717-2.2,13.1-7.694,2.015-4.58,3.664-10.717,2.107-16.029C416.378,344.038,414.912,342.48,412.989,340.832Z" transform="translate(-33.046 -28.398)"/><path class="c" d="M261.8,323.217c4.305,2.015,9.618,3.755,14.289,8.061,3.847,3.572,6.412,8.518,10.625,10.167s9.16.733,14.472-1.466a22.147,22.147,0,0,0,6.595-3.664c1.924-1.649,3.3-4.122,2.84-6.595s-3.572-5.5-5.954-4.58c-.733.275-1.191,1.466-1.832,1.924-2.656,1.649-5.771,1.282-8.518-.183-7.236-4.03-9.343-12.915-15.755-17.77a54.636,54.636,0,0,0-15.663-7.877c-5.679-1.832-12-2.473-17.4-1.008-3.3.916-11.633,6.045-17.678,10.534-4.03,2.931-7.328,5.221-6.045,8.152,1.282,2.748,4.946,1.649,7.969,1.191,6.045-1.008,11.45.641,16.3.641C251.818,320.744,256.764,320.835,261.8,323.217Z" transform="translate(-18.613 -25.163)"/><path class="c" d="M264.944,358.156c.55-5.4-1.832-10.625-4.213-14.472-2.2-3.481-5.771-5.038-10.167-4.4-4.4.733-7.877,3.114-8.793,7.236-1.282,5.587-2.382,11.266-.092,16.579,2.473,5.5,8.885,9.892,15.022,8.152C262.287,369.7,264.394,363.652,264.944,358.156Z" transform="translate(-20.197 -28.502)"/><path class="c" d="M314.791,360.181a3.722,3.722,0,0,0-4.671,1.924c-2.382,4.855-3.3,10.534-5.679,15.205-1.832,3.664-4.305,6.87-5.771,10.717-1.74,4.488-2.382,9.343-4.122,13.831-1.649,4.58-3.664,10.35-2.29,15.3.916,3.572.092,7.236,2.84,10.076,2.29,2.473,6.687,3.206,9.526,4.305a50.273,50.273,0,0,0,6.229,2.2,37.527,37.527,0,0,0,4.4.916c3.023.366,7.328-.275,6.5-4.763-.458-2.29-2.565-4.122-4.58-5.5-.824-.55-1.649-1.1-2.29-1.557a36.471,36.471,0,0,1-4.671-3.755,14.54,14.54,0,0,1-3.847-5.4c-1.74-4.488,1.191-10.534,2.382-14.839,1.282-4.671,2.656-9.343,3.847-14.106s3.3-9.16,4.58-13.923c.824-3.114,1.466-7.053.275-10.076C317.081,359.907,315.707,360.456,314.791,360.181Z" transform="translate(-24.521 -30.252)"/><path class="c" d="M334.849,431.988a8.047,8.047,0,0,0,3.206.916c4.763.55,9.16,1.008,13.923-.55a17.12,17.12,0,0,0,9.16-7.145c2.473-3.664,2.382-7.786,2.107-12.457-.275-4.488-.55-9.068-1.832-13.19-.458-1.466-.366-3.206-.824-4.855-1.649-5.954-2.931-13.1-5.4-19.144-2.656-6.412-6.87-10.992-12.274-13.465-2.107,1.649-2.29,4.213-2.2,7.145s-.092,5.954.824,8.7c1.374,4.305,3.664,8.244,4.763,12.64s1.557,8.976,2.473,13.465c1.832,9.892-3.664,14.839-10.259,19.419-1.191.824-2.382,1.649-3.572,2.656a4.441,4.441,0,0,0-1.74,2.84,4.279,4.279,0,0,0,.275,1.557A5.243,5.243,0,0,0,334.849,431.988Z" transform="translate(-28 -30.431)"/><path class="c" d="M374.9,483.487c3.114-.183,1.649-8.793-2.107-13.556-4.122-5.313-13.007-9.618-19.785-10.167-4.671-.366-9.526-.458-14.381-.366-4.4,0-8.61.733-12.915.916-4.488.275-8.885-.916-13.282-.916-4.946,0-9.8,0-14.381.366-6.778.55-15.571,4.855-19.785,10.167a28.213,28.213,0,0,0-5.862,16.487c-.092,4.763,4.122,5.862,7.145,2.656,3.389-3.481,3.755-8.152,8.427-10.808,3.939-2.2,9.068-1.649,13.648-2.015,6.045-.458,12-1.191,18.136-1.649,5.679-.366,11.358-.183,17.037,0,3.023.092,5.954.275,8.976.366,4.763.183,13.19.916,17.4,3.206C363.081,478.358,371.508,484.036,374.9,483.487Z" transform="translate(-22.89 -38.604)"/><path class="c" d="M481.244,285.392a23.442,23.442,0,0,0-13.648-8.61h-.183c.458-3.481,1.374-6.87,1.649-10.35.458-5.129,1.466-10.076,2.29-15.205.824-5.038,1.649-10.076,2.565-15.205.916-5.038,1.649-10.167,2.565-15.205s1.191-10.259,1.832-15.3c.641-5.129.733-10.167.916-15.3,0-1.1,1.557-1.832,1.282-2.656.641-2.107.092-5.129-1.374-7.6-2.656-4.305-7.328-7.419-10.259-11.541-2.931-4.213-5.679-8.427-8.793-12.457s-6.229-8.61-9.526-12.457c4.855-4.946,12.274-10.35,12.274-17.4,0-3.206-2.382-6.137-5.221-7.694-5.771-3.114-12.732-4.03-18.869-6.229-6.961-2.382-14.2-4.763-20.792-8.152a27.258,27.258,0,0,1,1.649-2.748c3.023-4.671.275-11.816-5.5-12.915a201.456,201.456,0,0,0-35.265-3.206,162.444,162.444,0,0,0-17.678,1.557,143.121,143.121,0,0,0-17.312,3.939,166.5,166.5,0,0,0-17.129,5.129c.183-3.114-.733-6.045-4.03-9.16-6.137-5.862-14.381-4.305-21.525-2.015-5.221,1.649-10.808,2.565-16.3,4.213-5.313,1.557-10.717,3.114-16.213,4.763-5.313,1.649-10.167,5.129-15.48,7.053s-10.534,3.847-15.663,6.045c-5.221,2.29-9.892,5.221-14.747,7.969-4.946,2.84-10.076,5.038-14.472,8.519-4.488,3.481-9.251,6.595-13.007,10.808-3.664,4.122-6.5,9.16-9.251,14.2-2.473,4.4-5.862,8.335-9.16,12.549-3.114,4.122-6.412,8.244-9.434,12.366a73.51,73.51,0,0,0-7.511,13.648c-2.107,4.671-2.656,9.618-2.931,14.93a100.53,100.53,0,0,0-.183,13.923c.366,4.671.824,9.343,1.374,13.923.55,4.763-.824,9.526-.55,14.106.275,4.855,3.114,9.618,3.3,14.564.275,4.855-.183,9.8.092,14.747v2.931a20.744,20.744,0,0,0-10.35,1.832c-5.313,2.473-8.976,6.87-11.724,11.358-2.748,4.58-5.221,9.892-5.862,15.388-.641,5.4.733,11.175,1.466,16.4.733,4.946,2.84,9.251,4.488,13.648,1.74,4.488,2.015,9.526,4.213,14.014,3.664,7.419,5.129,11.266,3.3,19.327-1.191,5.129-3.481,9.16-2.931,14.564.641,6.137,2.565,11.541,6.32,14.839,3.847,3.389,9.984,3.664,15.388,4.671,2.931.55,5.954,1.191,8.885,1.557,0,.55.092,1.1.092,1.557.641,5.221,2.29,10.442,3.572,15.48a120.1,120.1,0,0,0,4.946,15.022c2.015,4.855,5.954,8.7,8.61,13.282,2.656,4.488,4.03,9.892,7.236,14.106,3.206,4.122,7.694,7.236,11.45,10.9,3.664,3.664,8.152,6.32,12.366,9.618,4.488,3.481,8.793,7.236,13.007,10.992s7.419,8.7,11.45,12.549c4.122,3.847,8.152,7.877,12.274,11.633a41.038,41.038,0,0,0,13.373,7.969c4.946,1.924,10.076,1.649,15.3,1.832,5.038.275,10.076-.275,15.388-.55a148.849,148.849,0,0,1,15.663,0c1.374.092,2.565,1.923,3.939,1.923,2.84.183,5.679.824,8.61,1.008,4.855.275,9.892-1.557,14.747-1.282,7.145.458,11.633,0,15.755-2.473,4.03-2.565,8.518-5.4,12.824-10.534,4.213-4.946,8.244-10.167,12-15.571,3.755-5.313,6.32-11.45,9.8-16.945,2.656-4.213,4.855-8.793,7.6-13.007s5.038-8.7,7.694-12.915,5.679-8.244,8.244-12.549,5.038-8.7,7.328-13.1c2.382-4.488,5.679-8.427,7.694-13.007,2.107-4.855,2.565-10.076,3.389-15.022,4.305.366,8.793-1.191,12.824-3.206a25.968,25.968,0,0,0,10.076-9.618,35.694,35.694,0,0,0,4.58-11.908,120.135,120.135,0,0,0,1.374-12.732c.641-6.32,1.374-12.182,3.481-17.587s5.4-10.35,7.969-16.029c2.2-4.763,3.389-10.35,4.855-15.846s3.847-10.808,3.389-16.213A32.479,32.479,0,0,0,481.244,285.392ZM181.631,327.618c-.183,5.038-1.466,10.076-1.924,15.113-.916,11.358-3.114,21.892-4.488,33.158-.366,3.389-.824,6.87-1.1,10.35a46.09,46.09,0,0,1-5.313-.824c-3.572-.824-6.137-2.931-6.412-8.793-.183-4.488,3.755-9.892,4.03-14.747.55-8.427-3.206-15.755-6.778-23.174a98.264,98.264,0,0,1-6.045-16.762,32.308,32.308,0,0,1-.183-17.22c2.015-7.694,5.4-10.992,9.709-11.083a10.143,10.143,0,0,0,6.778,2.473h.275c4.213,3.023,7.877,8.244,10.9,11.908,0,.092.092.092.183.183,0,1.374-.092,2.748-.183,4.122C180.715,317.267,181.814,322.4,181.631,327.618ZM429.767,288.6c0,5.313-1.557,10.625-1.832,15.938-.275,5.4-.733,10.625-1.466,15.755-.733,5.5-.183,11.266-.733,16.762s-.458,11.175-.916,16.671c-.458,5.587-.275,11.175-.55,16.671s-.733,10.534-1.008,15.48v.458a10.648,10.648,0,0,0-.733,7.877,59.647,59.647,0,0,1-1.191,7.053c-1.008,4.671-3.755,9.068-6.229,14.106-2.2,4.58-3.206,9.8-5.771,14.2-2.473,4.4-6.595,7.877-9.343,12.274-2.656,4.305-4.122,9.434-6.87,13.74s-5.771,8.427-8.518,12.732c-2.473,3.847-4.122,8.976-6.87,13.74-2.473,4.4-5.954,8.427-8.885,12.64-3.114,4.305-7.236,7.511-11.083,10.534-4.122,3.3-8.244,5.954-13.465,6.5a79.237,79.237,0,0,1-14.747-.183c-4.946-.458-9.8.183-14.747.366-5.587.275-11.266-1.74-16.945-1.923-5.587-.092-11.266.733-16.854.275-5.4-.458-9.16-5.587-13.556-10.35-4.213-4.671-9.434-8.61-13.007-11.908a163.831,163.831,0,0,0-13.007-10.9c-4.488-3.389-8.7-7.236-13.1-10.9a93.355,93.355,0,0,1-12.274-11.816c-3.939-4.671-6.778-9.984-9.8-15.3a99.3,99.3,0,0,1-7.145-16.671,96.96,96.96,0,0,1-4.763-17.495c-.733-4.58-.366-8.976-.275-13.465.092-4.58-1.74-9.251-1.191-13.74,1.374-10.992,5.954-21.617,7.053-32.792a172.618,172.618,0,0,0,.183-18.228c-.092-4.855-1.282-9.8-1.191-14.747.183-4.855,1.557-9.8,1.832-14.747s-.55-9.892-.275-14.839,2.29-9.8,2.473-14.655c.183-5.313-.55-10.625,0-15.938a130.932,130.932,0,0,1,2.931-15.663,92.913,92.913,0,0,1,5.221-14.93,68.939,68.939,0,0,1,8.335-13.373c3.939-5.313,7.511-9.618,12.182-12.64a38.121,38.121,0,0,1,16.487-5.954c5.587-.733,11.633-2.2,18.045-.916,4.58.916,8.976,3.389,13.74,4.122s9.709.275,14.2,1.74c5.679,1.832,10.808,2.2,15.938,2.84a62.481,62.481,0,0,0,16.029,0c6.412-.824,12.824-1.1,19.052-2.748A101.589,101.589,0,0,1,364,191.047a54.124,54.124,0,0,1,16.3,1.374c5.313,1.282,10.992,2.382,15.846,5.038a72.039,72.039,0,0,1,13.74,9.526,59.493,59.493,0,0,1,11.358,14.381c2.931,5.221,3.481,11.541,4.763,17.495,1.282,5.679,1.374,11.541,1.557,17.77.092,5.221,2.382,10.534,2.473,15.938C430.316,277.881,429.675,283.285,429.767,288.6Zm38.379,18.686c-.366,5.221-.916,10.625-3.023,15.388S459.9,331.74,457.8,336.32c-1.832,3.847-3.939,7.328-5.221,11.266-1.282,3.847-3.572,7.6-4.213,11.816-.183,1.466.641,9.434-.916,16.029-1.191,4.855-2.84,8.976-5.221,9.8.092-.55.092-1.191.183-1.74.275-6.045-1.282-12.182-1.282-18.228.092-6.045-.092-12.182.366-18.228.366-4.671,1.282-9.434,1.924-14.106.641-4.946,2.107-9.984,2.748-15.3.641-5.038,2.107-10.076,2.565-15.388a24.259,24.259,0,0,0-.183-5.129c4.305-1.924,8.885-3.572,12.457-3.114C465.764,294.552,468.787,298.948,468.146,307.283Z" transform="translate(-11.17 -6.94)"/><path class="c" d="M304.687,506.838c-1.466-1.466-4.122-2.565-5.679-1.008-1.466,1.466-1.282,4.946.275,6.412.183.183,0,.824.275,1.1,1.466,1.466,5.313,1.374,6.87-.183,1.466-1.466.824-4.488-.641-5.954C305.328,506.746,305.053,507.113,304.687,506.838Z" transform="translate(-25.042 -42.445)"/><path class="c" d="M339.368,508.488c0-.366-.275-.366-.275-.641,0-2.015-2.29-2.84-4.488-2.748-2.107.092-3.755.55-3.755,2.748,0,.366-.55.366-.55.641,0,2.015,2.107,3.389,4.213,3.3C336.712,511.694,339.368,510.687,339.368,508.488Z" transform="translate(-27.756 -42.447)"/><path class="c" d="M361.139,512.081c1.466-1.466.275-4.58-1.191-6.137-1.466-1.466-4.305-2.473-5.862-.916-.183.183,0,.916-.183,1.1a4.339,4.339,0,0,0,.092,5.771,4.219,4.219,0,0,0,5.679.092C359.949,511.715,360.956,512.264,361.139,512.081Z" transform="translate(-29.651 -42.375)"/><path class="c" d="M342.553,524.2c-5.038,0-5.038,9.343,0,9.343S347.591,524.2,342.553,524.2Z" transform="translate(-28.468 -44.052)"/><path class="c" d="M319.653,521.7a3.578,3.578,0,1,0,0,7.145A3.578,3.578,0,1,0,319.653,521.7Z" transform="translate(-26.544 -43.842)"/><path class="c" d="M295.253,529.4c-5.038,0-5.038,8.885,0,8.885C300.291,538.377,300.383,529.4,295.253,529.4Z" transform="translate(-24.493 -44.489)"/><path class="c" d="M362.553,530.9c-5.038,0-5.038,7.969,0,7.969C367.683,538.869,367.683,530.9,362.553,530.9Z" transform="translate(-30.149 -44.615)"/></g></svg>