<svg xmlns="http://www.w3.org/2000/svg" viewBox="0 0 40 40"><defs><style>.a{fill:#bda7b4;}.b{fill:#312c22;}.c{fill:#fdd6b4;}</style></defs><g transform="translate(-800 -50)"><g transform="translate(800 50)"><path class="a" d="M61.652,58.054c-.288.334-.616.628-.931.948s-.569.674-.9.982-.7.534-1.045.828-.7.541-1.045.821-.6.681-.951.941a11.061,11.061,0,0,1-1.165.654,6.914,6.914,0,0,1-1.185.461,11.365,11.365,0,0,1-1.2.461c-.415.087-.871,0-1.286.08-.348.067-.676.194-1.025.254s-.69.154-1.038.207-.7.127-1.045.167-.7,0-1.058.02c-.375.02-.75-.033-1.118-.04s-.75.013-1.119-.027-.764.033-1.132-.033-.7-.314-1.058-.4-.73-.154-1.085-.274-.717-.207-1.065-.341-.73-.194-1.072-.347c-.368-.167-.7-.407-1.058-.588s-.764-.287-1.112-.481-.609-.548-.951-.761-.69-.407-1.011-.648-.7-.421-1-.688-.489-.641-.764-.935c-.234-.254-.576-.414-.8-.681s-.355-.608-.569-.881-.435-.541-.636-.821-.482-.514-.676-.795a11.434,11.434,0,0,1-.636-1c-.194-.347-.321-.721-.482-1.082s-.328-.714-.462-1.088-.208-.761-.315-1.135-.321-.728-.415-1.115-.1-.781-.174-1.175-.167-.768-.228-1.162c-.054-.367.007-.748-.02-1.122s-.121-.734-.121-1.115.047-.741.074-1.115.114-.734.161-1.108.094-.734.161-1.1.08-.748.161-1.108.161-.734.268-1.088.275-.7.4-1.048c.141-.394.248-.795.415-1.175s.295-.781.489-1.155.429-.714.65-1.075.462-.694.7-1.035.5-.668.77-.988.6-.574.891-.875.583-.594.891-.868c.288-.254.516-.574.817-.808s.676-.367,1-.581.616-.454.951-.641.67-.367,1.018-.534.71-.287,1.065-.434.7-.287,1.072-.414.73-.314,1.105-.434.77-.194,1.152-.294.757-.227,1.145-.307.79-.067,1.185-.127.77-.234,1.165-.26.8-.013,1.192-.013c.375,0,.757-.007,1.132.02s.737.187,1.112.234.743.08,1.118.154.75.087,1.118.174.71.247,1.072.361.71.24,1.065.374.737.2,1.078.354.63.427.958.608.723.247,1.045.447.63.414.938.634.522.561.81.795.663.387.938.641.569.548.837.828.462.641.71.941.5.6.73.915.542.581.75.908.388.681.583,1.022.382.688.556,1.042.188.775.335,1.135.388.688.509,1.062.154.768.255,1.148.174.755.255,1.142.261.748.315,1.135.154.788.181,1.182,0,.795,0,1.2.007.795-.013,1.2-.161.781-.208,1.175-.121.781-.194,1.169-.161.775-.255,1.155-.174.768-.295,1.148-.114.8-.255,1.169-.455.674-.616,1.028-.228.775-.415,1.122-.422.674-.636,1.008-.4.688-.636,1.008S61.913,57.754,61.652,58.054Z" transform="translate(-26.778 -25.722)"/><path class="b" d="M39.958,20.048c0-.374-.027-.741-.047-1.115s-.013-.781-.054-1.162-.181-.755-.248-1.135-.08-.775-.174-1.148-.154-.761-.268-1.135-.388-.688-.516-1.048-.2-.748-.355-1.108-.275-.728-.442-1.075-.482-.621-.676-.955-.248-.755-.462-1.075-.482-.608-.71-.921-.5-.594-.737-.895-.516-.574-.784-.855-.5-.628-.79-.9-.549-.588-.857-.841-.65-.467-.971-.708-.717-.361-1.058-.574-.589-.568-.938-.761-.723-.347-1.085-.514-.743-.3-1.112-.454-.777-.194-1.159-.321S25.779,1.031,25.4.925s-.79-.107-1.185-.187S23.455.417,23.06.357s-.8-.067-1.2-.1-.837.033-1.252.027S19.771.15,19.356.17s-.824.2-1.239.254-.844-.007-1.259.067-.817.167-1.226.267-.784.294-1.185.414-.79.26-1.185.394-.81.22-1.192.374-.764.334-1.145.507-.777.314-1.145.507-.67.507-1.018.734-.73.4-1.065.654c-.308.234-.589.5-.884.755s-.65.441-.924.714-.489.614-.75.9-.536.561-.784.861-.522.581-.743.9-.435.648-.636.982-.342.7-.522,1.042-.335.7-.5,1.055-.362.688-.5,1.055-.221.748-.328,1.115-.154.755-.248,1.135-.194.748-.261,1.135a.69.69,0,0,0-.074.14,11.6,11.6,0,0,0-.281,1.229c-.074.414-.2.828-.234,1.249S0,19.447,0,19.868s.127.841.161,1.262-.02.848.04,1.269c.047.347.161.688.221,1.035s.134.688.208,1.035.114.694.194,1.035c.094.407.214.808.342,1.189s.335.761.489,1.135.3.768.5,1.128.429.7.643,1.055.368.741.609,1.082.583.588.837.921.476.661.737.988c.241.3.5.568.757.848s.435.641.71.9.583.494.877.734.636.421.944.641.6.474.918.681.65.394.985.581.71.28,1.052.447.663.447,1.018.608.777.194,1.139.341.73.287,1.105.414.71.374,1.092.481.8.067,1.185.14.77.134,1.165.174.777.16,1.172.174c.368.007.743-.007,1.112-.027s.73-.147,1.1-.187.737-.053,1.1-.107.73-.12,1.092-.18.737.033,1.1-.027.7-.227,1.052-.3.73-.06,1.085-.154.71-.18,1.052-.307a6.956,6.956,0,0,0,.991-.574,11.062,11.062,0,0,0,.938-.641c.315-.214.643-.4.944-.634s.589-.481.884-.714.656-.394.938-.634.589-.481.864-.728.563-.507.83-.768.516-.548.77-.821.4-.648.643-.935.609-.474.83-.781.321-.688.529-1.008.415-.621.6-.955S37.835,29,38,28.655s.388-.641.522-.988.308-.681.422-1.035.06-.761.161-1.115.255-.7.335-1.062.114-.734.174-1.1.221-.721.261-1.088.107-.741.127-1.115C40.011,20.8,39.958,20.415,39.958,20.048Zm-1.3,1.055c-.02.394-.161.781-.208,1.175s-.121.781-.194,1.168S38.1,24.221,38,24.6s-.174.768-.295,1.148-.114.8-.255,1.168-.455.674-.616,1.028-.228.775-.415,1.122-.422.674-.636,1.008-.4.688-.636,1.008-.542.581-.8.881c-.288.334-.616.628-.931.948s-.569.674-.9.982-.7.534-1.045.828-.7.541-1.045.821-.6.681-.951.941a11.062,11.062,0,0,1-1.165.654,6.912,6.912,0,0,1-1.185.461,11.361,11.361,0,0,1-1.2.461c-.415.087-.871,0-1.286.08-.348.067-.676.194-1.025.254s-.69.154-1.038.207-.7.127-1.045.167-.7,0-1.058.02c-.375.02-.75-.033-1.118-.04s-.75.013-1.118-.027-.764.033-1.132-.033-.7-.314-1.058-.4-.73-.154-1.085-.274-.717-.207-1.065-.341-.73-.194-1.072-.347c-.368-.167-.7-.407-1.058-.588s-.764-.287-1.112-.481-.609-.548-.951-.761-.69-.407-1.011-.648-.7-.421-1-.688-.489-.641-.764-.935c-.234-.254-.576-.414-.8-.681s-.355-.608-.569-.881-.435-.541-.636-.821-.482-.514-.676-.795a11.431,11.431,0,0,1-.636-1c-.194-.347-.321-.721-.482-1.082s-.328-.714-.462-1.088-.208-.761-.315-1.135-.321-.728-.415-1.115-.1-.781-.174-1.175-.167-.768-.228-1.162c-.054-.367.007-.748-.02-1.122s-.121-.734-.121-1.115.047-.741.074-1.115.114-.734.161-1.108.094-.734.161-1.1.08-.748.161-1.108.161-.734.268-1.088.275-.7.4-1.048c.141-.394.248-.795.415-1.175s.295-.781.489-1.155.429-.714.65-1.075.462-.694.7-1.035.5-.668.77-.988.6-.574.891-.875.583-.594.891-.868c.288-.254.516-.574.817-.808s.676-.367,1-.581.616-.454.951-.641.67-.367,1.018-.534.71-.287,1.065-.434.7-.287,1.072-.414.73-.314,1.105-.434.77-.194,1.152-.294.757-.227,1.145-.307.79-.067,1.185-.127.77-.234,1.165-.26.8-.013,1.192-.013c.375,0,.757-.007,1.132.02s.737.187,1.112.234.743.08,1.118.154.75.087,1.118.174.71.247,1.072.361.71.24,1.065.374.737.2,1.078.354.63.427.958.608.723.247,1.045.447.63.414.938.634.522.561.81.795.663.387.938.641.569.548.837.828.462.641.71.941.5.6.73.915.542.581.75.908.388.681.583,1.022.382.688.556,1.042.188.775.335,1.135.388.688.509,1.062.154.768.255,1.148.174.755.255,1.142.261.748.315,1.135.154.788.181,1.182,0,.795,0,1.2S38.685,20.709,38.658,21.1Z" transform="translate(0 -0.168)"/><path class="c" d="M141.816,292.329c-.013-.3.248-.661.268-.982a3.088,3.088,0,0,0-.455-1.542,6.686,6.686,0,0,1-.409-1.115,2.156,2.156,0,0,1-.013-1.148c.134-.514.362-.735.65-.741a.657.657,0,0,0,.449.167h.02a4.783,4.783,0,0,1,.73.795.007.007,0,0,0,.007.007c0,.094-.007.18-.013.274-.02.327.054.674.047,1.022s-.1.674-.127,1.008c-.06.761-.208,1.462-.3,2.21-.027.227-.06.461-.074.688-.127-.013-.248-.033-.355-.053C142,292.863,141.836,292.723,141.816,292.329Z" transform="translate(-131.682 -267.661)"/><path class="c" d="M196.846,196.086c-.147.307-.214.654-.382.948s-.442.528-.623.815-.275.634-.455.915-.388.561-.569.848c-.161.26-.275.6-.455.921a9.126,9.126,0,0,1-.6.841,3.5,3.5,0,0,1-.743.7,1.69,1.69,0,0,1-.9.434,5.467,5.467,0,0,1-.991-.013,6.932,6.932,0,0,0-.985.027c-.375.013-.757-.12-1.132-.127s-.757.053-1.132.02-.616-.374-.9-.694-.63-.574-.871-.795a11.148,11.148,0,0,0-.871-.728c-.3-.227-.583-.487-.877-.728a5.064,5.064,0,0,1-1.473-1.81,9.014,9.014,0,0,1-.8-2.284,5.082,5.082,0,0,1-.02-.9,8.557,8.557,0,0,1-.08-.921c.094-.735.4-1.449.469-2.19a10.526,10.526,0,0,0,.013-1.215c-.007-.321-.087-.654-.08-.988s.1-.654.121-.982-.04-.661-.02-.988.154-.654.161-.982c.013-.354-.04-.714,0-1.062a7.73,7.73,0,0,1,.2-1.042,5.648,5.648,0,0,1,.348-.995,4.584,4.584,0,0,1,.556-.888,3.311,3.311,0,0,1,.817-.848,2.586,2.586,0,0,1,1.105-.394,3.593,3.593,0,0,1,1.206-.06c.308.06.6.227.918.274a6.382,6.382,0,0,1,.951.114,6.011,6.011,0,0,0,1.065.194,4.1,4.1,0,0,0,1.072,0,10.069,10.069,0,0,0,1.273-.18,6.2,6.2,0,0,1,1.266-.214,3.981,3.981,0,0,1,1.092.087,4.435,4.435,0,0,1,1.058.334,4.822,4.822,0,0,1,.924.634,4.089,4.089,0,0,1,.764.962,4.252,4.252,0,0,1,.321,1.169,5.734,5.734,0,0,1,.1,1.189c.007.347.161.7.167,1.062s-.027.708-.027,1.068-.107.708-.121,1.062-.047.708-.094,1.055c-.047.367-.013.748-.054,1.122s-.034.748-.06,1.115-.02.741-.033,1.115-.054.708-.067,1.028v.033a.717.717,0,0,0-.047.527c-.02.16-.047.314-.08.474A5.756,5.756,0,0,1,196.846,196.086Z" transform="translate(-169.794 -168.821)"/><path class="c" d="M431.715,287.719a2.927,2.927,0,0,1-.208,1.021c-.141.314-.348.608-.489.915a6.866,6.866,0,0,0-.348.748,4.475,4.475,0,0,0-.281.795,4.836,4.836,0,0,1-.06,1.068c-.074.321-.194.6-.348.654a.719.719,0,0,0,.007-.12c.02-.4-.087-.808-.087-1.222s-.007-.808.027-1.222c.027-.314.08-.628.127-.941s.141-.668.188-1.022c.04-.334.141-.674.174-1.028a1.451,1.451,0,0,0-.013-.341,1.729,1.729,0,0,1,.83-.207C431.548,286.864,431.755,287.158,431.715,287.719Z" transform="translate(-401.107 -267.672)"/><path class="b" d="M144.577,88.883a1.546,1.546,0,0,0-.911-.574h-.013c.033-.234.087-.461.107-.688.033-.341.094-.674.154-1.015s.107-.674.174-1.015.107-.674.167-1.015.08-.681.121-1.022.054-.681.06-1.022c0-.073.107-.12.087-.18a.687.687,0,0,0-.094-.507c-.181-.294-.5-.494-.69-.775s-.382-.561-.589-.835-.415-.574-.643-.835c.322-.334.824-.694.817-1.162a.638.638,0,0,0-.348-.514,8.014,8.014,0,0,0-1.266-.414,11.343,11.343,0,0,1-1.393-.541c.027-.04.08-.147.107-.187a.578.578,0,0,0-.368-.861,11.888,11.888,0,0,0-1.179-.16,10.062,10.062,0,0,0-1.185-.053,11.828,11.828,0,0,0-1.185.1,10.313,10.313,0,0,0-1.159.26,11.805,11.805,0,0,0-1.145.341.75.75,0,0,0-.268-.614,1.368,1.368,0,0,0-1.44-.134c-.348.113-.723.174-1.092.287s-.723.207-1.085.321-.683.341-1.038.467-.71.254-1.052.407-.663.347-.991.527a8.2,8.2,0,0,0-.971.568,6.477,6.477,0,0,0-.871.721,5.528,5.528,0,0,0-.623.948,7.865,7.865,0,0,1-.609.841c-.214.274-.429.548-.636.828a5.086,5.086,0,0,0-.5.915,2.753,2.753,0,0,0-.2,1,7.139,7.139,0,0,0-.013.928c.02.307.054.621.094.928s-.06.634-.04.941c.02.327.208.641.221.968s-.007.654.007.982v.194a1.4,1.4,0,0,0-.69.12,1.834,1.834,0,0,0-.784.761,2.787,2.787,0,0,0-.4,1.028,4,4,0,0,0,.1,1.1,4.189,4.189,0,0,0,.3.915,9.355,9.355,0,0,0,.281.935,1.606,1.606,0,0,1,.221,1.289,2.72,2.72,0,0,0-.194.975,1.567,1.567,0,0,0,.422.995,2.23,2.23,0,0,0,1.031.314c.2.04.4.08.6.107,0,.033.007.073.007.107a7.421,7.421,0,0,0,.241,1.028,8.35,8.35,0,0,0,.328,1,9.121,9.121,0,0,0,.576.888,8.316,8.316,0,0,0,.482.941,8.747,8.747,0,0,0,.764.728,7.835,7.835,0,0,0,.83.641c.3.227.589.481.871.728s.5.581.77.835.542.521.824.775a2.77,2.77,0,0,0,.891.527,3.126,3.126,0,0,0,1.025.12c.335.013.676-.02,1.031-.033.335-.013.69-.02,1.045,0,.094.007.174.127.268.134.194.013.382.053.576.067.328.02.656-.1.985-.08a1.7,1.7,0,0,0,1.052-.167,3.377,3.377,0,0,0,.864-.7c.281-.334.556-.681.8-1.035s.422-.768.656-1.135c.181-.28.328-.588.509-.868s.335-.581.516-.861.382-.554.549-.841.335-.581.5-.875.382-.561.516-.868a4.089,4.089,0,0,0,.228-1,1.652,1.652,0,0,0,.857-.214,1.771,1.771,0,0,0,.676-.641,2.362,2.362,0,0,0,.308-.795c.054-.28.067-.568.094-.848a4.359,4.359,0,0,1,.234-1.175c.141-.361.362-.688.536-1.068a6.26,6.26,0,0,0,.322-1.055,3.329,3.329,0,0,0,.228-1.082A1.877,1.877,0,0,0,144.577,88.883ZM124.511,91.7c-.013.341-.1.674-.127,1.008-.06.761-.208,1.462-.3,2.21-.027.227-.06.461-.074.688-.127-.013-.248-.033-.355-.053-.241-.053-.409-.194-.429-.588-.013-.3.248-.661.268-.982a3.087,3.087,0,0,0-.455-1.542,6.69,6.69,0,0,1-.409-1.115,2.156,2.156,0,0,1-.013-1.148c.134-.514.362-.734.65-.741a.657.657,0,0,0,.449.167h.02a4.785,4.785,0,0,1,.73.795.007.007,0,0,0,.007.007c0,.093-.007.18-.013.274C124.444,91.013,124.525,91.36,124.511,91.7Zm16.617-2.6c0,.354-.107.708-.121,1.062s-.047.708-.094,1.055c-.047.367-.013.748-.054,1.122s-.033.748-.06,1.115-.02.741-.033,1.115-.054.708-.067,1.028v.033a.716.716,0,0,0-.047.527c-.02.16-.047.314-.08.474a4.547,4.547,0,0,1-.415.941c-.147.307-.214.654-.382.948s-.442.528-.623.815-.275.634-.455.915-.388.561-.569.848c-.161.26-.275.6-.455.921a9.125,9.125,0,0,1-.6.841,3.5,3.5,0,0,1-.743.7,1.691,1.691,0,0,1-.9.434,5.471,5.471,0,0,1-.991-.013,6.935,6.935,0,0,0-.985.027c-.375.013-.757-.12-1.132-.127s-.757.053-1.132.02-.616-.374-.9-.694-.63-.574-.871-.795a11.16,11.16,0,0,0-.871-.728c-.3-.227-.583-.487-.877-.728a5.064,5.064,0,0,1-1.473-1.81,9.013,9.013,0,0,1-.8-2.284,5.086,5.086,0,0,1-.02-.9,8.548,8.548,0,0,1-.08-.921c.094-.734.4-1.449.469-2.19a10.509,10.509,0,0,0,.013-1.215c-.007-.321-.087-.654-.08-.988s.1-.654.121-.982-.04-.661-.02-.988.154-.654.161-.982c.013-.354-.04-.714,0-1.062a7.73,7.73,0,0,1,.2-1.042,5.651,5.651,0,0,1,.348-.995,4.583,4.583,0,0,1,.556-.888,3.31,3.31,0,0,1,.817-.848,2.586,2.586,0,0,1,1.105-.394,3.592,3.592,0,0,1,1.206-.06c.308.06.6.227.918.274a6.38,6.38,0,0,1,.951.114,6.006,6.006,0,0,0,1.065.194,4.1,4.1,0,0,0,1.072,0,10.067,10.067,0,0,0,1.273-.18,6.193,6.193,0,0,1,1.266-.214,3.981,3.981,0,0,1,1.092.087,4.437,4.437,0,0,1,1.058.334,4.825,4.825,0,0,1,.924.634,4.09,4.09,0,0,1,.763.962,4.251,4.251,0,0,1,.321,1.169,5.733,5.733,0,0,1,.1,1.189c.007.347.161.7.167,1.062S141.121,88.743,141.128,89.1Zm2.572,1.249a2.925,2.925,0,0,1-.208,1.022c-.141.314-.348.608-.489.915a6.843,6.843,0,0,0-.348.748,4.467,4.467,0,0,0-.281.795,4.839,4.839,0,0,1-.06,1.068c-.074.321-.194.6-.348.654a.723.723,0,0,0,.007-.12c.02-.4-.087-.808-.087-1.222s-.007-.808.027-1.222c.027-.314.08-.628.127-.941s.141-.668.188-1.022c.04-.334.141-.674.174-1.028a1.451,1.451,0,0,0-.013-.341,1.729,1.729,0,0,1,.83-.207C143.532,89.5,143.74,89.791,143.7,90.352Z" transform="translate(-113.092 -70.305)"/><path class="b" d="M328.831,486.3a.264.264,0,0,0,0,.528A.264.264,0,0,0,328.831,486.3Z" transform="translate(-306.568 -453.84)"/><path class="b" d="M273.414,462.774c-.1-.1-.275-.167-.375-.067a.341.341,0,0,0,.013.427c.013.013,0,.06.013.073a.383.383,0,0,0,.455-.013.309.309,0,0,0-.047-.4C273.461,462.768,273.441,462.794,273.414,462.774Z" transform="translate(-254.688 -431.777)"/><path class="b" d="M303.11,462.726c0-.02-.02-.02-.02-.047,0-.14-.154-.194-.3-.187s-.254.04-.254.187c0,.02-.034.02-.034.047a.248.248,0,0,0,.281.22C302.929,462.94,303.11,462.873,303.11,462.726Z" transform="translate(-282.24 -431.622)"/><path class="b" d="M323.685,462.407c.1-.1.02-.307-.08-.407s-.288-.167-.4-.06c-.013.013,0,.06-.013.073a.274.274,0,0,0,.388.387C323.6,462.38,323.671,462.42,323.685,462.407Z" transform="translate(-301.482 -431.055)"/><path class="b" d="M310.531,480.2c-.341,0-.341.621,0,.621S310.866,480.2,310.531,480.2Z" transform="translate(-289.494 -448.148)"/><path class="b" d="M289.531,477.9a.238.238,0,1,0,0,.474A.238.238,0,1,0,289.531,477.9Z" transform="translate(-269.901 -446.001)"/><path class="b" d="M267.231,484.9c-.342,0-.342.594,0,.594S267.566,484.9,267.231,484.9Z" transform="translate(-249.094 -452.534)"/><path class="b" d="M2.7,1.582a3.324,3.324,0,0,1,.958.535c.261.241.436.568.71.682a1.3,1.3,0,0,0,.971-.1,1.654,1.654,0,0,0,.442-.24.484.484,0,0,0,.187-.441c-.034-.167-.241-.368-.4-.3-.047.02-.08.1-.127.127a.561.561,0,0,1-.569-.014C4.385,1.563,4.251.968,3.822.641A3.6,3.6,0,0,0,2.771.119,2.179,2.179,0,0,0,1.605.051a5.85,5.85,0,0,0-1.185.7c-.268.2-.489.347-.4.541s.335.114.536.081a5.7,5.7,0,0,1,1.092.041A2.524,2.524,0,0,1,2.7,1.582Z" transform="matrix(0.966, -0.259, 0.259, 0.966, 13.323, 18.258)"/><path class="b" d="M5.628.646c-.02-.013-.047-.027-.067-.04A3.734,3.734,0,0,0,4.63.092,3.418,3.418,0,0,0,3.559.013,2.892,2.892,0,0,0,2.548.361a2.331,2.331,0,0,0-.777.7c-.3.394-.536.9-1.146.769a2.545,2.545,0,0,0-.362-.12c-.6-.026-.021.982.267,1.115A1.034,1.034,0,0,0,1.454,2.7,3.7,3.7,0,0,0,2.225,2.1,4.941,4.941,0,0,1,3.076,1.6a2.419,2.419,0,0,1,.9-.348,2.2,2.2,0,0,1,.884.086,1.885,1.885,0,0,0,.89.146.585.585,0,0,0,.3-.127c.094-.114-.013-.321-.087-.447A.984.984,0,0,0,5.628.646Z" transform="matrix(0.966, 0.259, -0.259, 0.966, 21.539, 16.717)"/><path class="b" d="M6.865,1.6c.214-.013.107-.588-.141-.9A2.092,2.092,0,0,0,5.4.027C5.09,0,4.762,0,4.434,0c-.295,0-.576.047-.864.067S2.981.007,2.679,0c-.328,0-.656,0-.964.027A2.092,2.092,0,0,0,.389.7,1.838,1.838,0,0,0,0,1.8c-.007.321.275.387.476.18.221-.227.248-.548.563-.721a2.3,2.3,0,0,1,.918-.134c.409-.033.8-.08,1.212-.107a10.793,10.793,0,0,1,1.139,0c.2.007.4.013.6.027a3.25,3.25,0,0,1,1.165.214S6.637,1.636,6.865,1.6Z" transform="translate(23.69 29.861) rotate(180)"/><path class="b" d="M268.805,329.73a.256.256,0,0,0-.315.127c-.161.32-.221.7-.375,1.015-.121.24-.288.461-.388.714-.114.3-.161.628-.275.928a1.794,1.794,0,0,0-.154,1.022c.06.234.007.487.194.674a1.765,1.765,0,0,0,.636.287c.141.053.275.107.415.147a2.084,2.084,0,0,0,.295.06c.2.027.5-.02.435-.314a.657.657,0,0,0-.308-.367c-.054-.04-.114-.073-.154-.1a2.214,2.214,0,0,1-.308-.254.931.931,0,0,1-.254-.361c-.114-.3.08-.7.161-.988.087-.314.181-.628.261-.941s.221-.614.3-.928a1.16,1.16,0,0,0,.02-.674C268.966,329.71,268.866,329.751,268.805,329.73Z" transform="translate(-249.369 -307.714)"/><path class="b" d="M305.314,336.274a.493.493,0,0,0,.214.06,2.089,2.089,0,0,0,.931-.033,1.133,1.133,0,0,0,.61-.481,1.254,1.254,0,0,0,.141-.835,3.781,3.781,0,0,0-.121-.881c-.034-.094-.027-.214-.054-.321a10.883,10.883,0,0,0-.362-1.282,1.653,1.653,0,0,0-.817-.9.523.523,0,0,0-.147.474,2.115,2.115,0,0,0,.054.581c.087.287.241.548.315.841s.107.6.161.9a1.194,1.194,0,0,1-.69,1.3,1.991,1.991,0,0,0-.234.18.3.3,0,0,0-.114.194.277.277,0,0,0,.02.107A.267.267,0,0,0,305.314,336.274Z" transform="translate(-284.759 -309.47)"/><path class="b" d="M221.843,311.911a1.618,1.618,0,0,0-.281-.968.643.643,0,0,0-.683-.294.655.655,0,0,0-.589.481,1.792,1.792,0,0,0-.007,1.108.9.9,0,0,0,1,.541A.924.924,0,0,0,221.843,311.911Z" transform="translate(-205.447 -289.908)"/><path class="b" d="M361.436,309.78a.851.851,0,0,0-1.185.094,1.864,1.864,0,0,0-.121,1.055.831.831,0,0,0,.549.8.73.73,0,0,0,.877-.514,1.619,1.619,0,0,0,.141-1.068A.629.629,0,0,0,361.436,309.78Z" transform="translate(-335.992 -288.926)"/></g></g></svg>