<svg id="animation-bird" xmlns="http://www.w3.org/2000/svg" width="100" height="56" viewBox="0 0 100 56"><defs><style>.brown{fill:#312c22;}.white{fill:#fff;}.cls-1{fill:none;}</style></defs><title>bird</title><g id="bird-group"><g id="bird-up"><polygon class="brown" points="39.84 29.5 15.67 0 15.67 27.46 39.84 29.5"/><circle class="brown" cx="41.68" cy="27.42" r="5.26"/><polygon class="brown" points="45.75 26.8 50 28.54 45.94 29.96 45.75 26.8"/><ellipse class="white" cx="43.88" cy="26.24" rx="0.41" ry="0.55"/><rect class="brown" y="27.42" width="20.43" height="1.91"/><ellipse class="brown" cx="27.07" cy="28.38" rx="12.77" ry="5.46"/></g><rect class="cls-1" width="50" height="56"/><g id="bird-down"><polygon class="brown" points="95.75 26.8 100 28.54 95.94 29.96 95.75 26.8"/><polygon class="brown" points="89.84 26.86 65.67 56 65.67 28.88 89.84 26.86"/><circle class="brown" cx="91.68" cy="27.42" r="5.26"/><ellipse class="white" cx="93.88" cy="26.24" rx="0.41" ry="0.55"/><rect class="brown" x="50" y="27.42" width="20.43" height="1.91"/><ellipse class="brown" cx="77.07" cy="28.38" rx="12.77" ry="5.46"/></g><rect class="cls-1" x="50" width="50" height="56"/></g></svg>