<svg id="animation-fire" xmlns="http://www.w3.org/2000/svg" width="870" height="168" viewBox="0 0 870 168"><defs><style>.fire-red{fill:#fb4842;}.fire-inside{fill:#ffb976;}.cls-1{fill:none;}.smoke{fill:#fff;opacity:0.6;}.fire-rocks{fill:#312c22;}</style></defs><title>fire</title><g id="fire-group"><g id="fire-03"><polygon class="fire-red" points="117.28 145.82 143.71 145.82 130.5 119.18 117.28 145.82"/><polygon class="fire-inside" points="121.73 149.33 124.69 149.33 139.26 149.33 130.5 131.65 121.73 149.33"/><polygon class="fire-red" points="137.36 151.59 159.35 151.59 148.35 129.41 137.36 151.59"/><polygon class="fire-inside" points="142.86 151.59 153.85 151.59 148.35 140.49 142.86 151.59"/><polygon class="fire-red" points="101.64 151.82 123.64 151.82 112.64 129.64 101.64 151.82"/><polygon class="fire-inside" points="107.14 151.82 118.14 151.82 112.64 140.73 107.14 151.82"/><polygon class="fire-red" points="132.18 155.82 151.44 155.82 141.82 136.4 132.18 155.82"/><polygon class="fire-inside" points="146.63 155.82 141.82 146.11 137 155.82 146.63 155.82"/><polygon class="fire-red" points="109.38 155.82 128.64 155.82 119.01 136.4 109.38 155.82"/><polygon class="fire-inside" points="123.82 155.82 119.01 146.11 114.19 155.82 123.82 155.82"/><polygon class="fire-inside" points="123.82 155.09 119.01 164.8 114.19 155.09 123.82 155.09"/><polygon class="fire-inside" points="146.99 155.09 142.18 164.8 137.36 155.09 146.99 155.09"/><polygon class="fire-red" points="97.5 158.56 111.26 158.56 104.38 144.69 97.5 158.56"/><polygon class="fire-inside" points="100.94 158.56 107.81 158.56 104.38 151.62 100.94 158.56"/><polygon class="fire-red" points="149.74 158.56 163.5 158.56 156.62 144.69 149.74 158.56"/><polygon class="fire-inside" points="153.19 158.56 160.06 158.56 156.62 151.62 153.19 158.56"/><polygon class="fire-red" points="117.28 164.82 143.71 164.82 130.5 138.18 117.28 164.82"/><polygon class="fire-inside" points="123.89 164.82 137.1 164.82 130.5 151.49 123.89 164.82"/><polygon class="fire-inside" points="123.89 164.82 137.1 164.82 130.5 151.49 123.89 164.82"/><polygon class="fire-red" points="103.2 164.69 119.38 164.69 111.28 148.38 103.2 164.69"/><polygon class="fire-inside" points="107.23 164.69 115.33 164.69 111.28 156.53 107.23 164.69"/><polygon class="fire-red" points="141.41 164.69 157.59 164.69 149.49 148.38 141.41 164.69"/><polygon class="fire-inside" points="145.46 164.69 153.54 164.69 149.49 156.53 145.46 164.69"/><rect class="cls-1" x="87" width="87" height="168"/></g><g id="fire-02"><polygon class="fire-red" points="229.4 152.82 245.58 152.82 237.49 136.51 229.4 152.82"/><polygon class="fire-inside" points="233.45 152.82 241.53 152.82 237.49 144.66 233.45 152.82"/><polygon class="fire-red" points="188.72 152.82 204.91 152.82 196.81 136.51 188.72 152.82"/><polygon class="fire-inside" points="192.77 152.82 200.86 152.82 196.81 144.66 192.77 152.82"/><polygon class="fire-red" points="199.32 158.82 235.84 158.82 217.58 122 199.32 158.82"/><polygon class="fire-red" points="199.32 158.82 235.84 158.82 217.58 122 199.32 158.82"/><polygon class="fire-inside" points="208.45 158.82 226.71 158.82 217.58 140.4 208.45 158.82"/><polygon class="fire-red" points="184.5 158.56 198.26 158.56 191.38 144.69 184.5 158.56"/><polygon class="fire-inside" points="187.94 158.56 194.81 158.56 191.38 151.62 187.94 158.56"/><polygon class="fire-red" points="236.74 158.56 250.5 158.56 243.62 144.69 236.74 158.56"/><polygon class="fire-inside" points="240.19 158.56 247.06 158.56 243.62 151.62 240.19 158.56"/><polygon class="fire-red" points="214.16 164.82 245.7 164.82 229.94 133.04 214.16 164.82"/><polygon class="fire-inside" points="237.81 164.82 229.94 148.92 222.05 164.82 237.81 164.82"/><polygon class="fire-inside" points="237.81 164.82 229.94 148.92 222.05 164.82 237.81 164.82"/><polygon class="fire-red" points="188.93 164.92 220.56 164.92 204.75 133.04 188.93 164.92"/><polygon class="fire-inside" points="212.65 164.92 204.75 148.97 196.84 164.92 212.65 164.92"/><rect class="cls-1" x="174" width="87" height="168"/></g><g id="fire-01"><polygon class="fire-red" points="43.14 154.92 71.7 154.92 57.43 126.14 43.14 154.92"/><polygon class="fire-inside" points="64.56 154.92 57.43 140.52 50.28 154.92 58.01 156.82 64.56 154.92"/><polygon class="fire-red" points="14.93 154.92 43.48 154.92 29.21 126.14 14.93 154.92"/><polygon class="fire-inside" points="36.34 154.92 29.21 140.52 22.07 154.92 29.2 157.82 36.34 154.92"/><polygon class="fire-red" points="10.5 158.56 24.26 158.56 17.38 144.69 10.5 158.56"/><polygon class="fire-inside" points="13.95 158.56 20.81 158.56 17.38 151.62 13.95 158.56"/><polygon class="fire-red" points="62.74 158.56 76.5 158.56 69.62 144.69 62.74 158.56"/><polygon class="fire-inside" points="66.19 158.56 73.06 158.56 69.62 151.62 66.19 158.56"/><polygon class="fire-red" points="25.32 164.46 61.84 164.46 43.58 127.64 25.32 164.46"/><polygon class="fire-red" points="25.32 164.46 61.84 164.46 43.58 127.64 25.32 164.46"/><polygon class="fire-inside" points="34.45 164.46 52.71 164.46 43.58 146.05 34.45 164.46"/><polygon class="fire-red" points="16.2 164.69 32.38 164.69 24.28 148.38 16.2 164.69"/><polygon class="fire-inside" points="20.23 164.69 28.33 164.69 24.28 156.53 20.23 164.69"/><polygon class="fire-red" points="54.41 164.69 70.59 164.69 62.49 148.38 54.41 164.69"/><polygon class="fire-inside" points="58.46 164.69 66.54 164.69 62.49 156.53 58.46 164.69"/><rect class="cls-1" width="87" height="168"/></g></g><g id="smoke-group"><g id="smoke-10"><rect class="cls-1" x="783" width="87" height="168"/></g><g id="smoke-09"><ellipse class="smoke" cx="753.67" cy="31.55" rx="18.09" ry="18.11"/><ellipse class="smoke" cx="748.33" cy="19.15" rx="18.09" ry="18.11"/><ellipse class="smoke" cx="764.91" cy="24.64" rx="18.09" ry="18.11"/><ellipse class="smoke" cx="726.82" cy="31.79" rx="18.09" ry="18.11"/><ellipse class="smoke" cx="720" cy="18.11" rx="18.09" ry="18.11"/><ellipse class="smoke" cx="714.09" cy="29.49" rx="18.09" ry="18.11"/><rect class="cls-1" x="696" width="87" height="168"/></g><g id="smoke-08"><ellipse class="smoke" cx="664.28" cy="80.07" rx="7.07" ry="7.08"/><ellipse class="smoke" cx="648.79" cy="74.21" rx="11.84" ry="11.85"/><ellipse class="smoke" cx="646.9" cy="87.6" rx="12.72" ry="12.73"/><ellipse class="smoke" cx="664.39" cy="76.64" rx="12.72" ry="12.73"/><ellipse class="smoke" cx="644.74" cy="65.31" rx="15.09" ry="15.1"/><ellipse class="smoke" cx="633.84" cy="51.88" rx="15.09" ry="15.1"/><ellipse class="smoke" cx="647.83" cy="47.51" rx="15.09" ry="15.1"/><ellipse class="smoke" cx="662.61" cy="60.47" rx="15.09" ry="15.1"/><ellipse class="smoke" cx="671.46" cy="51.83" rx="15.09" ry="15.1"/><ellipse class="smoke" cx="666.67" cy="31.55" rx="18.09" ry="18.11"/><ellipse class="smoke" cx="661.33" cy="19.15" rx="18.09" ry="18.11"/><ellipse class="smoke" cx="677.91" cy="24.64" rx="18.09" ry="18.11"/><ellipse class="smoke" cx="639.82" cy="31.79" rx="18.09" ry="18.11"/><ellipse class="smoke" cx="633" cy="18.11" rx="18.09" ry="18.11"/><ellipse class="smoke" cx="627.09" cy="29.49" rx="18.09" ry="18.11"/><rect class="cls-1" x="609" width="87" height="168"/></g><g id="smoke-07"><ellipse class="smoke" cx="564.91" cy="125" rx="6.47" ry="6.47"/><ellipse class="smoke" cx="573.18" cy="119.81" rx="7.07" ry="7.08"/><ellipse class="smoke" cx="577.28" cy="80.07" rx="7.07" ry="7.08"/><ellipse class="smoke" cx="561.49" cy="114.19" rx="7.07" ry="7.08"/><ellipse class="smoke" cx="572.29" cy="110.77" rx="7.07" ry="7.08"/><ellipse class="smoke" cx="565.64" cy="114.8" rx="7.07" ry="7.08"/><ellipse class="smoke" cx="560.24" cy="102.54" rx="9.4" ry="9.4"/><ellipse class="smoke" cx="575.71" cy="96.55" rx="9.4" ry="9.4"/><ellipse class="smoke" cx="567.93" cy="95.39" rx="11.84" ry="11.85"/><ellipse class="smoke" cx="561.79" cy="74.21" rx="11.84" ry="11.85"/><ellipse class="smoke" cx="559.9" cy="87.6" rx="12.72" ry="12.73"/><ellipse class="smoke" cx="577.39" cy="76.64" rx="12.72" ry="12.73"/><ellipse class="smoke" cx="557.74" cy="65.31" rx="15.09" ry="15.1"/><ellipse class="smoke" cx="546.84" cy="51.88" rx="15.09" ry="15.1"/><ellipse class="smoke" cx="560.83" cy="47.51" rx="15.09" ry="15.1"/><ellipse class="smoke" cx="575.61" cy="60.47" rx="15.09" ry="15.1"/><ellipse class="smoke" cx="584.46" cy="51.83" rx="15.09" ry="15.1"/><ellipse class="smoke" cx="579.67" cy="31.55" rx="18.09" ry="18.11"/><ellipse class="smoke" cx="574.33" cy="19.15" rx="18.09" ry="18.11"/><ellipse class="smoke" cx="590.91" cy="24.64" rx="18.09" ry="18.11"/><ellipse class="smoke" cx="552.82" cy="31.79" rx="18.09" ry="18.11"/><ellipse class="smoke" cx="546" cy="18.11" rx="18.09" ry="18.11"/><ellipse class="smoke" cx="540.09" cy="29.49" rx="18.09" ry="18.11"/><rect class="cls-1" x="522" width="87" height="168"/></g><g id="smoke-06"><circle class="smoke" cx="480.63" cy="148.5" r="4.35"/><ellipse class="smoke" cx="484.13" cy="141.92" rx="4.83" ry="4.84"/><ellipse class="smoke" cx="484.33" cy="135.16" rx="4.83" ry="4.84"/><ellipse class="smoke" cx="477.76" cy="141.48" rx="4.83" ry="4.84"/><ellipse class="smoke" cx="476.72" cy="132.59" rx="5.3" ry="5.31"/><ellipse class="smoke" cx="479.62" cy="136.56" rx="5.3" ry="5.31"/><ellipse class="smoke" cx="483.71" cy="129.03" rx="5.3" ry="5.31"/><ellipse class="smoke" cx="477.91" cy="125" rx="6.47" ry="6.47"/><ellipse class="smoke" cx="486.18" cy="119.81" rx="7.07" ry="7.08"/><ellipse class="smoke" cx="490.28" cy="80.07" rx="7.07" ry="7.08"/><ellipse class="smoke" cx="474.49" cy="114.19" rx="7.07" ry="7.08"/><ellipse class="smoke" cx="485.29" cy="110.77" rx="7.07" ry="7.08"/><ellipse class="smoke" cx="478.64" cy="114.8" rx="7.07" ry="7.08"/><ellipse class="smoke" cx="473.24" cy="102.54" rx="9.4" ry="9.4"/><ellipse class="smoke" cx="488.71" cy="96.55" rx="9.4" ry="9.4"/><ellipse class="smoke" cx="480.93" cy="95.39" rx="11.84" ry="11.85"/><ellipse class="smoke" cx="474.79" cy="74.21" rx="11.84" ry="11.85"/><ellipse class="smoke" cx="472.9" cy="87.6" rx="12.72" ry="12.73"/><ellipse class="smoke" cx="490.39" cy="76.64" rx="12.72" ry="12.73"/><ellipse class="smoke" cx="470.74" cy="65.31" rx="15.09" ry="15.1"/><ellipse class="smoke" cx="459.84" cy="51.88" rx="15.09" ry="15.1"/><ellipse class="smoke" cx="473.83" cy="47.51" rx="15.09" ry="15.1"/><ellipse class="smoke" cx="488.61" cy="60.47" rx="15.09" ry="15.1"/><ellipse class="smoke" cx="497.46" cy="51.83" rx="15.09" ry="15.1"/><ellipse class="smoke" cx="492.67" cy="31.55" rx="18.09" ry="18.11"/><ellipse class="smoke" cx="487.33" cy="19.15" rx="18.09" ry="18.11"/><ellipse class="smoke" cx="503.91" cy="24.64" rx="18.09" ry="18.11"/><ellipse class="smoke" cx="465.82" cy="31.79" rx="18.09" ry="18.11"/><ellipse class="smoke" cx="459" cy="18.11" rx="18.09" ry="18.11"/><ellipse class="smoke" cx="453.09" cy="29.49" rx="18.09" ry="18.11"/><rect class="cls-1" x="435" width="87" height="168"/></g><g id="smoke-05"><circle class="smoke" cx="393.63" cy="148.5" r="4.35"/><ellipse class="smoke" cx="397.13" cy="141.92" rx="4.83" ry="4.84"/><ellipse class="smoke" cx="397.33" cy="135.16" rx="4.83" ry="4.84"/><ellipse class="smoke" cx="390.76" cy="141.48" rx="4.83" ry="4.84"/><ellipse class="smoke" cx="389.72" cy="132.59" rx="5.3" ry="5.31"/><ellipse class="smoke" cx="392.62" cy="136.56" rx="5.3" ry="5.31"/><ellipse class="smoke" cx="396.71" cy="129.03" rx="5.3" ry="5.31"/><ellipse class="smoke" cx="390.91" cy="125" rx="6.47" ry="6.47"/><ellipse class="smoke" cx="399.18" cy="119.81" rx="7.07" ry="7.08"/><ellipse class="smoke" cx="403.28" cy="80.07" rx="7.07" ry="7.08"/><ellipse class="smoke" cx="387.49" cy="114.19" rx="7.07" ry="7.08"/><ellipse class="smoke" cx="398.29" cy="110.77" rx="7.07" ry="7.08"/><ellipse class="smoke" cx="391.64" cy="114.8" rx="7.07" ry="7.08"/><ellipse class="smoke" cx="386.24" cy="102.54" rx="9.4" ry="9.4"/><ellipse class="smoke" cx="401.71" cy="96.55" rx="9.4" ry="9.4"/><ellipse class="smoke" cx="393.93" cy="95.39" rx="11.84" ry="11.85"/><ellipse class="smoke" cx="387.79" cy="74.21" rx="11.84" ry="11.85"/><ellipse class="smoke" cx="385.9" cy="87.6" rx="12.72" ry="12.73"/><ellipse class="smoke" cx="403.39" cy="76.64" rx="12.72" ry="12.73"/><ellipse class="smoke" cx="383.74" cy="65.31" rx="15.09" ry="15.1"/><ellipse class="smoke" cx="372.84" cy="51.88" rx="15.09" ry="15.1"/><ellipse class="smoke" cx="386.83" cy="47.51" rx="15.09" ry="15.1"/><ellipse class="smoke" cx="401.61" cy="60.47" rx="15.09" ry="15.1"/><ellipse class="smoke" cx="410.46" cy="51.83" rx="15.09" ry="15.1"/><ellipse class="smoke" cx="405.67" cy="31.55" rx="18.09" ry="18.11"/><ellipse class="smoke" cx="378.82" cy="31.79" rx="18.09" ry="18.11"/><rect class="cls-1" x="348" width="87" height="168"/></g><g id="smoke-04"><circle class="smoke" cx="306.63" cy="148.5" r="4.35"/><ellipse class="smoke" cx="310.13" cy="141.92" rx="4.83" ry="4.84"/><ellipse class="smoke" cx="310.33" cy="135.16" rx="4.83" ry="4.84"/><ellipse class="smoke" cx="303.76" cy="141.48" rx="4.83" ry="4.84"/><ellipse class="smoke" cx="302.72" cy="132.59" rx="5.3" ry="5.31"/><ellipse class="smoke" cx="305.62" cy="136.56" rx="5.3" ry="5.31"/><ellipse class="smoke" cx="309.71" cy="129.03" rx="5.3" ry="5.31"/><ellipse class="smoke" cx="303.91" cy="125" rx="6.47" ry="6.47"/><ellipse class="smoke" cx="312.18" cy="119.81" rx="7.07" ry="7.08"/><ellipse class="smoke" cx="300.49" cy="114.19" rx="7.07" ry="7.08"/><ellipse class="smoke" cx="311.29" cy="110.77" rx="7.07" ry="7.08"/><ellipse class="smoke" cx="304.64" cy="114.8" rx="7.07" ry="7.08"/><ellipse class="smoke" cx="299.24" cy="102.54" rx="9.4" ry="9.4"/><ellipse class="smoke" cx="314.71" cy="96.55" rx="9.4" ry="9.4"/><ellipse class="smoke" cx="306.93" cy="95.39" rx="11.84" ry="11.85"/><ellipse class="smoke" cx="298.9" cy="87.6" rx="12.72" ry="12.73"/><rect class="cls-1" x="261" width="87" height="168"/></g><g id="smoke-03"><circle class="smoke" cx="219.63" cy="148.5" r="4.35"/><ellipse class="smoke" cx="223.13" cy="141.92" rx="4.83" ry="4.84"/><ellipse class="smoke" cx="223.33" cy="135.16" rx="4.83" ry="4.84"/><ellipse class="smoke" cx="216.76" cy="141.48" rx="4.83" ry="4.84"/><ellipse class="smoke" cx="215.72" cy="132.59" rx="5.3" ry="5.31"/><ellipse class="smoke" cx="218.62" cy="136.56" rx="5.3" ry="5.31"/><ellipse class="smoke" cx="222.71" cy="129.03" rx="5.3" ry="5.31"/><ellipse class="smoke" cx="216.91" cy="125" rx="6.47" ry="6.47"/><ellipse class="smoke" cx="225.18" cy="119.81" rx="7.07" ry="7.08"/><ellipse class="smoke" cx="213.49" cy="114.19" rx="7.07" ry="7.08"/><ellipse class="smoke" cx="217.64" cy="114.8" rx="7.07" ry="7.08"/><rect class="cls-1" x="174" width="87" height="168"/></g><g id="smoke-02"><circle class="smoke" cx="132.63" cy="148.5" r="4.35"/><ellipse class="smoke" cx="136.13" cy="141.92" rx="4.83" ry="4.84"/><ellipse class="smoke" cx="129.76" cy="141.48" rx="4.83" ry="4.84"/><ellipse class="smoke" cx="131.62" cy="136.56" rx="5.3" ry="5.31"/><rect class="cls-1" x="87" width="87" height="168"/></g><g id="smoke-01"><rect class="cls-1" width="87" height="168"/></g></g><g id="rocks"><path class="fire-rocks" d="M594,938v4.91h-9.83V938a4.92,4.92,0,1,1,9.83,0Z" transform="translate(-516.5 -779.79)"/><path class="fire-rocks" d="M535.83,938v4.91H526V938a4.92,4.92,0,1,1,9.83,0Z" transform="translate(-516.5 -779.79)"/><path class="fire-rocks" d="M540.75,942.87v4.92h-9.83v-4.92a4.92,4.92,0,0,1,9.83,0Z" transform="translate(-516.5 -779.79)"/><path class="fire-rocks" d="M550.59,942.87v4.92h-9.84v-4.92a4.92,4.92,0,0,1,9.84,0Z" transform="translate(-516.5 -779.79)"/><path class="fire-rocks" d="M560.42,942.87v4.92h-9.83v-4.92a4.92,4.92,0,0,1,9.83,0Z" transform="translate(-516.5 -779.79)"/><path class="fire-rocks" d="M570.26,942.87v4.92h-9.84v-4.92a4.92,4.92,0,0,1,9.84,0Z" transform="translate(-516.5 -779.79)"/><path class="fire-rocks" d="M580.09,942.87v4.92h-9.83v-4.92a4.92,4.92,0,0,1,9.83,0Z" transform="translate(-516.5 -779.79)"/><path class="fire-rocks" d="M589.08,942.87v4.92h-9.83v-4.92a4.92,4.92,0,0,1,9.83,0Z" transform="translate(-516.5 -779.79)"/></g></svg>