<svg id="tentacle-animation" xmlns="http://www.w3.org/2000/svg" width="1000" height="250" viewBox="0 0 1000 250"><defs><style>.cls-1{fill:none;}.blue{fill:#dde2ff;}.blue,.white-2{isolation:isolate;}.white-2{fill:#fff;}</style></defs><title>tentacles</title><g id="octopus-tentacle-group"><rect class="cls-1" x="250.27" width="250" height="250"/><rect class="cls-1" x="250" width="250" height="250"/><path class="blue" d="M274,250h25.22a266.78,266.78,0,0,1-17.08-61.64c-7.39-49.12,1-88.68-1.83-89.09-2.08-.3-7.95,20.6-11.22,43.65A293,293,0,0,0,274,250Z" transform="translate(0 0)"/><path class="white-2" d="M287.82,250h5.63a4.8,4.8,0,1,0-5.63,0Z" transform="translate(0 0)"/><path class="white-2" d="M276.35,250h6.14a4.79,4.79,0,1,0-6.14,0Z" transform="translate(0 0)"/><circle class="white-2" cx="286.61" cy="234.41" r="4.33"/><circle class="white-2" cx="276.51" cy="235.33" r="4.33"/><circle class="white-2" cx="283.73" cy="223.37" r="3.97"/><circle class="white-2" cx="274.48" cy="224.2" r="3.97"/><circle class="white-2" cx="280.96" cy="212.6" r="3.56"/><circle class="white-2" cx="272.65" cy="213.35" r="3.56"/><circle class="white-2" cx="279.27" cy="201.98" r="3.35"/><circle class="white-2" cx="271.44" cy="202.24" r="3.35"/><circle class="white-2" cx="278.5" cy="192.01" r="3.16"/><circle class="white-2" cx="271.12" cy="192.25" r="3.16"/><circle class="white-2" cx="277.09" cy="182.91" r="3.05"/><circle class="white-2" cx="269.97" cy="183.14" r="3.05"/><circle class="white-2" cx="276.65" cy="174.02" r="2.8"/><circle class="white-2" cx="270.09" cy="174.23" r="2.8"/><circle class="white-2" cx="276.16" cy="165.56" r="2.65"/><circle class="white-2" cx="269.97" cy="165.5" r="2.65"/><circle class="white-2" cx="276.1" cy="157.52" r="2.42"/><circle class="white-2" cx="270.44" cy="157.46" r="2.42"/><circle class="white-2" cx="275.96" cy="149.88" r="2.16"/><circle class="white-2" cx="270.92" cy="149.83" r="2.16"/><circle class="white-2" cx="276.37" cy="142.83" r="2.01"/><circle class="white-2" cx="271.67" cy="142.5" r="2.01"/><circle class="white-2" cx="276.65" cy="136.65" r="1.79"/><circle class="white-2" cx="272.46" cy="136.36" r="1.79"/><circle class="white-2" cx="277.15" cy="131.08" r="1.63"/><circle class="white-2" cx="273.34" cy="130.82" r="1.63"/><circle class="white-2" cx="277.43" cy="125.9" r="1.45"/><circle class="white-2" cx="274.05" cy="125.67" r="1.45"/><circle class="white-2" cx="277.6" cy="120.69" r="1.16"/><circle class="white-2" cx="274.9" cy="120.51" r="1.16"/><circle class="white-2" cx="278.46" cy="115.75" r="1.09"/><circle class="white-2" cx="275.92" cy="115.49" r="1.09"/><circle class="white-2" cx="279.02" cy="111.68" r="0.88"/><circle class="white-2" cx="276.99" cy="111.33" r="0.88"/><path class="blue" d="M311.67,250h18.89a200.13,200.13,0,0,1-12.8-46.19c-5.53-36.81.76-66.45-1.37-66.76-1.56-.22-5.95,15.43-8.41,32.71A219.64,219.64,0,0,0,311.67,250Z" transform="translate(0 0)"/><path class="white-2" d="M322,250h4.22a3.59,3.59,0,1,0-5.71-2.82A3.54,3.54,0,0,0,322,250Z" transform="translate(0 0)"/><path class="white-2" d="M313.43,250H318a3.59,3.59,0,1,0-4.61,0Z" transform="translate(0 0)"/><circle class="white-2" cx="321.12" cy="238.32" r="3.25"/><circle class="white-2" cx="313.55" cy="239" r="3.25"/><circle class="white-2" cx="318.97" cy="230.04" r="2.97"/><circle class="white-2" cx="312.04" cy="230.67" r="2.97"/><circle class="white-2" cx="316.89" cy="221.97" r="2.67"/><circle class="white-2" cx="310.66" cy="222.53" r="2.67"/><circle class="white-2" cx="315.62" cy="214.02" r="2.51"/><circle class="white-2" cx="309.76" cy="214.21" r="2.51"/><circle class="white-2" cx="315.05" cy="206.54" r="2.36"/><circle class="white-2" cx="309.52" cy="206.72" r="2.36"/><circle class="white-2" cx="313.99" cy="199.72" r="2.28"/><circle class="white-2" cx="308.65" cy="199.9" r="2.28"/><circle class="white-2" cx="313.66" cy="193.06" r="2.1"/><circle class="white-2" cx="308.74" cy="193.22" r="2.1"/><circle class="white-2" cx="313.29" cy="186.73" r="1.98"/><circle class="white-2" cx="308.65" cy="186.68" r="1.98"/><circle class="white-2" cx="313.25" cy="180.7" r="1.81"/><circle class="white-2" cx="309" cy="180.65" r="1.81"/><circle class="white-2" cx="313.14" cy="174.98" r="1.62"/><circle class="white-2" cx="309.36" cy="174.94" r="1.62"/><circle class="white-2" cx="313.45" cy="169.69" r="1.51"/><circle class="white-2" cx="309.93" cy="169.45" r="1.51"/><circle class="white-2" cx="313.65" cy="165.06" r="1.34"/><circle class="white-2" cx="310.52" cy="164.84" r="1.34"/><circle class="white-2" cx="314.04" cy="160.89" r="1.22"/><circle class="white-2" cx="311.18" cy="160.7" r="1.22"/><circle class="white-2" cx="314.24" cy="157.01" r="1.08"/><circle class="white-2" cx="311.71" cy="156.83" r="1.08"/><circle class="white-2" cx="314.37" cy="153.1" r="0.87"/><circle class="white-2" cx="312.34" cy="152.96" r="0.87"/><circle class="white-2" cx="315.01" cy="149.4" r="0.82"/><circle class="white-2" cx="313.11" cy="149.2" r="0.82"/><circle class="white-2" cx="315.43" cy="146.35" r="0.66"/><circle class="white-2" cx="313.91" cy="146.08" r="0.66"/><path class="blue" d="M476,250H450.79a266.71,266.71,0,0,0,17.09-61.64c7.38-49.12-1-88.68,1.83-89.09,2.07-.3,7.94,20.6,11.22,43.65A292.92,292.92,0,0,1,476,250Z" transform="translate(0 0)"/><path class="white-2" d="M464.17,246.22a4.79,4.79,0,1,0-7.61,3.75h5.63A4.76,4.76,0,0,0,464.17,246.22Z" transform="translate(0 0)"/><path class="white-2" d="M475.38,246.45a4.79,4.79,0,1,0-7.87,3.54h6.14A4.77,4.77,0,0,0,475.38,246.45Z" transform="translate(0 0)"/><circle class="white-2" cx="463.39" cy="234.41" r="4.33"/><circle class="white-2" cx="473.49" cy="235.33" r="4.33"/><circle class="white-2" cx="466.27" cy="223.37" r="3.97"/><circle class="white-2" cx="475.52" cy="224.2" r="3.97"/><circle class="white-2" cx="469.04" cy="212.6" r="3.56"/><circle class="white-2" cx="477.35" cy="213.35" r="3.56"/><circle class="white-2" cx="470.73" cy="201.98" r="3.35"/><circle class="white-2" cx="478.56" cy="202.24" r="3.35"/><circle class="white-2" cx="471.5" cy="192.01" r="3.16"/><circle class="white-2" cx="478.88" cy="192.25" r="3.16"/><circle class="white-2" cx="472.91" cy="182.91" r="3.05"/><circle class="white-2" cx="480.04" cy="183.14" r="3.05"/><circle class="white-2" cx="473.35" cy="174.02" r="2.8"/><circle class="white-2" cx="479.91" cy="174.23" r="2.8"/><circle class="white-2" cx="473.84" cy="165.56" r="2.65"/><circle class="white-2" cx="480.04" cy="165.5" r="2.65"/><circle class="white-2" cx="473.9" cy="157.52" r="2.42"/><circle class="white-2" cx="479.57" cy="157.46" r="2.42"/><circle class="white-2" cx="474.04" cy="149.88" r="2.16"/><circle class="white-2" cx="479.09" cy="149.83" r="2.16"/><circle class="white-2" cx="473.63" cy="142.83" r="2.01"/><circle class="white-2" cx="478.33" cy="142.5" r="2.01"/><circle class="white-2" cx="473.36" cy="136.65" r="1.79"/><circle class="white-2" cx="477.54" cy="136.36" r="1.79"/><circle class="white-2" cx="472.85" cy="131.08" r="1.63"/><circle class="white-2" cx="476.66" cy="130.82" r="1.63"/><circle class="white-2" cx="472.58" cy="125.9" r="1.45"/><circle class="white-2" cx="475.95" cy="125.67" r="1.45"/><circle class="white-2" cx="472.4" cy="120.69" r="1.16"/><circle class="white-2" cx="475.11" cy="120.51" r="1.16"/><circle class="white-2" cx="471.55" cy="115.75" r="1.09"/><circle class="white-2" cx="474.08" cy="115.49" r="1.09"/><circle class="white-2" cx="470.99" cy="111.68" r="0.88"/><circle class="white-2" cx="473.01" cy="111.33" r="0.88"/><path class="blue" d="M438.34,250h-18.9a199.62,199.62,0,0,0,12.8-46.19c5.54-36.81-.76-66.45,1.38-66.76,1.55-.22,5.95,15.43,8.4,32.71A219.45,219.45,0,0,1,438.34,250Z" transform="translate(0 0)"/><path class="white-2" d="M429.47,247.16a3.59,3.59,0,1,0-5.71,2.82H428A3.57,3.57,0,0,0,429.47,247.16Z" transform="translate(0 0)"/><path class="white-2" d="M437.86,247.34A3.59,3.59,0,1,0,432,250h4.6A3.54,3.54,0,0,0,437.86,247.34Z" transform="translate(0 0)"/><circle class="white-2" cx="428.88" cy="238.32" r="3.25"/><circle class="white-2" cx="436.45" cy="239" r="3.25"/><circle class="white-2" cx="431.04" cy="230.04" r="2.97"/><circle class="white-2" cx="437.97" cy="230.67" r="2.97"/><circle class="white-2" cx="433.12" cy="221.97" r="2.67"/><circle class="white-2" cx="439.34" cy="222.53" r="2.67"/><circle class="white-2" cx="434.38" cy="214.02" r="2.51"/><circle class="white-2" cx="440.25" cy="214.21" r="2.51"/><circle class="white-2" cx="434.96" cy="206.54" r="2.36"/><circle class="white-2" cx="440.49" cy="206.72" r="2.36"/><circle class="white-2" cx="436.02" cy="199.72" r="2.28"/><circle class="white-2" cx="441.36" cy="199.9" r="2.28"/><circle class="white-2" cx="436.35" cy="193.06" r="2.1"/><circle class="white-2" cx="441.26" cy="193.22" r="2.1"/><circle class="white-2" cx="436.71" cy="186.73" r="1.98"/><circle class="white-2" cx="441.36" cy="186.68" r="1.98"/><circle class="white-2" cx="436.76" cy="180.7" r="1.81"/><circle class="white-2" cx="441" cy="180.65" r="1.81"/><circle class="white-2" cx="436.87" cy="174.98" r="1.62"/><circle class="white-2" cx="440.65" cy="174.94" r="1.62"/><circle class="white-2" cx="436.55" cy="169.69" r="1.51"/><circle class="white-2" cx="440.08" cy="169.45" r="1.51"/><circle class="white-2" cx="436.35" cy="165.06" r="1.34"/><circle class="white-2" cx="439.49" cy="164.84" r="1.34"/><circle class="white-2" cx="435.97" cy="160.89" r="1.22"/><circle class="white-2" cx="438.83" cy="160.7" r="1.22"/><circle class="white-2" cx="435.77" cy="157.01" r="1.08"/><circle class="white-2" cx="438.29" cy="156.83" r="1.08"/><circle class="white-2" cx="435.64" cy="153.1" r="0.87"/><circle class="white-2" cx="437.66" cy="152.96" r="0.87"/><circle class="white-2" cx="434.99" cy="149.4" r="0.82"/><circle class="white-2" cx="436.89" cy="149.2" r="0.82"/><circle class="white-2" cx="434.57" cy="146.35" r="0.66"/><circle class="white-2" cx="436.09" cy="146.08" r="0.66"/><rect class="cls-1" x="750" width="250" height="250"/><path class="blue" d="M950.74,250H976a266.71,266.71,0,0,1-17.09-61.64c-7.38-49.12,1-88.68-1.83-89.09-2.08-.3-7.94,20.6-11.22,43.65A292.92,292.92,0,0,0,950.74,250Z" transform="translate(0 0)"/><path class="white-2" d="M964.56,250h5.63a4.79,4.79,0,1,0-5.63,0Z" transform="translate(0 0)"/><path class="white-2" d="M953.09,250h6.15a4.79,4.79,0,1,0-6.15,0Z" transform="translate(0 0)"/><circle class="white-2" cx="963.36" cy="234.41" r="4.33"/><circle class="white-2" cx="953.26" cy="235.33" r="4.33"/><circle class="white-2" cx="960.48" cy="223.37" r="3.97"/><circle class="white-2" cx="951.23" cy="224.2" r="3.97"/><circle class="white-2" cx="957.7" cy="212.6" r="3.56"/><circle class="white-2" cx="949.4" cy="213.35" r="3.56"/><circle class="white-2" cx="956.02" cy="201.98" r="3.35"/><circle class="white-2" cx="948.19" cy="202.24" r="3.35"/><circle class="white-2" cx="955.25" cy="192.01" r="3.16"/><circle class="white-2" cx="947.87" cy="192.25" r="3.16"/><circle class="white-2" cx="953.84" cy="182.91" r="3.05"/><circle class="white-2" cx="946.71" cy="183.14" r="3.05"/><circle class="white-2" cx="953.4" cy="174.02" r="2.8"/><circle class="white-2" cx="946.84" cy="174.23" r="2.8"/><circle class="white-2" cx="952.91" cy="165.56" r="2.65"/><circle class="white-2" cx="946.71" cy="165.5" r="2.65"/><circle class="white-2" cx="952.85" cy="157.52" r="2.42"/><circle class="white-2" cx="947.18" cy="157.46" r="2.42"/><circle class="white-2" cx="952.7" cy="149.88" r="2.16"/><circle class="white-2" cx="947.66" cy="149.83" r="2.16"/><circle class="white-2" cx="953.12" cy="142.83" r="2.01"/><circle class="white-2" cx="948.42" cy="142.5" r="2.01"/><circle class="white-2" cx="953.39" cy="136.65" r="1.79"/><circle class="white-2" cx="949.21" cy="136.36" r="1.79"/><circle class="white-2" cx="953.9" cy="131.08" r="1.63"/><circle class="white-2" cx="950.09" cy="130.82" r="1.63"/><circle class="white-2" cx="954.17" cy="125.9" r="1.45"/><circle class="white-2" cx="950.8" cy="125.67" r="1.45"/><circle class="white-2" cx="954.35" cy="120.69" r="1.16"/><circle class="white-2" cx="951.64" cy="120.51" r="1.16"/><circle class="white-2" cx="955.2" cy="115.75" r="1.09"/><circle class="white-2" cx="952.67" cy="115.49" r="1.09"/><circle class="white-2" cx="955.76" cy="111.68" r="0.88"/><circle class="white-2" cx="953.74" cy="111.33" r="0.88"/><path class="blue" d="M919.26,250h18.9a199.62,199.62,0,0,1-12.8-46.19c-5.54-36.81.76-66.45-1.38-66.76-1.55-.22-6,15.43-8.4,32.71A219.45,219.45,0,0,0,919.26,250Z" transform="translate(0 0)"/><path class="white-2" d="M929.62,250h4.22a3.59,3.59,0,1,0-5.71-2.82A3.54,3.54,0,0,0,929.62,250Z" transform="translate(0 0)"/><path class="white-2" d="M921,250h4.6a3.59,3.59,0,1,0-4.6,0Z" transform="translate(0 0)"/><circle class="white-2" cx="928.72" cy="238.32" r="3.25"/><circle class="white-2" cx="921.15" cy="239" r="3.25"/><circle class="white-2" cx="926.56" cy="230.04" r="2.97"/><circle class="white-2" cx="919.63" cy="230.67" r="2.97"/><circle class="white-2" cx="924.48" cy="221.97" r="2.67"/><circle class="white-2" cx="918.26" cy="222.53" r="2.67"/><circle class="white-2" cx="923.22" cy="214.02" r="2.51"/><circle class="white-2" cx="917.35" cy="214.21" r="2.51"/><circle class="white-2" cx="922.64" cy="206.54" r="2.36"/><circle class="white-2" cx="917.11" cy="206.72" r="2.36"/><circle class="white-2" cx="921.58" cy="199.72" r="2.28"/><circle class="white-2" cx="916.24" cy="199.9" r="2.28"/><circle class="white-2" cx="921.25" cy="193.06" r="2.1"/><circle class="white-2" cx="916.34" cy="193.22" r="2.1"/><circle class="white-2" cx="920.89" cy="186.73" r="1.98"/><circle class="white-2" cx="916.24" cy="186.68" r="1.98"/><circle class="white-2" cx="920.84" cy="180.7" r="1.81"/><circle class="white-2" cx="916.6" cy="180.65" r="1.81"/><circle class="white-2" cx="920.73" cy="174.98" r="1.62"/><circle class="white-2" cx="916.95" cy="174.94" r="1.62"/><circle class="white-2" cx="921.05" cy="169.69" r="1.51"/><circle class="white-2" cx="917.52" cy="169.45" r="1.51"/><circle class="white-2" cx="921.25" cy="165.06" r="1.34"/><circle class="white-2" cx="918.11" cy="164.84" r="1.34"/><circle class="white-2" cx="921.63" cy="160.89" r="1.22"/><circle class="white-2" cx="918.77" cy="160.7" r="1.22"/><circle class="white-2" cx="921.83" cy="157.01" r="1.08"/><circle class="white-2" cx="919.3" cy="156.83" r="1.08"/><circle class="white-2" cx="921.96" cy="153.1" r="0.87"/><circle class="white-2" cx="919.94" cy="152.96" r="0.87"/><circle class="white-2" cx="922.61" cy="149.4" r="0.82"/><circle class="white-2" cx="920.71" cy="149.2" r="0.82"/><circle class="white-2" cx="923.03" cy="146.35" r="0.66"/><circle class="white-2" cx="921.51" cy="146.08" r="0.66"/><path class="blue" d="M799.27,250H774.05a266.78,266.78,0,0,0,17.08-61.64c7.38-49.12-1-88.68,1.83-89.09,2.08-.3,7.95,20.6,11.22,43.65A293,293,0,0,1,799.27,250Z" transform="translate(0 0)"/><path class="white-2" d="M787.43,246.22a4.79,4.79,0,1,0-7.62,3.75h5.63A4.77,4.77,0,0,0,787.43,246.22Z" transform="translate(0 0)"/><path class="white-2" d="M798.63,246.45a4.79,4.79,0,1,0-9.57-.2,4.71,4.71,0,0,0,1.71,3.74h6.14A4.76,4.76,0,0,0,798.63,246.45Z" transform="translate(0 0)"/><circle class="white-2" cx="786.65" cy="234.41" r="4.33"/><circle class="white-2" cx="796.75" cy="235.33" r="4.33"/><circle class="white-2" cx="789.53" cy="223.37" r="3.97"/><circle class="white-2" cx="798.77" cy="224.2" r="3.97"/><circle class="white-2" cx="792.3" cy="212.6" r="3.56"/><circle class="white-2" cx="800.6" cy="213.35" r="3.56"/><circle class="white-2" cx="793.99" cy="201.98" r="3.35"/><circle class="white-2" cx="801.81" cy="202.24" r="3.35"/><circle class="white-2" cx="794.75" cy="192.01" r="3.16"/><circle class="white-2" cx="802.13" cy="192.25" r="3.16"/><circle class="white-2" cx="796.16" cy="182.91" r="3.05"/><circle class="white-2" cx="803.29" cy="183.14" r="3.05"/><circle class="white-2" cx="796.61" cy="174.02" r="2.8"/><circle class="white-2" cx="803.17" cy="174.23" r="2.8"/><circle class="white-2" cx="797.09" cy="165.56" r="2.65"/><circle class="white-2" cx="803.29" cy="165.5" r="2.65"/><circle class="white-2" cx="797.16" cy="157.52" r="2.42"/><circle class="white-2" cx="802.82" cy="157.46" r="2.42"/><circle class="white-2" cx="797.3" cy="149.88" r="2.16"/><circle class="white-2" cx="802.34" cy="149.83" r="2.16"/><circle class="white-2" cx="796.88" cy="142.83" r="2.01"/><circle class="white-2" cx="801.58" cy="142.5" r="2.01"/><circle class="white-2" cx="796.61" cy="136.65" r="1.79"/><circle class="white-2" cx="800.8" cy="136.36" r="1.79"/><circle class="white-2" cx="796.1" cy="131.08" r="1.63"/><circle class="white-2" cx="799.91" cy="130.82" r="1.63"/><circle class="white-2" cx="795.83" cy="125.9" r="1.45"/><circle class="white-2" cx="799.21" cy="125.67" r="1.45"/><circle class="white-2" cx="795.66" cy="120.69" r="1.16"/><circle class="white-2" cx="798.36" cy="120.51" r="1.16"/><circle class="white-2" cx="794.8" cy="115.75" r="1.09"/><circle class="white-2" cx="797.34" cy="115.49" r="1.09"/><circle class="white-2" cx="794.24" cy="111.68" r="0.88"/><circle class="white-2" cx="796.27" cy="111.33" r="0.88"/><path class="blue" d="M830.54,250H811.65a200.13,200.13,0,0,0,12.8-46.19c5.53-36.81-.76-66.45,1.37-66.76,1.56-.22,5.95,15.43,8.41,32.71A219.64,219.64,0,0,1,830.54,250Z" transform="translate(0 0)"/><path class="white-2" d="M821.67,247.16A3.59,3.59,0,1,0,816,250h4.22A3.54,3.54,0,0,0,821.67,247.16Z" transform="translate(0 0)"/><path class="white-2" d="M830.07,247.34a3.59,3.59,0,1,0-5.9,2.65h4.61A3.57,3.57,0,0,0,830.07,247.34Z" transform="translate(0 0)"/><circle class="white-2" cx="821.09" cy="238.32" r="3.25"/><circle class="white-2" cx="828.66" cy="239" r="3.25"/><circle class="white-2" cx="823.24" cy="230.04" r="2.97"/><circle class="white-2" cx="830.17" cy="230.67" r="2.97"/><circle class="white-2" cx="825.32" cy="221.97" r="2.67"/><circle class="white-2" cx="831.55" cy="222.53" r="2.67"/><circle class="white-2" cx="826.59" cy="214.02" r="2.51"/><circle class="white-2" cx="832.45" cy="214.21" r="2.51"/><circle class="white-2" cx="827.16" cy="206.54" r="2.36"/><circle class="white-2" cx="832.69" cy="206.72" r="2.36"/><circle class="white-2" cx="828.22" cy="199.72" r="2.28"/><circle class="white-2" cx="833.56" cy="199.9" r="2.28"/><circle class="white-2" cx="828.55" cy="193.06" r="2.1"/><circle class="white-2" cx="833.47" cy="193.22" r="2.1"/><circle class="white-2" cx="828.92" cy="186.73" r="1.98"/><circle class="white-2" cx="833.56" cy="186.68" r="1.98"/><circle class="white-2" cx="828.96" cy="180.7" r="1.81"/><circle class="white-2" cx="833.21" cy="180.65" r="1.81"/><circle class="white-2" cx="829.07" cy="174.98" r="1.62"/><circle class="white-2" cx="832.85" cy="174.94" r="1.62"/><circle class="white-2" cx="828.76" cy="169.69" r="1.51"/><circle class="white-2" cx="832.28" cy="169.45" r="1.51"/><circle class="white-2" cx="828.56" cy="165.06" r="1.34"/><circle class="white-2" cx="831.69" cy="164.84" r="1.34"/><circle class="white-2" cx="828.17" cy="160.89" r="1.22"/><circle class="white-2" cx="831.03" cy="160.7" r="1.22"/><circle class="white-2" cx="827.97" cy="157.01" r="1.08"/><circle class="white-2" cx="830.5" cy="156.83" r="1.08"/><circle class="white-2" cx="827.84" cy="153.1" r="0.87"/><circle class="white-2" cx="829.87" cy="152.96" r="0.87"/><circle class="white-2" cx="827.2" cy="149.4" r="0.82"/><circle class="white-2" cx="829.1" cy="149.2" r="0.82"/><circle class="white-2" cx="826.78" cy="146.35" r="0.66"/><circle class="white-2" cx="828.3" cy="146.08" r="0.66"/><rect class="cls-1" x="500" width="250" height="250"/><path class="blue" d="M523.85,249.94l25.22,0a213.19,213.19,0,0,0-7-30.31c-7.18-23.3-13.39-29.13-12.28-43.1.82-10.3,4.36-9.28,7.68-26.45,2.59-13.35,4.37-22.52.12-31.61-6.4-13.73-23.16-20.12-25-18-1.65,1.92,11.25,8.88,15.1,23.57,5.7,21.81-16.16,31.68-13.73,58.6,1.25,13.8,7.31,14.76,10.23,34.56A106.43,106.43,0,0,1,523.85,249.94Z" transform="translate(0 0)"/><circle class="white-2" cx="530.36" cy="112.92" r="1.83"/><circle class="white-2" cx="526.36" cy="114.48" r="1.83"/><circle class="white-2" cx="526.93" cy="108.82" r="1.21"/><circle class="white-2" cx="524.41" cy="110.12" r="1.21"/><circle class="white-2" cx="523.55" cy="105.93" r="1.21"/><circle class="white-2" cx="521.03" cy="107.23" r="1.21"/><circle class="white-2" cx="519.55" cy="103.58" r="0.81"/><circle class="white-2" cx="517.87" cy="104.44" r="0.81"/><circle class="white-2" cx="535.64" cy="124.37" r="1.87"/><circle class="white-2" cx="531.27" cy="124.74" r="1.87"/><circle class="white-2" cx="533.78" cy="118.03" r="1.87"/><circle class="white-2" cx="529.74" cy="119.74" r="1.87"/><circle class="white-2" cx="536.76" cy="131.06" r="2.03"/><circle class="white-2" cx="532.02" cy="130.62" r="2.03"/><circle class="white-2" cx="534.64" cy="144.8" r="2.03"/><circle class="white-2" cx="529.93" cy="144.11" r="2.03"/><circle class="white-2" cx="536.06" cy="138.01" r="2.03"/><circle class="white-2" cx="531.31" cy="137.69" r="2.03"/><circle class="white-2" cx="532.72" cy="152.16" r="2.33"/><circle class="white-2" cx="527.41" cy="150.97" r="2.33"/><circle class="white-2" cx="526.65" cy="166.13" r="2.76"/><circle class="white-2" cx="520.35" cy="164.72" r="2.76"/><circle class="white-2" cx="529.9" cy="158.91" r="2.41"/><circle class="white-2" cx="524.39" cy="157.69" r="2.41"/><circle class="white-2" cx="524.94" cy="173.11" r="2.76"/><circle class="white-2" cx="518.48" cy="173.04" r="2.76"/><circle class="white-2" cx="526.89" cy="189.04" r="2.76"/><circle class="white-2" cx="520.56" cy="190.35" r="2.76"/><circle class="white-2" cx="525.12" cy="181" r="2.76"/><circle class="white-2" cx="518.69" cy="181.67" r="2.76"/><circle class="white-2" cx="529.48" cy="197.36" r="2.6"/><circle class="white-2" cx="523.53" cy="198.59" r="2.6"/><circle class="white-2" cx="532.74" cy="205.7" r="2.76"/><circle class="white-2" cx="526.41" cy="207.01" r="2.76"/><circle class="white-2" cx="536.03" cy="214.48" r="3.05"/><circle class="white-2" cx="529.05" cy="215.92" r="3.05"/><circle class="white-2" cx="538.03" cy="224.68" r="2.99"/><circle class="white-2" cx="531.04" cy="224.93" r="2.99"/><circle class="white-2" cx="540.61" cy="234.67" r="4.17"/><circle class="white-2" cx="530.84" cy="234.87" r="4.17"/><path class="white-2" d="M539.46,250h5.63a4.8,4.8,0,1,0-5.63,0Z" transform="translate(0 0)"/><path class="white-2" d="M528,250h6.14a4.79,4.79,0,1,0-6.14,0Z" transform="translate(0 0)"/><path class="blue" d="M561.53,249.93l19,0a161,161,0,0,0-5.25-22.83c-5.41-17.55-10.08-21.93-9.25-32.46.62-7.75,3.28-7,5.79-19.93,1.94-10,3.28-17,.09-23.81-4.83-10.33-17.45-15.15-18.85-13.53-1.25,1.44,8.47,6.69,11.37,17.75,4.29,16.42-12.17,23.86-10.34,44.14.94,10.39,5.51,11.12,7.71,26A80.35,80.35,0,0,1,561.53,249.93Z" transform="translate(0 0)"/><circle class="white-2" cx="566.43" cy="146.72" r="1.38"/><circle class="white-2" cx="563.42" cy="147.89" r="1.38"/><circle class="white-2" cx="563.85" cy="143.63" r="0.91"/><circle class="white-2" cx="561.95" cy="144.61" r="0.91"/><circle class="white-2" cx="561.31" cy="141.45" r="0.91"/><circle class="white-2" cx="559.41" cy="142.43" r="0.91"/><circle class="white-2" cx="558.29" cy="139.68" r="0.61"/><circle class="white-2" cx="557.03" cy="140.33" r="0.61"/><circle class="white-2" cx="570.41" cy="155.34" r="1.41"/><circle class="white-2" cx="567.12" cy="155.62" r="1.41"/><circle class="white-2" cx="569.01" cy="150.57" r="1.41"/><circle class="white-2" cx="565.97" cy="151.85" r="1.41"/><circle class="white-2" cx="571.26" cy="160.38" r="1.53"/><circle class="white-2" cx="567.69" cy="160.05" r="1.53"/><circle class="white-2" cx="569.66" cy="170.73" r="1.53"/><circle class="white-2" cx="566.11" cy="170.21" r="1.53"/><circle class="white-2" cx="570.73" cy="165.62" r="1.53"/><circle class="white-2" cx="567.15" cy="165.38" r="1.53"/><circle class="white-2" cx="568.22" cy="176.27" r="1.75"/><circle class="white-2" cx="564.21" cy="175.38" r="1.75"/><circle class="white-2" cx="563.64" cy="186.8" r="2.08"/><circle class="white-2" cx="558.89" cy="185.74" r="2.08"/><circle class="white-2" cx="566.09" cy="181.36" r="1.82"/><circle class="white-2" cx="561.94" cy="180.44" r="1.82"/><circle class="white-2" cx="562.35" cy="192.05" r="2.08"/><circle class="white-2" cx="557.49" cy="192" r="2.08"/><circle class="white-2" cx="563.82" cy="204.05" r="2.08"/><circle class="white-2" cx="559.05" cy="205.04" r="2.08"/><circle class="white-2" cx="562.49" cy="198" r="2.08"/><circle class="white-2" cx="557.65" cy="198.5" r="2.08"/><circle class="white-2" cx="565.78" cy="210.32" r="1.96"/><circle class="white-2" cx="561.29" cy="211.25" r="1.96"/><circle class="white-2" cx="568.22" cy="216.6" r="2.08"/><circle class="white-2" cx="563.46" cy="217.59" r="2.08"/><circle class="white-2" cx="570.7" cy="223.21" r="2.29"/><circle class="white-2" cx="565.45" cy="224.3" r="2.29"/><circle class="white-2" cx="572.21" cy="230.9" r="2.25"/><circle class="white-2" cx="566.95" cy="231.08" r="2.25"/><circle class="white-2" cx="574.15" cy="238.42" r="3.14"/><circle class="white-2" cx="566.8" cy="238.57" r="3.14"/><path class="white-2" d="M573.29,249.94h4.24a3.61,3.61,0,1,0-4.24,0Z" transform="translate(0 0)"/><path class="white-2" d="M564.65,250h4.63a3.62,3.62,0,1,0-4.63,0Z" transform="translate(0 0)"/><path class="blue" d="M688.17,249.88h-19a160.41,160.41,0,0,1,5.2-22.84c5.38-17.55,10-21.95,9.2-32.47-.63-7.76-3.3-7-5.83-19.92-2-10.05-3.31-17-.13-23.81,4.81-10.34,17.43-15.18,18.82-13.57,1.25,1.44-8.46,6.7-11.33,17.77-4.27,16.43,12.21,23.84,10.42,44.12-.93,10.4-5.5,11.13-7.66,26A80.16,80.16,0,0,0,688.17,249.88Z" transform="translate(0 0)"/><circle class="white-2" cx="683.09" cy="146.69" r="1.38"/><circle class="white-2" cx="686.1" cy="147.85" r="1.38"/><circle class="white-2" cx="685.67" cy="143.59" r="0.91"/><circle class="white-2" cx="687.57" cy="144.57" r="0.91"/><circle class="white-2" cx="688.21" cy="141.41" r="0.91"/><circle class="white-2" cx="690.1" cy="142.38" r="0.91"/><circle class="white-2" cx="691.22" cy="139.63" r="0.61"/><circle class="white-2" cx="692.48" cy="140.28" r="0.61"/><circle class="white-2" cx="679.13" cy="155.32" r="1.41"/><circle class="white-2" cx="682.42" cy="155.59" r="1.41"/><circle class="white-2" cx="680.52" cy="150.54" r="1.41"/><circle class="white-2" cx="683.56" cy="151.82" r="1.41"/><circle class="white-2" cx="678.29" cy="160.36" r="1.53"/><circle class="white-2" cx="681.86" cy="160.02" r="1.53"/><circle class="white-2" cx="679.91" cy="170.7" r="1.53"/><circle class="white-2" cx="683.45" cy="170.18" r="1.53"/><circle class="white-2" cx="678.83" cy="165.59" r="1.53"/><circle class="white-2" cx="682.41" cy="165.34" r="1.53"/><circle class="white-2" cx="681.36" cy="176.24" r="1.75"/><circle class="white-2" cx="685.36" cy="175.34" r="1.75"/><circle class="white-2" cx="685.95" cy="186.76" r="2.08"/><circle class="white-2" cx="690.7" cy="185.69" r="2.08"/><circle class="white-2" cx="683.49" cy="181.33" r="1.82"/><circle class="white-2" cx="687.64" cy="180.4" r="1.82"/><circle class="white-2" cx="687.25" cy="192.01" r="2.08"/><circle class="white-2" cx="692.12" cy="191.95" r="2.08"/><circle class="white-2" cx="685.8" cy="204.01" r="2.08"/><circle class="white-2" cx="690.57" cy="204.99" r="2.08"/><circle class="white-2" cx="687.13" cy="197.96" r="2.08"/><circle class="white-2" cx="691.97" cy="198.45" r="2.08"/><circle class="white-2" cx="683.86" cy="210.28" r="1.96"/><circle class="white-2" cx="688.35" cy="211.2" r="1.96"/><circle class="white-2" cx="681.42" cy="216.57" r="2.08"/><circle class="white-2" cx="686.19" cy="217.55" r="2.08"/><circle class="white-2" cx="678.95" cy="223.19" r="2.29"/><circle class="white-2" cx="684.21" cy="224.27" r="2.29"/><circle class="white-2" cx="677.46" cy="230.88" r="2.25"/><circle class="white-2" cx="682.72" cy="231.05" r="2.25"/><circle class="white-2" cx="675.53" cy="238.4" r="3.14"/><circle class="white-2" cx="682.89" cy="238.54" r="3.14"/><path class="white-2" d="M677.91,247.08a3.61,3.61,0,1,0-5.74,2.84h4.24A3.61,3.61,0,0,0,677.91,247.08Z" transform="translate(0 0)"/><path class="white-2" d="M686.35,247.24a3.61,3.61,0,1,0-5.92,2.68h4.62A3.62,3.62,0,0,0,686.35,247.24Z" transform="translate(0 0)"/><path class="blue" d="M725.84,250H700.62a212.91,212.91,0,0,1,6.92-30.32c7.14-23.31,13.33-29.14,12.2-43.12-.84-10.29-4.37-9.27-7.73-26.44-2.61-13.34-4.4-22.51-.17-31.61,6.37-13.73,23.13-20.16,25-18,1.66,1.91-11.23,8.89-15.05,23.59-5.66,21.82,16.22,31.65,13.83,58.58-1.22,13.8-7.28,14.77-10.17,34.57A106.72,106.72,0,0,0,725.84,250Z" transform="translate(0 0)"/><circle class="white-2" cx="719.09" cy="112.95" r="1.83"/><circle class="white-2" cx="723.09" cy="114.49" r="1.83"/><circle class="white-2" cx="722.52" cy="108.84" r="1.21"/><circle class="white-2" cx="725.04" cy="110.13" r="1.21"/><circle class="white-2" cx="725.89" cy="105.94" r="1.21"/><circle class="white-2" cx="728.41" cy="107.23" r="1.21"/><circle class="white-2" cx="729.88" cy="103.58" r="0.81"/><circle class="white-2" cx="731.57" cy="104.44" r="0.81"/><circle class="white-2" cx="713.83" cy="124.41" r="1.87"/><circle class="white-2" cx="718.2" cy="124.76" r="1.87"/><circle class="white-2" cx="715.68" cy="118.06" r="1.87"/><circle class="white-2" cx="719.72" cy="119.76" r="1.87"/><circle class="white-2" cx="712.72" cy="131.1" r="2.03"/><circle class="white-2" cx="717.46" cy="130.65" r="2.03"/><circle class="white-2" cx="714.87" cy="144.83" r="2.03"/><circle class="white-2" cx="719.58" cy="144.14" r="2.03"/><circle class="white-2" cx="713.44" cy="138.04" r="2.03"/><circle class="white-2" cx="718.19" cy="137.72" r="2.03"/><circle class="white-2" cx="716.8" cy="152.19" r="2.33"/><circle class="white-2" cx="722.11" cy="150.99" r="2.33"/><circle class="white-2" cx="722.89" cy="166.15" r="2.76"/><circle class="white-2" cx="729.2" cy="164.73" r="2.76"/><circle class="white-2" cx="719.63" cy="158.94" r="2.41"/><circle class="white-2" cx="725.14" cy="157.7" r="2.41"/><circle class="white-2" cx="724.62" cy="173.13" r="2.76"/><circle class="white-2" cx="731.08" cy="173.04" r="2.76"/><circle class="white-2" cx="722.7" cy="189.06" r="2.76"/><circle class="white-2" cx="729.03" cy="190.36" r="2.76"/><circle class="white-2" cx="724.45" cy="181.02" r="2.76"/><circle class="white-2" cx="730.88" cy="181.68" r="2.76"/><circle class="white-2" cx="720.12" cy="197.38" r="2.6"/><circle class="white-2" cx="726.08" cy="198.6" r="2.6"/><circle class="white-2" cx="716.88" cy="205.73" r="2.76"/><circle class="white-2" cx="723.21" cy="207.03" r="2.76"/><circle class="white-2" cx="713.6" cy="214.51" r="3.05"/><circle class="white-2" cx="720.59" cy="215.94" r="3.05"/><circle class="white-2" cx="711.08" cy="224.29" r="3.47"/><circle class="white-2" cx="719.15" cy="225.08" r="3.47"/><circle class="white-2" cx="709.06" cy="234.71" r="4.17"/><circle class="white-2" cx="718.82" cy="234.9" r="4.17"/><path class="white-2" d="M712.21,246.23A4.79,4.79,0,1,0,704.6,250h5.63A4.76,4.76,0,0,0,712.21,246.23Z" transform="translate(0 0)"/><path class="white-2" d="M723.42,246.44a4.79,4.79,0,1,0-7.86,3.56h6.14A4.77,4.77,0,0,0,723.42,246.44Z" transform="translate(0 0)"/><rect class="cls-1" width="250" height="250"/><path class="blue" d="M49.18,250H24a214.3,214.3,0,0,1,6.92-30.32c7.14-23.31,13.34-29.14,12.2-43.12-.83-10.29-4.37-9.27-7.73-26.44-2.61-13.34-4.4-22.51-.17-31.61,6.38-13.73,23.13-20.16,25-18,1.66,1.91-11.24,8.89-15.05,23.59C39.45,145.86,61.33,155.69,59,182.62c-1.23,13.8-7.29,14.77-10.17,34.57A106.46,106.46,0,0,0,49.18,250Z" transform="translate(0 0)"/><circle class="white-2" cx="42.43" cy="112.95" r="1.83"/><circle class="white-2" cx="46.43" cy="114.49" r="1.83"/><circle class="white-2" cx="45.86" cy="108.84" r="1.21"/><circle class="white-2" cx="48.38" cy="110.13" r="1.21"/><circle class="white-2" cx="49.23" cy="105.94" r="1.21"/><circle class="white-2" cx="51.75" cy="107.23" r="1.21"/><circle class="white-2" cx="53.23" cy="103.58" r="0.81"/><circle class="white-2" cx="54.91" cy="104.44" r="0.81"/><circle class="white-2" cx="37.18" cy="124.41" r="1.87"/><circle class="white-2" cx="41.54" cy="124.76" r="1.87"/><circle class="white-2" cx="39.02" cy="118.06" r="1.87"/><circle class="white-2" cx="43.06" cy="119.76" r="1.87"/><circle class="white-2" cx="36.06" cy="131.1" r="2.03"/><circle class="white-2" cx="40.8" cy="130.65" r="2.03"/><circle class="white-2" cx="38.21" cy="144.83" r="2.03"/><circle class="white-2" cx="42.92" cy="144.14" r="2.03"/><circle class="white-2" cx="36.78" cy="138.04" r="2.03"/><circle class="white-2" cx="41.53" cy="137.72" r="2.03"/><circle class="white-2" cx="40.14" cy="152.19" r="2.33"/><circle class="white-2" cx="45.45" cy="150.99" r="2.33"/><circle class="white-2" cx="46.23" cy="166.15" r="2.76"/><circle class="white-2" cx="52.54" cy="164.73" r="2.76"/><circle class="white-2" cx="42.97" cy="158.94" r="2.41"/><circle class="white-2" cx="48.48" cy="157.7" r="2.41"/><circle class="white-2" cx="47.96" cy="173.13" r="2.76"/><circle class="white-2" cx="54.42" cy="173.04" r="2.76"/><circle class="white-2" cx="46.04" cy="189.06" r="2.76"/><circle class="white-2" cx="52.37" cy="190.36" r="2.76"/><circle class="white-2" cx="47.8" cy="181.02" r="2.76"/><circle class="white-2" cx="54.22" cy="181.68" r="2.76"/><circle class="white-2" cx="43.46" cy="197.38" r="2.6"/><circle class="white-2" cx="49.42" cy="198.6" r="2.6"/><circle class="white-2" cx="40.22" cy="205.73" r="2.76"/><circle class="white-2" cx="46.55" cy="207.03" r="2.76"/><circle class="white-2" cx="36.95" cy="214.51" r="3.05"/><circle class="white-2" cx="43.93" cy="215.94" r="3.05"/><circle class="white-2" cx="34.42" cy="224.29" r="3.47"/><circle class="white-2" cx="42.49" cy="225.08" r="3.47"/><circle class="white-2" cx="32.4" cy="234.71" r="4.17"/><circle class="white-2" cx="42.17" cy="234.9" r="4.17"/><path class="white-2" d="M35.56,246.23A4.79,4.79,0,1,0,27.94,250h5.63A4.77,4.77,0,0,0,35.56,246.23Z" transform="translate(0 0)"/><path class="white-2" d="M46.76,246.44A4.79,4.79,0,1,0,38.9,250H45A4.77,4.77,0,0,0,46.76,246.44Z" transform="translate(0 0)"/><path class="blue" d="M80.61,249.88h-19A161.67,161.67,0,0,1,66.82,227c5.38-17.55,10.05-21.95,9.2-32.47-.63-7.76-3.3-7-5.83-19.92-2-10.05-3.31-17-.13-23.81,4.81-10.34,17.42-15.18,18.82-13.57,1.25,1.44-8.46,6.7-11.33,17.77C73.28,171.47,89.76,178.88,88,199.16c-.92,10.4-5.49,11.13-7.66,26A80.43,80.43,0,0,0,80.61,249.88Z" transform="translate(0 0)"/><circle class="white-2" cx="75.53" cy="146.69" r="1.38"/><circle class="white-2" cx="78.54" cy="147.85" r="1.38"/><circle class="white-2" cx="78.11" cy="143.59" r="0.91"/><circle class="white-2" cx="80.01" cy="144.57" r="0.91"/><circle class="white-2" cx="80.64" cy="141.41" r="0.91"/><circle class="white-2" cx="82.54" cy="142.38" r="0.91"/><circle class="white-2" cx="83.66" cy="139.63" r="0.61"/><circle class="white-2" cx="84.92" cy="140.28" r="0.61"/><circle class="white-2" cx="71.57" cy="155.32" r="1.41"/><circle class="white-2" cx="74.86" cy="155.59" r="1.41"/><circle class="white-2" cx="72.96" cy="150.54" r="1.41"/><circle class="white-2" cx="76" cy="151.82" r="1.41"/><circle class="white-2" cx="70.73" cy="160.36" r="1.53"/><circle class="white-2" cx="74.3" cy="160.02" r="1.53"/><circle class="white-2" cx="72.35" cy="170.7" r="1.53"/><circle class="white-2" cx="75.89" cy="170.18" r="1.53"/><circle class="white-2" cx="71.27" cy="165.59" r="1.53"/><circle class="white-2" cx="74.85" cy="165.34" r="1.53"/><circle class="white-2" cx="73.8" cy="176.24" r="1.75"/><circle class="white-2" cx="77.8" cy="175.34" r="1.75"/><circle class="white-2" cx="78.39" cy="186.76" r="2.08"/><circle class="white-2" cx="83.14" cy="185.69" r="2.08"/><circle class="white-2" cx="75.93" cy="181.33" r="1.82"/><circle class="white-2" cx="80.08" cy="180.4" r="1.82"/><circle class="white-2" cx="79.69" cy="192.01" r="2.08"/><circle class="white-2" cx="84.56" cy="191.95" r="2.08"/><circle class="white-2" cx="78.24" cy="204.01" r="2.08"/><circle class="white-2" cx="83.01" cy="204.99" r="2.08"/><circle class="white-2" cx="79.57" cy="197.96" r="2.08"/><circle class="white-2" cx="84.41" cy="198.45" r="2.08"/><circle class="white-2" cx="76.3" cy="210.28" r="1.96"/><circle class="white-2" cx="80.79" cy="211.2" r="1.96"/><circle class="white-2" cx="73.86" cy="216.57" r="2.08"/><circle class="white-2" cx="78.63" cy="217.55" r="2.08"/><circle class="white-2" cx="71.39" cy="223.19" r="2.29"/><circle class="white-2" cx="76.65" cy="224.27" r="2.29"/><circle class="white-2" cx="69.32" cy="230.86" r="2.75"/><circle class="white-2" cx="75.74" cy="231.07" r="2.75"/><circle class="white-2" cx="67.97" cy="238.4" r="3.14"/><circle class="white-2" cx="75.33" cy="238.54" r="3.14"/><path class="white-2" d="M70.35,247.08a3.61,3.61,0,1,0-5.74,2.84h4.24A3.61,3.61,0,0,0,70.35,247.08Z" transform="translate(0 0)"/><path class="white-2" d="M78.78,247.24a3.61,3.61,0,1,0-5.91,2.68h4.62A3.58,3.58,0,0,0,78.78,247.24Z" transform="translate(0 0)"/><path class="blue" d="M200.82,249.94l25.22,0a214.57,214.57,0,0,0-7-30.31c-7.19-23.3-13.39-29.13-12.28-43.1.81-10.3,4.35-9.28,7.68-26.45,2.59-13.35,4.36-22.52.12-31.61-6.4-13.73-23.17-20.12-25-18-1.66,1.92,11.25,8.88,15.09,23.57,5.7,21.81-16.16,31.68-13.73,58.6,1.25,13.8,7.32,14.76,10.24,34.56A106.74,106.74,0,0,1,200.82,249.94Z" transform="translate(0 0)"/><circle class="white-2" cx="207.32" cy="112.92" r="1.83"/><circle class="white-2" cx="203.32" cy="114.48" r="1.83"/><circle class="white-2" cx="203.89" cy="108.82" r="1.21"/><circle class="white-2" cx="201.37" cy="110.12" r="1.21"/><circle class="white-2" cx="200.52" cy="105.93" r="1.21"/><circle class="white-2" cx="198" cy="107.23" r="1.21"/><circle class="white-2" cx="196.51" cy="103.58" r="0.81"/><circle class="white-2" cx="194.83" cy="104.44" r="0.81"/><circle class="white-2" cx="212.6" cy="124.37" r="1.87"/><circle class="white-2" cx="208.23" cy="124.74" r="1.87"/><circle class="white-2" cx="210.74" cy="118.03" r="1.87"/><circle class="white-2" cx="206.7" cy="119.74" r="1.87"/><circle class="white-2" cx="213.73" cy="131.06" r="2.03"/><circle class="white-2" cx="208.99" cy="130.62" r="2.03"/><circle class="white-2" cx="211.6" cy="144.8" r="2.03"/><circle class="white-2" cx="206.89" cy="144.11" r="2.03"/><circle class="white-2" cx="213.02" cy="138.01" r="2.03"/><circle class="white-2" cx="208.27" cy="137.69" r="2.03"/><circle class="white-2" cx="209.69" cy="152.16" r="2.33"/><circle class="white-2" cx="204.37" cy="150.97" r="2.33"/><circle class="white-2" cx="203.62" cy="166.13" r="2.76"/><circle class="white-2" cx="197.31" cy="164.72" r="2.76"/><circle class="white-2" cx="206.87" cy="158.91" r="2.41"/><circle class="white-2" cx="201.36" cy="157.69" r="2.41"/><circle class="white-2" cx="201.9" cy="173.11" r="2.76"/><circle class="white-2" cx="195.44" cy="173.04" r="2.76"/><circle class="white-2" cx="203.85" cy="189.04" r="2.76"/><circle class="white-2" cx="197.53" cy="190.35" r="2.76"/><circle class="white-2" cx="202.08" cy="181" r="2.76"/><circle class="white-2" cx="195.66" cy="181.67" r="2.76"/><circle class="white-2" cx="206.45" cy="197.36" r="2.6"/><circle class="white-2" cx="200.49" cy="198.59" r="2.6"/><circle class="white-2" cx="209.7" cy="205.7" r="2.76"/><circle class="white-2" cx="203.37" cy="207.01" r="2.76"/><circle class="white-2" cx="212.99" cy="214.48" r="3.05"/><circle class="white-2" cx="206.01" cy="215.92" r="3.05"/><circle class="white-2" cx="215.6" cy="224.66" r="3.5"/><circle class="white-2" cx="207.4" cy="224.95" r="3.5"/><circle class="white-2" cx="217.57" cy="234.67" r="4.17"/><circle class="white-2" cx="207.81" cy="234.87" r="4.17"/><path class="white-2" d="M216.43,250h5.63a4.8,4.8,0,1,0-5.63,0Z" transform="translate(0 0)"/><path class="white-2" d="M205,250h6.14a4.79,4.79,0,1,0-6.14,0Z" transform="translate(0 0)"/><path class="blue" d="M169.42,249.93l19,0a162.4,162.4,0,0,0-5.25-22.83c-5.41-17.55-10.09-21.93-9.25-32.46.61-7.75,3.28-7,5.78-19.93,2-10,3.29-17,.09-23.81C175,140.53,162.34,135.71,161,137.33c-1.25,1.44,8.47,6.69,11.37,17.75,4.29,16.42-12.18,23.86-10.34,44.14.94,10.39,5.51,11.12,7.7,26A80.09,80.09,0,0,1,169.42,249.93Z" transform="translate(0 0)"/><circle class="white-2" cx="174.32" cy="146.72" r="1.38"/><circle class="white-2" cx="171.31" cy="147.89" r="1.38"/><circle class="white-2" cx="171.74" cy="143.63" r="0.91"/><circle class="white-2" cx="169.84" cy="144.61" r="0.91"/><circle class="white-2" cx="169.19" cy="141.45" r="0.91"/><circle class="white-2" cx="167.3" cy="142.43" r="0.91"/><circle class="white-2" cx="166.18" cy="139.68" r="0.61"/><circle class="white-2" cx="164.91" cy="140.33" r="0.61"/><circle class="white-2" cx="178.3" cy="155.34" r="1.41"/><circle class="white-2" cx="175.01" cy="155.62" r="1.41"/><circle class="white-2" cx="176.9" cy="150.57" r="1.41"/><circle class="white-2" cx="173.86" cy="151.85" r="1.41"/><circle class="white-2" cx="179.14" cy="160.38" r="1.53"/><circle class="white-2" cx="175.58" cy="160.05" r="1.53"/><circle class="white-2" cx="177.54" cy="170.73" r="1.53"/><circle class="white-2" cx="174" cy="170.21" r="1.53"/><circle class="white-2" cx="178.61" cy="165.62" r="1.53"/><circle class="white-2" cx="175.04" cy="165.38" r="1.53"/><circle class="white-2" cx="176.1" cy="176.27" r="1.75"/><circle class="white-2" cx="172.1" cy="175.38" r="1.75"/><circle class="white-2" cx="171.53" cy="186.8" r="2.08"/><circle class="white-2" cx="166.78" cy="185.74" r="2.08"/><circle class="white-2" cx="173.98" cy="181.36" r="1.82"/><circle class="white-2" cx="169.83" cy="180.44" r="1.82"/><circle class="white-2" cx="170.24" cy="192.05" r="2.08"/><circle class="white-2" cx="165.37" cy="192" r="2.08"/><circle class="white-2" cx="171.71" cy="204.05" r="2.08"/><circle class="white-2" cx="166.94" cy="205.04" r="2.08"/><circle class="white-2" cx="170.37" cy="198" r="2.08"/><circle class="white-2" cx="165.53" cy="198.5" r="2.08"/><circle class="white-2" cx="173.66" cy="210.32" r="1.96"/><circle class="white-2" cx="169.18" cy="211.25" r="1.96"/><circle class="white-2" cx="176.11" cy="216.6" r="2.08"/><circle class="white-2" cx="171.35" cy="217.59" r="2.08"/><circle class="white-2" cx="178.59" cy="223.21" r="2.29"/><circle class="white-2" cx="173.33" cy="224.3" r="2.29"/><circle class="white-2" cx="180.66" cy="230.88" r="2.73"/><circle class="white-2" cx="174.27" cy="231.1" r="2.73"/><circle class="white-2" cx="182.04" cy="238.42" r="3.14"/><circle class="white-2" cx="174.69" cy="238.57" r="3.14"/><path class="white-2" d="M181.18,249.94h4.24a3.61,3.61,0,1,0-4.24,0Z" transform="translate(0 0)"/><path class="white-2" d="M172.54,250h4.63a3.6,3.6,0,0,0-2.4-6.35,3.61,3.61,0,0,0-3.53,3.68A3.55,3.55,0,0,0,172.54,250Z" transform="translate(0 0)"/><line class="cls-1" x1="1000" y1="250" x2="1000"/></g></svg>