<svg id="tentacle-animation" xmlns="http://www.w3.org/2000/svg" width="2000" height="250" viewBox="0 0 2000 250"><defs><style>.cls-1{fill:none;}.blue{fill:#dde2ff;}.blue,.cls-2,.white{isolation:isolate;}.white{fill:#fff;}</style></defs><title>octopus-head</title><g id="octopus-head-group"><rect class="cls-1" x="250" width="250" height="250"/><path class="blue" d="M407.94,249.93a33.74,33.74,0,0,0,.63-6.48,33.3,33.3,0,0,0-66.6,0,33.74,33.74,0,0,0,.63,6.48Z"/><ellipse class="white" cx="363.56" cy="241.91" rx="5.63" ry="2.82"/><circle class="blue" cx="363.56" cy="241.91" r="2.08"/><ellipse class="white" cx="386.29" cy="241.91" rx="5.63" ry="2.82"/><circle class="blue" cx="386.29" cy="241.91" r="2.08"/><rect class="cls-1" x="1250" width="250" height="250"/><path class="blue" d="M1407.94,249.93a33.74,33.74,0,0,0,.63-6.48,33.3,33.3,0,0,0-66.6,0,33.74,33.74,0,0,0,.63,6.48Z"/><ellipse class="white" cx="1363.56" cy="243.78" rx="5.63" ry="0.94"/><circle class="blue" cx="1363.56" cy="241.91" r="2.08"/><ellipse class="white" cx="1386.29" cy="243.78" rx="5.63" ry="0.94"/><circle class="blue" cx="1386.29" cy="241.91" r="2.08"/><rect class="cls-1" x="750" width="250" height="250"/><path class="blue" d="M907.94,249.93a33.74,33.74,0,0,0,.63-6.48,33.3,33.3,0,0,0-66.6,0,33.74,33.74,0,0,0,.63,6.48Z"/><ellipse class="white" cx="863.56" cy="243.78" rx="5.63" ry="0.94"/><circle class="blue" cx="863.56" cy="241.91" r="2.08"/><ellipse class="white" cx="886.29" cy="243.78" rx="5.63" ry="0.94"/><circle class="blue" cx="886.29" cy="241.91" r="2.08"/><rect class="cls-1" x="500" width="250" height="250"/><path class="blue" d="M657.67,249.93a33.74,33.74,0,0,0,.63-6.48,33.3,33.3,0,1,0-66.6,0,33.74,33.74,0,0,0,.63,6.48Z"/><ellipse class="white" cx="613.29" cy="243.31" rx="5.63" ry="1.41"/><circle class="blue" cx="613.29" cy="241.91" r="2.08"/><ellipse class="white" cx="636.02" cy="243.31" rx="5.63" ry="1.41"/><circle class="blue" cx="636.02" cy="241.91" r="2.08"/><rect class="cls-1" x="1750" width="250" height="250"/><path class="blue" d="M1907.94,249.93a33.74,33.74,0,0,0,.63-6.48,33.3,33.3,0,0,0-66.6,0,33.74,33.74,0,0,0,.63,6.48Z"/><ellipse class="white" cx="1863.56" cy="241.91" rx="5.63" ry="2.82"/><circle class="blue" cx="1863.56" cy="241.91" r="2.08"/><ellipse class="white" cx="1886.29" cy="241.91" rx="5.63" ry="2.82"/><circle class="blue" cx="1886.29" cy="241.91" r="2.08"/><rect class="cls-1" x="1500" width="250" height="250"/><path class="blue" d="M1657.67,249.93a33.74,33.74,0,0,0,.63-6.48,33.3,33.3,0,0,0-66.6,0,33.74,33.74,0,0,0,.63,6.48Z"/><ellipse class="white" cx="1613.29" cy="243.31" rx="5.63" ry="1.41"/><circle class="blue" cx="1613.29" cy="241.91" r="2.08"/><ellipse class="white" cx="1636.02" cy="243.31" rx="5.63" ry="1.41"/><circle class="blue" cx="1636.02" cy="241.91" r="2.08"/><rect class="cls-1" width="250" height="250"/><path class="blue" d="M157.94,249.88a33.66,33.66,0,0,0,.63-6.48,33.3,33.3,0,0,0-66.6,0,33.66,33.66,0,0,0,.63,6.48Z"/><circle class="white" cx="113.56" cy="239.04" r="5.63"/><circle class="blue" cx="113.56" cy="241.13" r="2.08"/><circle class="white" cx="136.29" cy="239.04" r="5.63"/><circle class="blue" cx="136.29" cy="241.13" r="2.08"/><rect class="cls-1" x="1000" width="250" height="250"/><g class="blue"><path class="cls-3" d="M1157.94,249.88a33.66,33.66,0,0,0,.63-6.48,33.3,33.3,0,0,0-66.6,0,33.66,33.66,0,0,0,.63,6.48Z"/><path class="blue" d="M1157.94,249.88a33.66,33.66,0,0,0,.63-6.48,33.3,33.3,0,0,0-66.6,0,33.66,33.66,0,0,0,.63,6.48Z"/></g></g></svg>