<?xml version="1.0" encoding="UTF-8"?>
<svg width="54px" height="85px" viewBox="0 0 54 85" version="1.1" xmlns="http://www.w3.org/2000/svg" xmlns:xlink="http://www.w3.org/1999/xlink">
    <!-- Generator: Sketch 42 (36781) - http://www.bohemiancoding.com/sketch -->
    <title>Shape</title>
    <desc>Created with Sketch.</desc>
    <defs></defs>
    <g id="Page-1" stroke="none" stroke-width="1" fill="none" fill-rule="evenodd">
        <g id="walkin-fish" transform="translate(-541.000000, 0.000000)" fill-rule="nonzero" fill="#FFFFFF">
            <g id="Layer_1">
                <path d="M584.8,3.6 C584.1,4 583.4,4.5 582.6,4.9 C579.5,6.7 576.8,9 574.3,11.5 C571.9,13.9 569.5,16.3 567.1,18.8 C566.6,19.3 566.3,20 565.9,20.6 C563.4,23.9 561.5,27.4 559.7,31 C557.2,35.9 556,41.1 555.9,46.4 C555.8,50.1 556.1,53.8 557.9,57.2 C559.9,60.9 562.6,64.2 567,65.8 C568.3,66.3 569.7,66.8 571.1,66.9 C572.4,67 573.8,66.7 575,66.3 C578.9,65.1 582,63.1 582.8,59.2 C583.1,58.1 583.1,56.7 582.7,55.6 C581.9,53.1 580.7,50.9 578.1,49.4 C575.8,48.1 571.3,48.3 569.3,49.9 C567.7,51.2 566.4,52.5 565.9,54.5 C565.9,54.6 565.7,54.7 565.6,54.8 C561,41.5 568.5,23 584.5,15.6 C584.3,17.2 584.2,18.8 584.1,20.4 C583.8,23 583.3,25.6 583.4,28.2 C583.5,30.2 584,32.4 584.9,34.2 C586.4,37.1 588.4,39.8 590.1,42.7 C591.1,44.3 591.8,46.1 592.4,47.9 C593,49.8 593.2,51.9 593.9,53.8 C594.8,56.6 594.9,59.4 594.3,62.2 C593.6,65.5 592.3,68.7 590.2,71.6 C588.9,73.2 587.6,74.9 586.1,76.3 C582.7,79.6 578.7,82.2 573.9,83.5 C571.1,84.3 568.1,84.3 565.2,83.7 C561.8,83 558.5,81.9 555.4,80.2 C554.8,79.9 554.3,79.5 553.8,79.2 C547.3,74.9 544,69.1 542.6,62 C542,58.9 541.7,55.8 541.7,52.6 C541.7,49.3 542.8,46.2 543.8,43.1 C544.5,40.9 545.4,38.8 546.5,36.8 C547.7,34.4 549.1,32 550.6,29.7 C552,27.5 553.6,25.4 555.3,23.4 C557.3,21 559.6,18.8 561.7,16.4 C563.6,14.3 564.1,12 562.3,9.5 C561.2,8 560.2,6.4 560.5,4.4 C560.7,3.3 561.1,2.2 561.8,1.2 C562.9,-0.4 564.8,-0.2 565.8,1.4 C566,1.8 566.3,2.2 566.7,2.5 C570.3,4.6 574.1,6 578.6,4.7 C580.5,4.1 582.5,3.7 584.4,3.3 L585,3.3 C584.8,3.5 584.8,3.6 584.8,3.6 Z M547.5,55.6 C548.2,59 549.1,62.2 551.1,65.2 C553.7,69.1 556.6,72.7 560.6,75.5 C561.6,76.2 562.6,77 563.8,77.5 C565.9,78.3 568.1,78.9 570.3,79.6 C571.7,80 573.1,80.2 574.4,79.4 C577.1,77.8 579.7,75.9 581.7,73.6 C583.9,71 586.3,68.5 587.5,65.3 C588.1,63.7 588.6,62.1 589.1,60.5 C589,60.5 588.9,60.4 588.8,60.4 C588,64.3 585.6,67.6 583,70.7 C582,71.9 580.9,73 579.8,74 C579.3,74.5 578.5,74.8 578,75.2 C577.6,74.1 577.4,73.3 577,72.5 C577,72.4 576.1,72.7 575.5,72.9 C576.2,74.6 575.6,75.9 574.7,77.2 C574.1,78.2 572.7,78.6 571.4,78.2 C570.1,77.9 568.8,76.5 569,75.6 C569.1,75.1 569.4,74.6 569.8,74.3 C570.2,74 570.8,74 571.3,73.9 L571.3,73.6 C570.5,73.6 569.7,73.3 569.1,73.5 C567.4,74.1 567.3,75.5 567.4,76.9 C564.2,76.1 561.5,74.7 559.1,72.8 C553.3,68.1 549.4,62.4 547.5,55.6 Z M584,64 C581,66.9 577.2,68.9 573.2,70.5 C572.4,70.8 571.8,70.9 571.1,70.3 C570.7,70 570.1,69.7 569.5,69.7 C567.1,69.5 565.1,68.5 563.1,67.4 C559.8,65.6 557,63.2 554.8,60.3 C552.6,57.5 550.9,54.5 550.2,51.1 C549.7,48.4 549,45.7 549.2,43 C549.2,42.7 549.3,42.3 549.3,42 L549.3,41 C546.3,51.2 551.2,63.2 565.9,70.5 C565.5,70.8 565.1,71 564.8,71.3 C564.5,71.6 564.2,72 563.9,72.4 C562.7,73.8 562.9,74.6 564.9,75 C565.5,72.6 567.1,71.1 569.1,71.2 C570.9,71.3 572.8,72 573.9,75.3 C574,74.9 574,74.5 574,74.1 C573.9,73.7 573.7,73.3 573.6,72.8 C577.9,70.6 581.3,67.7 584,64 Z M582.4,44 L582.5,43.9 C581.2,42.8 580,41.8 578.7,40.7 C578.3,40.3 577.8,39.9 577.6,39.4 C576.9,37.6 576.2,35.8 575.5,33.9 C575.3,33.3 575.2,32.6 575.3,32 C575.8,30.4 576.5,28.9 577.1,27.3 C577.6,25.9 578.2,24.5 578.7,23 C575.4,25.9 573.6,29.4 572.2,33.2 C575.8,34.8 575.5,38 575.9,40.6 C578.3,41.9 580.3,42.9 582.4,44 Z M578.6,33 C579.1,36.8 582.1,39.2 583.8,42.1 C583.7,41.5 583.4,40.8 583.1,40.3 C582.1,38.3 580.9,36.3 580.1,34.3 C579.5,32.7 579.2,30.9 578.8,29.1 C578.2,30.3 577.7,31.3 577.2,32.3 C576.8,33 576.7,33.6 577.3,34.3 C577.6,33.9 578,33.6 578.6,33 Z M570.4,42.5 C571.4,40.4 571.9,38.2 574.1,36.8 C574,36.6 573.9,36.4 573.8,36.3 C573.6,36 573.3,35.7 573,35.4 C572.5,34.9 571.8,35 571.6,35.6 C570.8,37.8 570.4,40.1 570.4,42.5 Z M570.1,7.1 L567.8,7.1 C567.5,9 567.3,10.8 567,12.3 C568.7,11.1 568,8.5 570.1,7.1 Z M566.6,8.4 C565.5,6.8 564.4,5.2 563.3,3.6 C563.2,5.5 564.3,7.2 566.6,8.4 Z M570.8,11.3 C570.6,9.7 571.6,8.8 573.1,8.4 C573.3,8.3 573.4,8.3 573.6,8.2 C570.1,8.7 570.1,8.7 570.8,11.3 Z M566,6.2 C566,6.3 566,6.4 566.1,6.5 C567.8,6.3 569.5,6 571.2,5.8 C569.4,5.6 567.6,5.5 566,6.2 Z" id="Shape"></path>
            </g>
        </g>
    </g>
</svg>