<svg xmlns="http://www.w3.org/2000/svg" viewBox="0 0 43.034 43.034">
  <defs>
    <style>
      .cls-1 {
        fill: #bda7b4;
      }

      .cls-2 {
        fill: #312c22;
      }

      .cls-3 {
        fill: #fdd6b4;
      }
    </style>
  </defs>
  <g id="icon" transform="translate(0 0)">
    <path id="Path_88" data-name="Path 88" class="cls-1" d="M64.152,60.369c-.31.359-.663.675-1,1.02s-.612.726-.966,1.056-.749.575-1.124.891-.757.582-1.124.884-.641.733-1.023,1.013a11.9,11.9,0,0,1-1.254.7,7.438,7.438,0,0,1-1.275.5,12.225,12.225,0,0,1-1.29.5c-.447.093-.937,0-1.383.086-.375.072-.728.208-1.1.273s-.742.165-1.117.223-.749.136-1.124.18-.757,0-1.138.022c-.4.022-.807-.036-1.2-.043s-.807.014-1.2-.029S46,67.674,45.6,67.6s-.749-.338-1.138-.431-.785-.165-1.167-.295-.771-.223-1.146-.366S41.367,66.3,41,66.137c-.4-.18-.749-.438-1.138-.632s-.821-.309-1.2-.517-.656-.589-1.023-.819-.742-.438-1.088-.7-.749-.453-1.074-.74-.526-.69-.821-1.006c-.252-.273-.62-.445-.865-.733s-.382-.654-.612-.948-.468-.582-.685-.884-.519-.553-.728-.855a12.3,12.3,0,0,1-.685-1.078c-.209-.374-.346-.776-.519-1.164s-.353-.769-.5-1.171-.223-.819-.339-1.221-.346-.783-.447-1.2-.108-.84-.187-1.264-.18-.826-.245-1.25c-.058-.4.007-.8-.022-1.207s-.13-.79-.13-1.2.05-.8.079-1.2.122-.79.173-1.192.1-.79.173-1.185.086-.8.173-1.192.173-.79.288-1.171.3-.754.425-1.128c.151-.424.267-.855.447-1.264s.317-.84.526-1.243.461-.769.7-1.157.5-.747.757-1.113.54-.718.829-1.063.649-.618.958-.941.627-.639.958-.934c.31-.273.555-.618.879-.869s.728-.4,1.074-.625.663-.488,1.023-.69.721-.4,1.1-.575.764-.309,1.146-.467.757-.309,1.153-.445.785-.338,1.189-.467.829-.208,1.239-.316.814-.244,1.232-.33.85-.072,1.275-.136.829-.251,1.254-.28.857-.014,1.283-.014c.4,0,.814-.007,1.218.022s.793.2,1.2.251.8.086,1.2.165.807.093,1.2.187.764.266,1.153.388.764.259,1.146.4.793.216,1.16.381.677.46,1.03.654.778.266,1.124.481.677.445,1.009.682.562.6.872.855.713.417,1.009.69.612.589.9.891.5.69.764,1.013.54.647.785.984.584.625.807.977.418.733.627,1.1.411.74.6,1.121.2.833.36,1.221.418.74.548,1.142.166.826.274,1.236.187.812.274,1.228.281.8.339,1.221.166.848.195,1.272,0,.855,0,1.286.007.855-.014,1.286-.173.84-.223,1.264-.13.84-.209,1.257-.173.833-.274,1.243-.187.826-.317,1.236-.122.862-.274,1.257-.49.726-.663,1.106-.245.833-.447,1.207-.454.726-.685,1.085-.432.74-.685,1.085S64.433,60.045,64.152,60.369Z" transform="translate(-26.632 -25.583)"/>
    <path id="Path_89" data-name="Path 89" class="cls-2" d="M42.989,21.556c0-.4-.029-.8-.05-1.2s-.014-.84-.058-1.25-.195-.812-.267-1.221-.086-.833-.187-1.236-.166-.819-.288-1.221-.418-.74-.555-1.128-.216-.8-.382-1.192-.3-.783-.476-1.157-.519-.668-.728-1.027-.267-.812-.5-1.157-.519-.654-.764-.991-.533-.639-.793-.963-.555-.618-.843-.92-.54-.675-.85-.97-.591-.632-.922-.905-.7-.5-1.045-.761-.771-.388-1.138-.618-.634-.611-1.009-.819-.778-.374-1.167-.553-.8-.323-1.2-.488-.836-.208-1.247-.345-.793-.338-1.2-.453-.85-.115-1.275-.2S25.234.436,24.809.371,23.952.3,23.519.264s-.9.036-1.347.029-.9-.144-1.347-.122-.886.216-1.333.273-.908-.007-1.355.072-.879.18-1.319.287-.843.316-1.275.445-.85.28-1.275.424-.872.237-1.283.4-.821.359-1.232.546-.836.338-1.232.546-.721.546-1.1.79-.785.431-1.146.7c-.331.251-.634.539-.951.812s-.7.474-.994.769-.526.661-.807.97-.576.6-.843.927-.562.625-.8.97-.468.7-.685,1.056-.367.754-.562,1.121-.36.754-.533,1.135-.389.74-.533,1.135-.238.8-.353,1.2-.166.812-.267,1.221-.209.8-.281,1.221a.742.742,0,0,0-.079.151,12.475,12.475,0,0,0-.3,1.322c-.079.445-.216.891-.252,1.343S0,20.909,0,21.362s.137.905.173,1.358-.022.912.043,1.365c.05.374.173.74.238,1.113s.144.74.223,1.113.122.747.209,1.113c.1.438.231.869.367,1.279s.36.819.526,1.221.324.826.533,1.214.461.754.692,1.135.4.8.656,1.164.627.632.9.991.512.711.793,1.063c.259.323.54.611.814.912s.468.69.764.97.627.532.944.79.685.453,1.016.69.641.51.987.733.7.424,1.059.625.764.3,1.131.481.713.481,1.1.654.836.208,1.225.366.785.309,1.189.445.764.4,1.175.517.857.072,1.275.151.829.144,1.254.187.836.172,1.261.187c.4.007.8-.007,1.2-.029s.785-.158,1.182-.2.793-.057,1.182-.115.785-.129,1.175-.194.793.036,1.182-.029.749-.244,1.131-.323.785-.065,1.167-.165.764-.194,1.131-.33a7.483,7.483,0,0,0,1.066-.618,11.9,11.9,0,0,0,1.009-.69c.339-.23.692-.431,1.016-.682s.634-.517.951-.769.706-.424,1.009-.682.634-.517.93-.783.605-.546.894-.826.555-.589.829-.884.432-.7.692-1.006.656-.51.894-.84.346-.74.569-1.085.447-.668.641-1.027.317-.733.49-1.106.418-.69.562-1.063.331-.733.454-1.113.065-.819.173-1.2.274-.754.36-1.142.122-.79.187-1.185.238-.776.281-1.171.115-.8.137-1.2C43.046,22.361,42.989,21.951,42.989,21.556Zm-1.4,1.135c-.022.424-.173.84-.223,1.264s-.13.84-.209,1.257-.173.833-.274,1.243-.187.826-.317,1.236-.122.862-.274,1.257-.49.726-.663,1.106-.245.833-.447,1.207-.454.726-.685,1.085-.432.74-.685,1.085-.584.625-.865.948c-.31.359-.663.675-1,1.02s-.612.726-.966,1.056-.749.575-1.124.891-.757.582-1.124.884-.641.733-1.023,1.013a11.9,11.9,0,0,1-1.254.7,7.437,7.437,0,0,1-1.275.5,12.224,12.224,0,0,1-1.29.5c-.447.093-.937,0-1.383.086-.375.072-.728.208-1.1.273s-.742.165-1.117.223-.749.136-1.124.18-.757,0-1.138.022c-.4.022-.807-.036-1.2-.043s-.807.014-1.2-.029-.821.036-1.218-.036-.749-.338-1.138-.431-.785-.165-1.167-.295-.771-.223-1.146-.366-.785-.208-1.153-.374c-.4-.18-.749-.438-1.138-.632s-.821-.309-1.2-.517-.656-.589-1.023-.819-.742-.438-1.088-.7-.749-.453-1.074-.74-.526-.69-.821-1.006c-.252-.273-.62-.445-.865-.733s-.382-.654-.612-.948-.468-.582-.685-.884-.519-.553-.728-.855a12.3,12.3,0,0,1-.685-1.078c-.209-.374-.346-.776-.519-1.164s-.353-.769-.5-1.171-.223-.819-.339-1.221-.346-.783-.447-1.2-.108-.84-.187-1.264-.18-.826-.245-1.25c-.058-.4.007-.8-.022-1.207s-.13-.79-.13-1.2.05-.8.079-1.2.122-.79.173-1.192.1-.79.173-1.185.086-.8.173-1.192.173-.79.288-1.171.3-.754.425-1.128c.151-.424.267-.855.447-1.264s.317-.84.526-1.243.461-.769.7-1.157.5-.747.757-1.113.54-.718.829-1.063.649-.618.958-.941.627-.639.958-.934c.31-.273.555-.618.879-.869s.728-.4,1.074-.625S10.6,4.8,10.96,4.6s.721-.4,1.1-.575.764-.309,1.146-.467.757-.309,1.153-.445.785-.338,1.189-.467.829-.208,1.239-.316.814-.244,1.232-.33.85-.072,1.275-.136.829-.251,1.254-.28.857-.014,1.283-.014c.4,0,.814-.007,1.218.022s.793.2,1.2.251.8.086,1.2.165.807.093,1.2.187.764.266,1.153.388.764.259,1.146.4.793.216,1.16.381.677.46,1.03.654.778.266,1.124.481.677.445,1.009.682.562.6.872.855.713.417,1.009.69.612.589.9.891.5.69.764,1.013.54.647.785.984.584.625.807.977.418.733.627,1.1.411.74.6,1.121.2.833.36,1.221.418.74.548,1.142.166.826.274,1.236.187.812.274,1.228.281.8.339,1.221.166.848.195,1.272,0,.855,0,1.286S41.62,22.267,41.591,22.691Z" transform="translate(0 -0.168)"/>
    <path id="Path_101" data-name="Path 101" class="cls-3" d="M141.867,292.748c-.014-.323.267-.711.288-1.056a3.322,3.322,0,0,0-.49-1.659,7.2,7.2,0,0,1-.44-1.2,2.32,2.32,0,0,1-.014-1.236c.144-.553.389-.79.7-.8a.707.707,0,0,0,.483.18h.022a5.149,5.149,0,0,1,.785.855.007.007,0,0,0,.007.007c0,.1-.007.194-.014.295-.022.352.058.725.05,1.1s-.108.726-.137,1.085c-.065.819-.223,1.573-.324,2.378-.029.244-.065.5-.079.74-.137-.014-.267-.036-.382-.057C142.069,293.323,141.889,293.172,141.867,292.748Z" transform="translate(-130.965 -266.209)"/>
    <path id="Path_102" data-name="Path 102" class="cls-3" d="M197.973,197.238c-.159.33-.231.7-.411,1.02s-.476.568-.67.876-.3.682-.49.984-.418.6-.612.912c-.173.28-.3.647-.49.991a9.806,9.806,0,0,1-.641.905,3.768,3.768,0,0,1-.8.754,1.819,1.819,0,0,1-.966.467,5.886,5.886,0,0,1-1.066-.014,7.458,7.458,0,0,0-1.059.029c-.4.014-.814-.129-1.218-.136s-.814.057-1.218.022-.663-.4-.973-.747-.677-.618-.937-.855a12,12,0,0,0-.937-.783c-.324-.244-.627-.524-.944-.783a5.448,5.448,0,0,1-1.585-1.947,9.695,9.695,0,0,1-.857-2.457,5.468,5.468,0,0,1-.022-.97,9.2,9.2,0,0,1-.086-.991c.1-.79.425-1.559.5-2.356a11.3,11.3,0,0,0,.014-1.307c-.007-.345-.094-.7-.086-1.063s.108-.7.13-1.056-.043-.711-.022-1.063.166-.7.173-1.056c.014-.381-.043-.769,0-1.142a8.321,8.321,0,0,1,.216-1.121,6.075,6.075,0,0,1,.375-1.07,4.927,4.927,0,0,1,.6-.955,3.561,3.561,0,0,1,.879-.912,2.783,2.783,0,0,1,1.189-.424,3.864,3.864,0,0,1,1.3-.065c.331.065.648.244.987.295a6.865,6.865,0,0,1,1.023.122,6.462,6.462,0,0,0,1.146.208,4.416,4.416,0,0,0,1.153,0,10.829,10.829,0,0,0,1.369-.194,6.665,6.665,0,0,1,1.362-.23,4.283,4.283,0,0,1,1.175.093,4.774,4.774,0,0,1,1.138.359,5.194,5.194,0,0,1,.994.682,4.4,4.4,0,0,1,.821,1.034,4.574,4.574,0,0,1,.346,1.257,6.168,6.168,0,0,1,.108,1.279c.007.374.173.754.18,1.142s-.029.761-.029,1.149-.115.761-.13,1.142-.05.761-.1,1.135c-.05.4-.014.8-.058,1.207s-.036.8-.065,1.2-.022.8-.036,1.2-.058.761-.072,1.106v.036a.771.771,0,0,0-.05.568c-.022.172-.05.338-.086.51A6.185,6.185,0,0,1,197.973,197.238Z" transform="translate(-168.87 -167.905)"/>
    <path id="Path_103" data-name="Path 103" class="cls-3" d="M431.853,287.788a3.148,3.148,0,0,1-.223,1.1c-.151.338-.375.654-.526.984a7.362,7.362,0,0,0-.375.8,4.81,4.81,0,0,0-.3.855,5.209,5.209,0,0,1-.065,1.149c-.079.345-.209.647-.375.7a.779.779,0,0,0,.007-.129c.022-.431-.094-.869-.094-1.315s-.007-.869.029-1.315c.029-.338.086-.675.137-1.013s.151-.718.2-1.1c.043-.359.151-.726.187-1.106a1.562,1.562,0,0,0-.014-.366,1.86,1.86,0,0,1,.893-.223C431.673,286.868,431.9,287.184,431.853,287.788Z" transform="translate(-398.923 -266.22)"/>
    <path id="Path_104" data-name="Path 104" class="cls-2" d="M146.35,89.912a1.663,1.663,0,0,0-.98-.618h-.014c.036-.251.094-.5.115-.74.036-.366.1-.726.166-1.092s.115-.726.187-1.092.115-.726.18-1.092.086-.733.13-1.1.058-.733.065-1.1c0-.079.115-.129.094-.194a.739.739,0,0,0-.1-.546c-.195-.316-.533-.532-.742-.833s-.411-.6-.634-.9-.447-.618-.692-.9c.346-.359.886-.747.879-1.25a.686.686,0,0,0-.375-.553,8.627,8.627,0,0,0-1.362-.445,12.2,12.2,0,0,1-1.5-.582c.029-.043.086-.158.115-.2a.621.621,0,0,0-.4-.927,12.789,12.789,0,0,0-1.268-.172,10.823,10.823,0,0,0-1.275-.057,12.721,12.721,0,0,0-1.275.108,11.1,11.1,0,0,0-1.247.28,12.71,12.71,0,0,0-1.232.366.807.807,0,0,0-.288-.661,1.471,1.471,0,0,0-1.549-.144c-.375.122-.778.187-1.175.309s-.778.223-1.167.345-.735.366-1.117.5-.764.273-1.131.438-.713.374-1.066.568a8.821,8.821,0,0,0-1.045.611,6.967,6.967,0,0,0-.937.776,5.949,5.949,0,0,0-.67,1.02,8.459,8.459,0,0,1-.656.905c-.231.295-.461.589-.685.891a5.472,5.472,0,0,0-.54.984,2.962,2.962,0,0,0-.216,1.078,7.678,7.678,0,0,0-.014,1c.022.33.058.668.1,1s-.065.682-.043,1.013c.022.352.223.69.238,1.042s-.007.7.007,1.056v.208a1.508,1.508,0,0,0-.742.129,1.973,1.973,0,0,0-.843.819,3,3,0,0,0-.425,1.106,4.3,4.3,0,0,0,.108,1.178,4.506,4.506,0,0,0,.324.984,10.06,10.06,0,0,0,.3,1.006,1.727,1.727,0,0,1,.238,1.386,2.926,2.926,0,0,0-.209,1.049,1.686,1.686,0,0,0,.454,1.07,2.4,2.4,0,0,0,1.11.338c.216.043.425.086.641.115,0,.036.007.079.007.115a7.976,7.976,0,0,0,.259,1.106,8.977,8.977,0,0,0,.353,1.078,9.814,9.814,0,0,0,.62.955,8.946,8.946,0,0,0,.519,1.013,9.413,9.413,0,0,0,.821.783,8.428,8.428,0,0,0,.894.69c.324.244.634.517.937.783s.533.625.829.9.584.56.886.833a2.979,2.979,0,0,0,.958.568,3.363,3.363,0,0,0,1.1.129c.36.014.728-.022,1.11-.036.36-.014.742-.022,1.124,0,.1.007.187.136.288.144.209.014.411.057.62.072.353.022.706-.108,1.059-.086a1.825,1.825,0,0,0,1.131-.18,3.634,3.634,0,0,0,.93-.754c.3-.359.6-.733.865-1.113s.454-.826.706-1.221c.195-.3.353-.632.548-.934s.36-.625.555-.927.411-.6.591-.905.36-.625.533-.941.411-.6.555-.934a4.4,4.4,0,0,0,.245-1.078,1.778,1.778,0,0,0,.922-.23,1.906,1.906,0,0,0,.728-.69,2.541,2.541,0,0,0,.331-.855c.058-.3.072-.611.1-.912a4.689,4.689,0,0,1,.252-1.264c.151-.388.389-.74.576-1.149a6.735,6.735,0,0,0,.346-1.135,3.581,3.581,0,0,0,.245-1.164A2.019,2.019,0,0,0,146.35,89.912Zm-21.588,3.032c-.014.366-.108.726-.137,1.085-.065.819-.223,1.573-.324,2.378-.029.244-.065.5-.079.74-.137-.014-.267-.036-.382-.057-.259-.057-.44-.208-.461-.632-.014-.323.267-.711.288-1.056a3.322,3.322,0,0,0-.49-1.659,7.2,7.2,0,0,1-.44-1.2,2.32,2.32,0,0,1-.014-1.236c.144-.553.389-.79.7-.8a.707.707,0,0,0,.483.18h.022a5.148,5.148,0,0,1,.785.855.007.007,0,0,0,.007.007c0,.1-.007.194-.014.295C124.689,92.2,124.776,92.577,124.762,92.943Zm17.877-2.794c0,.381-.115.761-.13,1.142s-.05.761-.1,1.135c-.05.4-.014.8-.058,1.207s-.036.8-.065,1.2-.022.8-.036,1.2-.058.761-.072,1.106v.036a.771.771,0,0,0-.05.568c-.022.172-.05.338-.086.51a4.893,4.893,0,0,1-.447,1.013c-.159.33-.231.7-.411,1.02s-.476.568-.67.876-.3.682-.49.984-.418.6-.612.912c-.173.28-.3.647-.49.991a9.811,9.811,0,0,1-.641.905,3.768,3.768,0,0,1-.8.754,1.819,1.819,0,0,1-.966.467,5.887,5.887,0,0,1-1.066-.014,7.456,7.456,0,0,0-1.059.029c-.4.014-.814-.129-1.218-.136s-.814.057-1.218.022-.663-.4-.973-.747-.677-.618-.937-.855a12,12,0,0,0-.937-.783c-.324-.244-.627-.524-.944-.783a5.448,5.448,0,0,1-1.585-1.947,9.7,9.7,0,0,1-.857-2.457,5.468,5.468,0,0,1-.022-.97,9.2,9.2,0,0,1-.086-.991c.1-.79.425-1.559.5-2.356a11.3,11.3,0,0,0,.014-1.307c-.007-.345-.094-.7-.086-1.063s.108-.7.13-1.056-.043-.711-.022-1.063.166-.7.173-1.056c.014-.381-.043-.769,0-1.142a8.318,8.318,0,0,1,.216-1.121,6.076,6.076,0,0,1,.375-1.07,4.927,4.927,0,0,1,.6-.955,3.561,3.561,0,0,1,.879-.912,2.783,2.783,0,0,1,1.189-.424,3.865,3.865,0,0,1,1.3-.065c.331.065.649.244.987.295a6.864,6.864,0,0,1,1.023.122,6.461,6.461,0,0,0,1.146.208,4.416,4.416,0,0,0,1.153,0,10.827,10.827,0,0,0,1.369-.194,6.663,6.663,0,0,1,1.362-.23,4.283,4.283,0,0,1,1.175.093,4.774,4.774,0,0,1,1.138.359,5.192,5.192,0,0,1,.994.682,4.4,4.4,0,0,1,.821,1.034,4.574,4.574,0,0,1,.346,1.257,6.17,6.17,0,0,1,.108,1.279c.007.374.173.754.18,1.142S142.632,89.761,142.639,90.149Zm2.767,1.343a3.148,3.148,0,0,1-.223,1.1c-.151.338-.375.654-.526.984a7.36,7.36,0,0,0-.375.8,4.809,4.809,0,0,0-.3.855,5.209,5.209,0,0,1-.065,1.149c-.079.345-.209.647-.375.7a.779.779,0,0,0,.007-.129c.022-.431-.094-.869-.094-1.315s-.007-.869.029-1.315c.029-.338.086-.675.137-1.013s.151-.718.2-1.1c.043-.359.151-.726.187-1.106a1.561,1.561,0,0,0-.014-.366,1.861,1.861,0,0,1,.894-.223C145.226,90.572,145.449,90.889,145.406,91.492Z" transform="translate(-112.476 -69.924)"/>
    <path id="Path_105" data-name="Path 105" class="cls-2" d="M328.851,486.3a.284.284,0,0,0,0,.568A.284.284,0,0,0,328.851,486.3Z" transform="translate(-304.899 -451.378)"/>
    <path id="Path_106" data-name="Path 106" class="cls-2" d="M273.448,462.783c-.108-.108-.3-.18-.4-.072a.367.367,0,0,0,.014.46c.014.014,0,.065.014.079a.412.412,0,0,0,.49-.014.332.332,0,0,0-.05-.431C273.5,462.776,273.477,462.8,273.448,462.783Z" transform="translate(-253.301 -429.434)"/>
    <path id="Path_107" data-name="Path 107" class="cls-2" d="M303.156,462.744c0-.022-.022-.022-.022-.05,0-.151-.166-.208-.324-.2s-.274.043-.274.2c0,.022-.036.022-.036.05a.267.267,0,0,0,.3.237C302.961,462.974,303.156,462.9,303.156,462.744Z" transform="translate(-280.703 -429.28)"/>
    <path id="Path_108" data-name="Path 108" class="cls-2" d="M323.727,462.446c.108-.108.022-.33-.086-.438s-.31-.18-.425-.065c-.014.014,0,.065-.014.079a.3.3,0,0,0,.418.417C323.641,462.418,323.713,462.461,323.727,462.446Z" transform="translate(-299.841 -428.717)"/>
    <path id="Path_109" data-name="Path 109" class="cls-2" d="M310.551,480.2c-.367,0-.367.668,0,.668S310.911,480.2,310.551,480.2Z" transform="translate(-287.918 -445.716)"/>
    <path id="Path_110" data-name="Path 110" class="cls-2" d="M289.551,477.9a.256.256,0,1,0,0,.51A.256.256,0,1,0,289.551,477.9Z" transform="translate(-268.431 -443.581)"/>
    <path id="Path_111" data-name="Path 111" class="cls-2" d="M267.251,484.9c-.367,0-.367.639,0,.639S267.611,484.9,267.251,484.9Z" transform="translate(-247.738 -450.078)"/>
    <path id="Path_112" data-name="Path 112" class="cls-2" d="M2.9,1.7a3.576,3.576,0,0,1,1.031.576c.281.259.469.611.764.733A1.4,1.4,0,0,0,5.742,2.9a1.779,1.779,0,0,0,.475-.258.521.521,0,0,0,.2-.474c-.036-.18-.26-.4-.425-.324-.05.022-.086.108-.137.136a.6.6,0,0,1-.612-.015c-.526-.288-.671-.927-1.132-1.28A3.875,3.875,0,0,0,2.981.128,2.344,2.344,0,0,0,1.727.055,6.294,6.294,0,0,0,.453.809c-.288.215-.526.373-.432.582s.36.122.576.087a6.137,6.137,0,0,1,1.174.044A2.716,2.716,0,0,1,2.9,1.7Z" transform="matrix(0.966, -0.259, 0.259, 0.966, 14.334, 19.644)"/>
    <path id="Path_113" data-name="Path 113" class="cls-2" d="M6.055.695C6.033.681,6,.666,5.982.652a4.017,4.017,0,0,0-1-.552A3.678,3.678,0,0,0,3.829.014,3.112,3.112,0,0,0,2.741.389a2.507,2.507,0,0,0-.836.748c-.325.424-.577.963-1.233.827a2.739,2.739,0,0,0-.389-.129c-.648-.028-.022,1.056.287,1.2a1.112,1.112,0,0,0,.994-.13,3.985,3.985,0,0,0,.829-.64,5.316,5.316,0,0,1,.915-.547,2.6,2.6,0,0,1,.966-.374,2.362,2.362,0,0,1,.951.093,2.028,2.028,0,0,0,.958.157.629.629,0,0,0,.324-.137c.1-.122-.014-.345-.093-.481A1.058,1.058,0,0,0,6.055.695Z" transform="matrix(0.966, 0.259, -0.259, 0.966, 23.173, 17.986)"/>
    <path id="Path_114" data-name="Path 114" class="cls-2" d="M7.386,1.724c.231-.014.115-.632-.151-.97A2.25,2.25,0,0,0,5.808.029C5.476,0,5.123,0,4.77,0c-.317,0-.62.05-.93.072S3.207.007,2.882,0c-.353,0-.706,0-1.038.029A2.25,2.25,0,0,0,.418.754,1.978,1.978,0,0,0,0,1.94c-.007.345.3.417.512.194.238-.244.267-.589.605-.776A2.477,2.477,0,0,1,2.1,1.214c.44-.036.865-.086,1.3-.115a11.612,11.612,0,0,1,1.225,0c.216.007.432.014.649.029a3.5,3.5,0,0,1,1.254.23S7.141,1.76,7.386,1.724Z" transform="translate(25.488 32.126) rotate(180)"/>
    <path id="Path_115" data-name="Path 115" class="cls-2" d="M268.922,329.731a.276.276,0,0,0-.339.137c-.173.345-.238.754-.4,1.092-.13.259-.31.5-.418.769-.122.323-.173.675-.3,1a1.93,1.93,0,0,0-.166,1.1c.065.251.007.524.209.726a1.9,1.9,0,0,0,.685.309c.151.057.3.115.447.158a2.254,2.254,0,0,0,.317.065c.216.029.533-.021.468-.338a.706.706,0,0,0-.331-.4c-.058-.043-.122-.079-.166-.108a2.391,2.391,0,0,1-.331-.273,1,1,0,0,1-.274-.388c-.123-.323.086-.754.173-1.063.094-.338.195-.675.281-1.013s.238-.661.324-1a1.248,1.248,0,0,0,.022-.726C269.095,329.71,268.987,329.753,268.922,329.731Z" transform="translate(-248.011 -306.044)"/>
    <path id="Path_116" data-name="Path 116" class="cls-2" d="M305.323,336.629a.53.53,0,0,0,.231.065,2.249,2.249,0,0,0,1-.036,1.219,1.219,0,0,0,.656-.517,1.349,1.349,0,0,0,.151-.9,4.069,4.069,0,0,0-.13-.948c-.036-.1-.029-.23-.058-.345a11.721,11.721,0,0,0-.389-1.379,1.778,1.778,0,0,0-.879-.97.563.563,0,0,0-.159.51,2.274,2.274,0,0,0,.058.625c.094.309.259.589.339.905s.115.647.173.97a1.284,1.284,0,0,1-.742,1.394,2.139,2.139,0,0,0-.252.194.327.327,0,0,0-.122.208.3.3,0,0,0,.022.115A.288.288,0,0,0,305.323,336.629Z" transform="translate(-283.208 -307.791)"/>
    <path id="Path_117" data-name="Path 117" class="cls-2" d="M221.968,312.008a1.741,1.741,0,0,0-.3-1.042.691.691,0,0,0-.735-.316.7.7,0,0,0-.634.517,1.928,1.928,0,0,0-.007,1.193.964.964,0,0,0,1.081.582A.994.994,0,0,0,221.968,312.008Z" transform="translate(-204.328 -288.336)"/>
    <path id="Path_118" data-name="Path 118" class="cls-2" d="M361.537,309.8a.916.916,0,0,0-1.275.1,2.007,2.007,0,0,0-.13,1.135.894.894,0,0,0,.591.862.786.786,0,0,0,.944-.553,1.742,1.742,0,0,0,.151-1.149A.677.677,0,0,0,361.537,309.8Z" transform="translate(-334.163 -287.358)"/>
  </g>
</svg>
