<svg xmlns="http://www.w3.org/2000/svg" viewBox="0 0 160 43.034"><defs><style>.a{fill:#312c22;}.b{fill:#bda7b4;}.c{fill:#fdd6b4;}</style></defs><g transform="translate(-800 -50)"><g transform="translate(865.353 55.225)"><path class="a" d="M39.444,632.491a3.427,3.427,0,0,1-.07-1.459c0-.123.018-.211.018-.334-.018-.808,0-1.617.035-2.408v-.3c0-.369-.018-.721-.018-1.107,0-.07-.018-.176-.018-.264-.228-1.828-.228-3.638-.334-5.483,0-.633,0-1.74-.773-2h-.211a1.483,1.483,0,0,0-.211.07h-.228a1.767,1.767,0,0,1-.439-.053,1,1,0,0,0-.228-.018.828.828,0,0,0-.457.176.69.69,0,0,1-.123.088.837.837,0,0,0-.58.668,1,1,0,0,0-.018.228,8.779,8.779,0,0,0,.193,2.636c0,.088.018.176.018.246.035.58.053.773.053,1.336h-.211a.706.706,0,0,0-.65,0A.938.938,0,0,0,35,624.6a2.763,2.763,0,0,1-1.986.351c-.457-.158-.158-.685-.018-1.177.018-.07.035-.176.053-.264a17.308,17.308,0,0,1-.246-3.128,1.547,1.547,0,0,0-.088-.264,2.187,2.187,0,0,0-.65-.9,1.161,1.161,0,0,0-.264-.088,1.775,1.775,0,0,0-.334-.035,1.5,1.5,0,0,1-.281,0,1.731,1.731,0,0,1-.3.035c-.193.018-.387.053-.6.07a1.748,1.748,0,0,0-.351.193,1.043,1.043,0,0,0-.457,1.16,1.991,1.991,0,0,1,.07.264,3.015,3.015,0,0,1,.07.773v.4a1.7,1.7,0,0,1-.018.3v.334c0,.492,0,1-.018,1.511v.281c.018,1.511.035,3.04.018,4.587v.352a6.658,6.658,0,0,1-.035,2.284v.264c-.018.369-.018.721-.018,1.072.018.088.035.176.053.246a1.215,1.215,0,0,0,.668.984,1.654,1.654,0,0,0,.826-.053c.07,0,.158-.017.228-.017a1.376,1.376,0,0,1,.457.07,1,1,0,0,0,.228.018.742.742,0,0,0,.457-.193,1.031,1.031,0,0,1,.088-.07c.721-.211.633-1.037.6-1.634,0-.088-.018-.211-.018-.3-.018-.281-.053-.58-.07-.843,0-.088-.018-.193-.018-.281-.018-.088-.018-.176-.035-.264,0-.07-.018-.176-.018-.246-.018-.088-.035-.176-.053-.246a1.024,1.024,0,0,1,.668-1.371,1.733,1.733,0,0,1,.281-.088c.668-.123,1.318-.668,1.951-.211A1.392,1.392,0,0,1,36.07,630c.018.07.018.158.035.228a5.282,5.282,0,0,1,.193,1.09c0,.457-.457.914-.228,1.494a1.649,1.649,0,0,0,.07.281,1.368,1.368,0,0,0,1.353,1.195c.088,0,.193-.018.281-.018s.193-.018.281-.018c.193-.035.4-.053.615-.07.053-.018.123-.053.176-.07a1.392,1.392,0,0,0,.615-1.3A.811.811,0,0,0,39.444,632.491Z" transform="translate(-29.393 -618.817)"/><path class="a" d="M157.016,624.431a17.926,17.926,0,0,1-1.037-2.706,7.6,7.6,0,0,0-1.318-3.321,4.6,4.6,0,0,0-.439-.387,2.788,2.788,0,0,0-1.915-.51,2.871,2.871,0,0,0-1.617.826,4.712,4.712,0,0,0-1.2,2.706c-.123,1-.07,1.986-.123,3.005-.088,2.619-1.9,5.167-1.107,7.873a2.1,2.1,0,0,0,.3.668.956.956,0,0,0,.633.281,4.607,4.607,0,0,0,1.617.158,1.641,1.641,0,0,0,1.318-.808,3.594,3.594,0,0,0,.281-1.23,1.112,1.112,0,0,1,.756-.931,1.09,1.09,0,0,1,1.054.7,7.3,7.3,0,0,0,.562,1.248,1.766,1.766,0,0,0,2.074.474,2.78,2.78,0,0,0,1.459-1.652,5.5,5.5,0,0,0-.018-3.321A24.261,24.261,0,0,0,157.016,624.431Zm-3.128.51a1.9,1.9,0,0,1-1.792-.439,1.066,1.066,0,0,1-.264-.527c.018-.281.018-.58.018-.861,0-1.142,1.529-.914,1.722-.527a7.489,7.489,0,0,1,.65,1.951A1,1,0,0,1,153.888,624.941Z" transform="translate(-127.177 -617.487)"/><path class="a" d="M279.185,620.277a1.913,1.913,0,0,0-.141-.264c-.264-.4-.615-.756-.879-1.107a1.013,1.013,0,0,0-.141-.158,1.227,1.227,0,0,1-.176-.141,1.45,1.45,0,0,0-.228-.123c-.053-.035-.123-.07-.193-.123a5.274,5.274,0,0,0-.633-.246c-.07-.018-.176-.035-.246-.053a10.538,10.538,0,0,0-1.951-.228c-.088-.018-.193-.018-.281-.035a7.04,7.04,0,0,0-1.74-.281,1.512,1.512,0,0,1-.281-.018,1.7,1.7,0,0,0-.773.211,1.223,1.223,0,0,0-.246.141c-.193.141-.4.281-.6.422-.07.053-.141.123-.211.176-1.3,2.267-1.107,4.921-.984,7.451v.246a18.038,18.038,0,0,0,.123,2.372c0,.088-.018.211-.018.3-.018.914-.053,1.845-.053,2.741.018.07.035.176.053.246a1.241,1.241,0,0,0,.668.984,1.677,1.677,0,0,0,.826-.07h.228a2.026,2.026,0,0,1,.457.053,1,1,0,0,0,.228.018.828.828,0,0,0,.457-.176.3.3,0,0,1,.088-.088c.7-.193.633-1.019.6-1.617,0-.123-.018-.228-.018-.334-.018-.281-.053-.562-.07-.843,0-.088-.018-.193-.018-.281-.035-.211-.053-.439-.07-.668a1,1,0,0,1-.018-.228c-.018-.439-.193-1,.176-1.16a3.8,3.8,0,0,1,.791-.51,1.051,1.051,0,0,0,.281-.141c1.406-.826,2.952-1.546,3.8-2.935a.135.135,0,0,0-.018.053c.176-.422.633-.791.721-1.283.035-.088.053-.176.088-.246a4.2,4.2,0,0,0,.474-1.792A.737.737,0,0,0,279.185,620.277Zm-3.849,1.388c-.018.018-.035.018-.053.035-.018.264-.334.422-.422.615-.035.035-.088.07-.141.123-.035.053-.07.088-.123.158l-.176.176a4.748,4.748,0,0,1-.545.351.338.338,0,0,1-.176.053,1.419,1.419,0,0,1-.545,0,.668.668,0,0,1-.088-.264c-.018-.088-.035-.193-.053-.264a.71.71,0,0,1,0-.193V620.7c0-.053-.018-.088-.018-.141h.334c.141,0,.264-.035.4-.035a.925.925,0,0,1,.211-.018,3.553,3.553,0,0,1,1.23.07A.791.791,0,0,1,275.337,621.665Z" transform="translate(-227.187 -617.498)"/><path class="a" d="M395.79,623.891a.136.136,0,0,0-.018.053c.176-.422.633-.791.721-1.283.035-.088.053-.176.088-.246a4.2,4.2,0,0,0,.474-1.792.651.651,0,0,0-.07-.246,1.913,1.913,0,0,0-.141-.264c-.264-.4-.615-.756-.879-1.107a1.012,1.012,0,0,0-.141-.158,1.227,1.227,0,0,1-.176-.141,1.446,1.446,0,0,0-.228-.123c-.053-.035-.123-.07-.193-.123a5.275,5.275,0,0,0-.633-.246c-.07-.018-.176-.035-.246-.053a10.543,10.543,0,0,0-1.951-.228c-.088-.018-.193-.018-.281-.035a7.037,7.037,0,0,0-1.74-.281,1.516,1.516,0,0,1-.281-.018,1.7,1.7,0,0,0-.773.211,1.219,1.219,0,0,0-.246.141c-.193.141-.4.281-.6.422-.07.053-.141.123-.211.176-1.3,2.267-1.107,4.921-.984,7.451v.246a18.04,18.04,0,0,0,.123,2.372c0,.088-.018.211-.018.3-.018.914-.053,1.845-.053,2.741.018.07.035.176.053.246a1.241,1.241,0,0,0,.668.984,1.678,1.678,0,0,0,.826-.07h.228a2.026,2.026,0,0,1,.457.053,1,1,0,0,0,.228.018.828.828,0,0,0,.457-.176.3.3,0,0,1,.088-.088c.7-.193.633-1.019.6-1.617,0-.123-.018-.228-.018-.334-.018-.281-.053-.562-.07-.843,0-.088-.018-.193-.018-.281-.035-.211-.053-.439-.07-.668a1,1,0,0,1-.018-.228c-.018-.439-.193-1,.176-1.16a3.793,3.793,0,0,1,.791-.51,1.051,1.051,0,0,0,.281-.141C393.4,626,394.947,625.262,395.79,623.891Zm-2.654-2.144c-.018.018-.035.018-.053.035-.018.264-.334.422-.422.615-.035.035-.088.07-.141.123-.035.053-.07.088-.123.158l-.176.176a4.771,4.771,0,0,1-.545.352.34.34,0,0,1-.176.053,1.419,1.419,0,0,1-.545,0,.669.669,0,0,1-.088-.264c-.018-.088-.035-.193-.053-.264a.709.709,0,0,1,0-.193v-1.757c0-.053-.018-.088-.018-.141h.334c.141,0,.264-.035.4-.035a.925.925,0,0,1,.211-.018,3.555,3.555,0,0,1,1.23.07A.791.791,0,0,1,393.137,621.747Z" transform="translate(-324.285 -617.58)"/><path class="a" d="M508.375,626.639a3.908,3.908,0,0,1,.51,2.671c-.018.668-.035,1.318-.053,1.968v.492c-.053.474-.422.931-.141,1.406.176.439.9.439,1.459.439h.281c1.459-.07,1.986-1.3,1.933-2.583a9.947,9.947,0,0,0-.123-1.423c-.07-.387-.193-.756-.228-1.125a3.72,3.72,0,0,1,.3-1.757A14.388,14.388,0,0,1,513,625.11c.65-1.019,1.564-1.529,1.915-2.776a9.978,9.978,0,0,1,.615-1.9c.123-.228.246-.439.351-.668a.853.853,0,0,0-.035-.633,1.561,1.561,0,0,0-1.125-.668,1.942,1.942,0,0,0-1.634.808,3,3,0,0,0-.176.246,10.049,10.049,0,0,1-1.74,2.548c-.053.053-.088.123-.141.176-.141.158-.264.334-.4.492l-.211-.369c-.07-.088-.141-.193-.193-.264-.158-.264-.334-.545-.492-.826a541.41,541.41,0,0,1-.246-.352,1.072,1.072,0,0,0-.123-.176,2.739,2.739,0,0,0-2.829-2.46c-.088.017-.193.053-.264.07a1.14,1.14,0,0,0-.281.158c-.07.053-.176.123-.246.176-1.09.72-1.019,1.915-.246,2.917a1.231,1.231,0,0,0,.176.281,6.1,6.1,0,0,0,.615.756,1.262,1.262,0,0,0,.088.158,1.27,1.27,0,0,0,.088.158,15.074,15.074,0,0,1,1.037,1.775A12.262,12.262,0,0,0,508.375,626.639Z" transform="translate(-421.318 -618.149)"/><path class="a" d="M36.955,737.63c-.176-.158-.351-.334-.527-.492a1.656,1.656,0,0,1-.176-.176,3.656,3.656,0,0,1-.387-.351,1.762,1.762,0,0,0-.193-.176,4.594,4.594,0,0,1-.791-.58.756.756,0,0,1-.158-.176c-.07-.053-.105-.105-.176-.158-.562-.246-.791-.545-.808-.861a.72.72,0,0,1,.018-.193c.035-.07.07-.158.105-.228a1.8,1.8,0,0,0,.07-.246,1.223,1.223,0,0,0,.088-.228,7.287,7.287,0,0,1,.914-1.459,1.583,1.583,0,0,1,.158-.176,6.194,6.194,0,0,1,1.511-2.179,1.278,1.278,0,0,0,.158-.141.745.745,0,0,0,.228-.72c0-.3-.228-.844-.65-.861a.942.942,0,0,0-.228-.123,1.076,1.076,0,0,0-1.037.334,1.342,1.342,0,0,0-.158.158c-.562.65-.861,1.564-1.757,1.916a1.278,1.278,0,0,1-.158.141,4.887,4.887,0,0,0-.844.861c0-.316-.158-.545-.141-.844,0-.07-.018-.123-.018-.193-.228-.791.158-1.845-.58-2.337a.434.434,0,0,0-.158-.07.847.847,0,0,0-.387-.07h-.228c-.07.018-.176.018-.246.035-.158.018-.316.035-.492.07a1.136,1.136,0,0,0-.281.158.9.9,0,0,0-.387.966,1.139,1.139,0,0,1,.07.229c.018.07.018.105.035.176.018.053.018.105.035.158-.053,1.107-.035,2.249-.018,3.374v.246a4.537,4.537,0,0,1,.035,2.372v.229c0,.422-.018.861-.035,1.283v.211a3.555,3.555,0,0,1,0,1.142c0,.088-.018.158-.018.246-.018.07-.035.158-.053.228a1.4,1.4,0,0,0,1.669,1.318c.07.017.123.035.193.053a.712.712,0,0,0,.193,0,.746.746,0,0,0,.387-.141.39.39,0,0,1,.07-.088c.6-.158.527-.844.492-1.336,0-.088-.018-.176-.018-.264-.018-.228-.053-.457-.07-.7,0-.07-.018-.141-.018-.229a7.152,7.152,0,0,1-.088-.861l.158.158c.193.176.387.334.58.51.07.053.123.105.193.158.7.668,1.09,1.582,1.81,2.267a1.524,1.524,0,0,1,.141.176,1.059,1.059,0,0,0,.176.123,1.1,1.1,0,0,0,1,.264c.193-.141.422-.228.545-.474.053-.053.088-.07.141-.123a1.376,1.376,0,0,1,.351-.193,1.233,1.233,0,0,0,.158-.105.724.724,0,0,0,.228-.351.377.377,0,0,1,.018-.105c.387-.51-.141-.984-.492-1.336A1.649,1.649,0,0,0,36.955,737.63Z" transform="translate(-29.206 -708.579)"/><path class="a" d="M134.758,737.705a7.041,7.041,0,0,1-1.371-.281,3.252,3.252,0,0,1-1.23-.879.433.433,0,0,1,.3-.72,7.321,7.321,0,0,0,1.652-.123,1.4,1.4,0,0,0,.861-.966,1.662,1.662,0,0,0-.281-1.265.765.765,0,0,0-.756-.316h-.018l-1.986.017a4.311,4.311,0,0,0-.474-.017.159.159,0,0,1-.158-.193,1.516,1.516,0,0,1,.334-.721c.7-.791,1.845-.246,2.741-.58a1.542,1.542,0,0,0,.967-1.037,1.914,1.914,0,0,0-.316-1.406.918.918,0,0,0-.861-.351h-2.214a3.349,3.349,0,0,0-2.267.492,3.027,3.027,0,0,0-.861,1.617,12.04,12.04,0,0,0,.773,8.136A3.743,3.743,0,0,0,130.7,740.6a3.976,3.976,0,0,0,2.372.615,3.093,3.093,0,0,0,1.546-.246,2.778,2.778,0,0,0,.931-.984,1.681,1.681,0,0,0,.3-1.494A1.363,1.363,0,0,0,134.758,737.705Z" transform="translate(-111 -709.287)"/><path class="a" d="M231.77,727.939a1.631,1.631,0,0,0-.228-.07c-.07-.018-.176-.018-.246-.035h-.228a2.213,2.213,0,0,0-1.529.721,1.538,1.538,0,0,0-.158.193c-.7,1.142-1.072,2.5-2.232,3.216a1.08,1.08,0,0,1-.228-.018.647.647,0,0,1-.562-.334.744.744,0,0,1-.07-.211c-.176-.246-.088-.615-.228-.861a13.916,13.916,0,0,1-1.265-2.355,1.39,1.39,0,0,1-.07-.158,1.09,1.09,0,0,0-.949-.527c-.088,0-.176.018-.228.018-.088,0-.176.018-.246.018a4.13,4.13,0,0,1-.492.07,1.138,1.138,0,0,0-.281.158.9.9,0,0,0-.387.967,1.629,1.629,0,0,1,.07.228,2.828,2.828,0,0,1,.07.65v.316a1.08,1.08,0,0,1-.018.246v.264a57.858,57.858,0,0,0,.018,6.045c0,.07-.018.158-.018.246-.018.756-.053,1.511-.053,2.267.018.07.035.123.053.211a1.043,1.043,0,0,0,.545.791c.228,0,.457.088.685-.053h.193a1.57,1.57,0,0,1,.387.053.72.72,0,0,0,.193.018.944.944,0,0,0,.387-.141.21.21,0,0,1,.07-.07c.6-.176.527-.861.492-1.336,0-.07-.018-.176-.018-.246-.018-.228-.053-.474-.07-.7,0-.07-.018-.158-.018-.228-.053-.527-.105-1.054-.123-1.6a4.166,4.166,0,0,1,.053-1.617,2.121,2.121,0,0,1,.51.773,2.043,2.043,0,0,0,1.564,1.125,1.838,1.838,0,0,0,1.494-.949c.158-.246.334-.826.6-.966a8.847,8.847,0,0,1,.07,1.371c0,.088-.018.158-.018.228a6.643,6.643,0,0,1,.088,1.177,1,1,0,0,1-.018.228c-.211,1.195-.51,3.321,1.318,3.023h.228a1.149,1.149,0,0,0,1.107-.861,1.052,1.052,0,0,0,.035-.211c.018-.738-.018-1.494-.053-2.267V736.5a18.528,18.528,0,0,0-.316-2.267,1.037,1.037,0,0,1-.035-.246,12.246,12.246,0,0,1,.228-2.812c0-.07.018-.141.018-.229s.018-.141.018-.228c.053-.6.07-1.213.158-1.81a.486.486,0,0,1,.018-.158,1.52,1.52,0,0,0-.105-.685A.283.283,0,0,1,231.77,727.939Z" transform="translate(-188.207 -708.167)"/><path class="a" d="M336.942,728.985a1.327,1.327,0,0,1-.105-.228c-.228-.334-.51-.615-.721-.914-.035-.053-.07-.07-.105-.123-.053-.035-.088-.07-.141-.105a.475.475,0,0,0-.193-.088.461.461,0,0,0-.158-.088q-.237-.105-.527-.211l-.211-.053a10.156,10.156,0,0,0-1.617-.193c-.07-.018-.158-.018-.228-.035a5.743,5.743,0,0,0-1.441-.228.928.928,0,0,1-.228-.018,1.316,1.316,0,0,0-.633.176,2.325,2.325,0,0,1-.211.105c-.158.105-.334.229-.492.352-.07.053-.105.088-.176.141-1.072,1.863-.914,4.059-.808,6.151v.211a18.64,18.64,0,0,0,.088,1.968c0,.088-.018.176-.018.246-.018.756-.053,1.511-.053,2.267l.053.211a1.073,1.073,0,0,0,.545.808,1.171,1.171,0,0,0,.685-.07h.193a1.566,1.566,0,0,1,.387.053.718.718,0,0,0,.193.018.948.948,0,0,0,.387-.141.39.39,0,0,1,.07-.088c.58-.158.527-.844.492-1.336,0-.088-.018-.193-.018-.264-.018-.228-.053-.457-.07-.7,0-.07-.018-.158-.018-.228-.035-.176-.053-.369-.07-.545a.721.721,0,0,1-.018-.193c-.018-.369-.158-.826.141-.966a3.731,3.731,0,0,1,.65-.422c.088-.035.158-.07.228-.105a8.265,8.265,0,0,0,3.128-2.425.136.136,0,0,0-.018.053c.141-.351.527-.65.6-1.054.035-.07.053-.141.088-.211a3.259,3.259,0,0,0,.387-1.494A.335.335,0,0,0,336.942,728.985Zm-3.181,1.142c-.018.018-.035.018-.053.035-.018.228-.264.351-.351.51-.035.035-.088.07-.105.088-.035.053-.07.088-.088.123l-.141.141a3.068,3.068,0,0,1-.439.281.234.234,0,0,1-.141.053.929.929,0,0,1-.439,0,.518.518,0,0,1-.088-.228c-.018-.07-.035-.158-.053-.228-.018-.053,0-.088,0-.158v-1.423a.622.622,0,0,0-.018-.105h.264c.105,0,.228-.035.334-.035a.659.659,0,0,1,.176-.018,2.465,2.465,0,0,1,1.019.07A.651.651,0,0,1,333.761,730.127Z" transform="translate(-276.209 -707.508)"/><path class="a" d="M432.158,737.705a7.04,7.04,0,0,1-1.371-.281,3.252,3.252,0,0,1-1.23-.879.433.433,0,0,1,.3-.72,7.321,7.321,0,0,0,1.652-.123,1.4,1.4,0,0,0,.861-.966,1.662,1.662,0,0,0-.281-1.265.765.765,0,0,0-.756-.316h-.018l-1.986.017a4.311,4.311,0,0,0-.474-.017.159.159,0,0,1-.158-.193,1.515,1.515,0,0,1,.334-.721c.7-.791,1.845-.246,2.741-.58a1.542,1.542,0,0,0,.967-1.037,1.914,1.914,0,0,0-.316-1.406.918.918,0,0,0-.861-.351h-2.214a3.349,3.349,0,0,0-2.267.492,3.027,3.027,0,0,0-.861,1.617,12.04,12.04,0,0,0,.773,8.136A3.744,3.744,0,0,0,428.1,740.6a3.976,3.976,0,0,0,2.372.615,3.092,3.092,0,0,0,1.546-.246,2.778,2.778,0,0,0,.931-.984,1.681,1.681,0,0,0,.3-1.494A1.363,1.363,0,0,0,432.158,737.705Z" transform="translate(-356.137 -709.287)"/><path class="a" d="M527.658,738.555a5.907,5.907,0,0,0-.51-.422,6.426,6.426,0,0,1-1.353-1.775,1.959,1.959,0,0,1-.387-1.3c.193-.984,1.652-1.177,2.021-2.091.369-.861-.316-2.161-.844-2.829a5.255,5.255,0,0,0-2.355-1.634,7.675,7.675,0,0,0-3.216-.422,1.618,1.618,0,0,0-1.371.615,1.868,1.868,0,0,0-.158.7,20.9,20.9,0,0,0,.387,3.11c.246,2.39-.562,4.815-.211,7.188.07.369.193.773.527.9a1.351,1.351,0,0,0,.65.018c.58-.053,1.3.035,1.617-.439a1.435,1.435,0,0,0,.141-.9c-.07-1.037-.141-2.091-.228-3.128a9.5,9.5,0,0,0,1.142,1.353,6.147,6.147,0,0,1,.861.931c.316.457.492,1,.791,1.459a1.488,1.488,0,0,0,1.353.791,1.629,1.629,0,0,0,.721-.352c.422-.316.861-.826.7-1.336A1.053,1.053,0,0,0,527.658,738.555Zm-3.936-5.887-.158.053c-.035,0-.053.018-.07.018-.07.018-.123.053-.193.07h-.07c-.158.018-.316,0-.457.018h-.07a1.159,1.159,0,0,0-.246.018H522.4c0-.229.018-.439.018-.668v-.123c.176-.369-.088-.7.088-1.037v-.088a3.834,3.834,0,0,1,1.09.281.624.624,0,0,1,.158.07c.105.018.228.07.3.088.053.035.088.07.123.088C524.618,731.771,524.091,732.4,523.722,732.668Z" transform="translate(-433.325 -708.625)"/></g><g transform="translate(800 50)"><path class="b" d="M64.152,60.369c-.31.359-.663.675-1,1.02s-.612.726-.966,1.056-.749.575-1.124.891-.757.582-1.124.884-.641.733-1.023,1.013a11.9,11.9,0,0,1-1.254.7,7.438,7.438,0,0,1-1.275.5,12.225,12.225,0,0,1-1.29.5c-.447.093-.937,0-1.383.086-.375.072-.728.208-1.1.273s-.742.165-1.117.223-.749.136-1.124.18-.757,0-1.138.022c-.4.022-.807-.036-1.2-.043s-.807.014-1.2-.029S46,67.674,45.6,67.6s-.749-.338-1.138-.431-.785-.165-1.167-.295-.771-.223-1.146-.366S41.367,66.3,41,66.137c-.4-.18-.749-.438-1.138-.632s-.821-.309-1.2-.517-.656-.589-1.023-.819-.742-.438-1.088-.7-.749-.453-1.074-.74-.526-.69-.821-1.006c-.252-.273-.62-.445-.865-.733s-.382-.654-.612-.948-.468-.582-.685-.884-.519-.553-.728-.855a12.3,12.3,0,0,1-.685-1.078c-.209-.374-.346-.776-.519-1.164s-.353-.769-.5-1.171-.223-.819-.339-1.221-.346-.783-.447-1.2-.108-.84-.187-1.264-.18-.826-.245-1.25c-.058-.4.007-.8-.022-1.207s-.13-.79-.13-1.2.05-.8.079-1.2.122-.79.173-1.192.1-.79.173-1.185.086-.8.173-1.192.173-.79.288-1.171.3-.754.425-1.128c.151-.424.267-.855.447-1.264s.317-.84.526-1.243.461-.769.7-1.157.5-.747.757-1.113.54-.718.829-1.063.649-.618.958-.941.627-.639.958-.934c.31-.273.555-.618.879-.869s.728-.4,1.074-.625.663-.488,1.023-.69.721-.4,1.1-.575.764-.309,1.146-.467.757-.309,1.153-.445.785-.338,1.189-.467.829-.208,1.239-.316.814-.244,1.232-.33.85-.072,1.275-.136.829-.251,1.254-.28.857-.014,1.283-.014c.4,0,.814-.007,1.218.022s.793.2,1.2.251.8.086,1.2.165.807.093,1.2.187.764.266,1.153.388.764.259,1.146.4.793.216,1.16.381.677.46,1.03.654.778.266,1.124.481.677.445,1.009.682.562.6.872.855.713.417,1.009.69.612.589.9.891.5.69.764,1.013.54.647.785.984.584.625.807.977.418.733.627,1.1.411.74.6,1.121.2.833.36,1.221.418.74.548,1.142.166.826.274,1.236.187.812.274,1.228.281.8.339,1.221.166.848.195,1.272,0,.855,0,1.286.007.855-.014,1.286-.173.84-.223,1.264-.13.84-.209,1.257-.173.833-.274,1.243-.187.826-.317,1.236-.122.862-.274,1.257-.49.726-.663,1.106-.245.833-.447,1.207-.454.726-.685,1.085-.432.74-.685,1.085S64.433,60.045,64.152,60.369Z" transform="translate(-26.632 -25.583)"/><path class="a" d="M42.989,21.556c0-.4-.029-.8-.05-1.2s-.014-.84-.058-1.25-.195-.812-.267-1.221-.086-.833-.187-1.236-.166-.819-.288-1.221-.418-.74-.555-1.128-.216-.8-.382-1.192-.3-.783-.476-1.157-.519-.668-.728-1.027-.267-.812-.5-1.157-.519-.654-.764-.991-.533-.639-.793-.963-.555-.618-.843-.92-.54-.675-.85-.97-.591-.632-.922-.905-.7-.5-1.045-.761-.771-.388-1.138-.618-.634-.611-1.009-.819-.778-.374-1.167-.553-.8-.323-1.2-.488-.836-.208-1.247-.345-.793-.338-1.2-.453-.85-.115-1.275-.2S25.234.436,24.809.371,23.952.3,23.519.264s-.9.036-1.347.029-.9-.144-1.347-.122-.886.216-1.333.273-.908-.007-1.355.072-.879.18-1.319.287-.843.316-1.275.445-.85.28-1.275.424-.872.237-1.283.4-.821.359-1.232.546-.836.338-1.232.546-.721.546-1.1.79-.785.431-1.146.7c-.331.251-.634.539-.951.812s-.7.474-.994.769-.526.661-.807.97-.576.6-.843.927-.562.625-.8.97-.468.7-.685,1.056-.367.754-.562,1.121-.36.754-.533,1.135-.389.74-.533,1.135-.238.8-.353,1.2-.166.812-.267,1.221-.209.8-.281,1.221a.742.742,0,0,0-.079.151,12.475,12.475,0,0,0-.3,1.322c-.079.445-.216.891-.252,1.343S0,20.909,0,21.362s.137.905.173,1.358-.022.912.043,1.365c.05.374.173.74.238,1.113s.144.74.223,1.113.122.747.209,1.113c.1.438.231.869.367,1.279s.36.819.526,1.221.324.826.533,1.214.461.754.692,1.135.4.8.656,1.164.627.632.9.991.512.711.793,1.063c.259.323.54.611.814.912s.468.69.764.97.627.532.944.79.685.453,1.016.69.641.51.987.733.7.424,1.059.625.764.3,1.131.481.713.481,1.1.654.836.208,1.225.366.785.309,1.189.445.764.4,1.175.517.857.072,1.275.151.829.144,1.254.187.836.172,1.261.187c.4.007.8-.007,1.2-.029s.785-.158,1.182-.2.793-.057,1.182-.115.785-.129,1.175-.194.793.036,1.182-.029.749-.244,1.131-.323.785-.065,1.167-.165.764-.194,1.131-.33a7.483,7.483,0,0,0,1.066-.618,11.9,11.9,0,0,0,1.009-.69c.339-.23.692-.431,1.016-.682s.634-.517.951-.769.706-.424,1.009-.682.634-.517.93-.783.605-.546.894-.826.555-.589.829-.884.432-.7.692-1.006.656-.51.894-.84.346-.74.569-1.085.447-.668.641-1.027.317-.733.49-1.106.418-.69.562-1.063.331-.733.454-1.113.065-.819.173-1.2.274-.754.36-1.142.122-.79.187-1.185.238-.776.281-1.171.115-.8.137-1.2C43.046,22.361,42.989,21.951,42.989,21.556Zm-1.4,1.135c-.022.424-.173.84-.223,1.264s-.13.84-.209,1.257-.173.833-.274,1.243-.187.826-.317,1.236-.122.862-.274,1.257-.49.726-.663,1.106-.245.833-.447,1.207-.454.726-.685,1.085-.432.74-.685,1.085-.584.625-.865.948c-.31.359-.663.675-1,1.02s-.612.726-.966,1.056-.749.575-1.124.891-.757.582-1.124.884-.641.733-1.023,1.013a11.9,11.9,0,0,1-1.254.7,7.437,7.437,0,0,1-1.275.5,12.224,12.224,0,0,1-1.29.5c-.447.093-.937,0-1.383.086-.375.072-.728.208-1.1.273s-.742.165-1.117.223-.749.136-1.124.18-.757,0-1.138.022c-.4.022-.807-.036-1.2-.043s-.807.014-1.2-.029-.821.036-1.218-.036-.749-.338-1.138-.431-.785-.165-1.167-.295-.771-.223-1.146-.366-.785-.208-1.153-.374c-.4-.18-.749-.438-1.138-.632s-.821-.309-1.2-.517-.656-.589-1.023-.819-.742-.438-1.088-.7-.749-.453-1.074-.74-.526-.69-.821-1.006c-.252-.273-.62-.445-.865-.733s-.382-.654-.612-.948-.468-.582-.685-.884-.519-.553-.728-.855a12.3,12.3,0,0,1-.685-1.078c-.209-.374-.346-.776-.519-1.164s-.353-.769-.5-1.171-.223-.819-.339-1.221-.346-.783-.447-1.2-.108-.84-.187-1.264-.18-.826-.245-1.25c-.058-.4.007-.8-.022-1.207s-.13-.79-.13-1.2.05-.8.079-1.2.122-.79.173-1.192.1-.79.173-1.185.086-.8.173-1.192.173-.79.288-1.171.3-.754.425-1.128c.151-.424.267-.855.447-1.264s.317-.84.526-1.243.461-.769.7-1.157.5-.747.757-1.113.54-.718.829-1.063.649-.618.958-.941.627-.639.958-.934c.31-.273.555-.618.879-.869s.728-.4,1.074-.625S10.6,4.8,10.96,4.6s.721-.4,1.1-.575.764-.309,1.146-.467.757-.309,1.153-.445.785-.338,1.189-.467.829-.208,1.239-.316.814-.244,1.232-.33.85-.072,1.275-.136.829-.251,1.254-.28.857-.014,1.283-.014c.4,0,.814-.007,1.218.022s.793.2,1.2.251.8.086,1.2.165.807.093,1.2.187.764.266,1.153.388.764.259,1.146.4.793.216,1.16.381.677.46,1.03.654.778.266,1.124.481.677.445,1.009.682.562.6.872.855.713.417,1.009.69.612.589.9.891.5.69.764,1.013.54.647.785.984.584.625.807.977.418.733.627,1.1.411.74.6,1.121.2.833.36,1.221.418.74.548,1.142.166.826.274,1.236.187.812.274,1.228.281.8.339,1.221.166.848.195,1.272,0,.855,0,1.286S41.62,22.267,41.591,22.691Z" transform="translate(0 -0.168)"/><path class="c" d="M141.867,292.748c-.014-.323.267-.711.288-1.056a3.322,3.322,0,0,0-.49-1.659,7.2,7.2,0,0,1-.44-1.2,2.32,2.32,0,0,1-.014-1.236c.144-.553.389-.79.7-.8a.707.707,0,0,0,.483.18h.022a5.149,5.149,0,0,1,.785.855.007.007,0,0,0,.007.007c0,.1-.007.194-.014.295-.022.352.058.725.05,1.1s-.108.726-.137,1.085c-.065.819-.223,1.573-.324,2.378-.029.244-.065.5-.079.74-.137-.014-.267-.036-.382-.057C142.069,293.323,141.889,293.172,141.867,292.748Z" transform="translate(-130.965 -266.209)"/><path class="c" d="M197.973,197.238c-.159.33-.231.7-.411,1.02s-.476.568-.67.876-.3.682-.49.984-.418.6-.612.912c-.173.28-.3.647-.49.991a9.806,9.806,0,0,1-.641.905,3.768,3.768,0,0,1-.8.754,1.819,1.819,0,0,1-.966.467,5.886,5.886,0,0,1-1.066-.014,7.458,7.458,0,0,0-1.059.029c-.4.014-.814-.129-1.218-.136s-.814.057-1.218.022-.663-.4-.973-.747-.677-.618-.937-.855a12,12,0,0,0-.937-.783c-.324-.244-.627-.524-.944-.783a5.448,5.448,0,0,1-1.585-1.947,9.695,9.695,0,0,1-.857-2.457,5.468,5.468,0,0,1-.022-.97,9.2,9.2,0,0,1-.086-.991c.1-.79.425-1.559.5-2.356a11.3,11.3,0,0,0,.014-1.307c-.007-.345-.094-.7-.086-1.063s.108-.7.13-1.056-.043-.711-.022-1.063.166-.7.173-1.056c.014-.381-.043-.769,0-1.142a8.321,8.321,0,0,1,.216-1.121,6.075,6.075,0,0,1,.375-1.07,4.927,4.927,0,0,1,.6-.955,3.561,3.561,0,0,1,.879-.912,2.783,2.783,0,0,1,1.189-.424,3.864,3.864,0,0,1,1.3-.065c.331.065.648.244.987.295a6.865,6.865,0,0,1,1.023.122,6.462,6.462,0,0,0,1.146.208,4.416,4.416,0,0,0,1.153,0,10.829,10.829,0,0,0,1.369-.194,6.665,6.665,0,0,1,1.362-.23,4.283,4.283,0,0,1,1.175.093,4.774,4.774,0,0,1,1.138.359,5.194,5.194,0,0,1,.994.682,4.4,4.4,0,0,1,.821,1.034,4.574,4.574,0,0,1,.346,1.257,6.168,6.168,0,0,1,.108,1.279c.007.374.173.754.18,1.142s-.029.761-.029,1.149-.115.761-.13,1.142-.05.761-.1,1.135c-.05.4-.014.8-.058,1.207s-.036.8-.065,1.2-.022.8-.036,1.2-.058.761-.072,1.106v.036a.771.771,0,0,0-.05.568c-.022.172-.05.338-.086.51A6.185,6.185,0,0,1,197.973,197.238Z" transform="translate(-168.87 -167.905)"/><path class="c" d="M431.853,287.788a3.148,3.148,0,0,1-.223,1.1c-.151.338-.375.654-.526.984a7.362,7.362,0,0,0-.375.8,4.81,4.81,0,0,0-.3.855,5.209,5.209,0,0,1-.065,1.149c-.079.345-.209.647-.375.7a.779.779,0,0,0,.007-.129c.022-.431-.094-.869-.094-1.315s-.007-.869.029-1.315c.029-.338.086-.675.137-1.013s.151-.718.2-1.1c.043-.359.151-.726.187-1.106a1.562,1.562,0,0,0-.014-.366,1.86,1.86,0,0,1,.893-.223C431.673,286.868,431.9,287.184,431.853,287.788Z" transform="translate(-398.923 -266.22)"/><path class="a" d="M146.35,89.912a1.663,1.663,0,0,0-.98-.618h-.014c.036-.251.094-.5.115-.74.036-.366.1-.726.166-1.092s.115-.726.187-1.092.115-.726.18-1.092.086-.733.13-1.1.058-.733.065-1.1c0-.079.115-.129.094-.194a.739.739,0,0,0-.1-.546c-.195-.316-.533-.532-.742-.833s-.411-.6-.634-.9-.447-.618-.692-.9c.346-.359.886-.747.879-1.25a.686.686,0,0,0-.375-.553,8.627,8.627,0,0,0-1.362-.445,12.2,12.2,0,0,1-1.5-.582c.029-.043.086-.158.115-.2a.621.621,0,0,0-.4-.927,12.789,12.789,0,0,0-1.268-.172,10.823,10.823,0,0,0-1.275-.057,12.721,12.721,0,0,0-1.275.108,11.1,11.1,0,0,0-1.247.28,12.71,12.71,0,0,0-1.232.366.807.807,0,0,0-.288-.661,1.471,1.471,0,0,0-1.549-.144c-.375.122-.778.187-1.175.309s-.778.223-1.167.345-.735.366-1.117.5-.764.273-1.131.438-.713.374-1.066.568a8.821,8.821,0,0,0-1.045.611,6.967,6.967,0,0,0-.937.776,5.949,5.949,0,0,0-.67,1.02,8.459,8.459,0,0,1-.656.905c-.231.295-.461.589-.685.891a5.472,5.472,0,0,0-.54.984,2.962,2.962,0,0,0-.216,1.078,7.678,7.678,0,0,0-.014,1c.022.33.058.668.1,1s-.065.682-.043,1.013c.022.352.223.69.238,1.042s-.007.7.007,1.056v.208a1.508,1.508,0,0,0-.742.129,1.973,1.973,0,0,0-.843.819,3,3,0,0,0-.425,1.106,4.3,4.3,0,0,0,.108,1.178,4.506,4.506,0,0,0,.324.984,10.06,10.06,0,0,0,.3,1.006,1.727,1.727,0,0,1,.238,1.386,2.926,2.926,0,0,0-.209,1.049,1.686,1.686,0,0,0,.454,1.07,2.4,2.4,0,0,0,1.11.338c.216.043.425.086.641.115,0,.036.007.079.007.115a7.976,7.976,0,0,0,.259,1.106,8.977,8.977,0,0,0,.353,1.078,9.814,9.814,0,0,0,.62.955,8.946,8.946,0,0,0,.519,1.013,9.413,9.413,0,0,0,.821.783,8.428,8.428,0,0,0,.894.69c.324.244.634.517.937.783s.533.625.829.9.584.56.886.833a2.979,2.979,0,0,0,.958.568,3.363,3.363,0,0,0,1.1.129c.36.014.728-.022,1.11-.036.36-.014.742-.022,1.124,0,.1.007.187.136.288.144.209.014.411.057.62.072.353.022.706-.108,1.059-.086a1.825,1.825,0,0,0,1.131-.18,3.634,3.634,0,0,0,.93-.754c.3-.359.6-.733.865-1.113s.454-.826.706-1.221c.195-.3.353-.632.548-.934s.36-.625.555-.927.411-.6.591-.905.36-.625.533-.941.411-.6.555-.934a4.4,4.4,0,0,0,.245-1.078,1.778,1.778,0,0,0,.922-.23,1.906,1.906,0,0,0,.728-.69,2.541,2.541,0,0,0,.331-.855c.058-.3.072-.611.1-.912a4.689,4.689,0,0,1,.252-1.264c.151-.388.389-.74.576-1.149a6.735,6.735,0,0,0,.346-1.135,3.581,3.581,0,0,0,.245-1.164A2.019,2.019,0,0,0,146.35,89.912Zm-21.588,3.032c-.014.366-.108.726-.137,1.085-.065.819-.223,1.573-.324,2.378-.029.244-.065.5-.079.74-.137-.014-.267-.036-.382-.057-.259-.057-.44-.208-.461-.632-.014-.323.267-.711.288-1.056a3.322,3.322,0,0,0-.49-1.659,7.2,7.2,0,0,1-.44-1.2,2.32,2.32,0,0,1-.014-1.236c.144-.553.389-.79.7-.8a.707.707,0,0,0,.483.18h.022a5.148,5.148,0,0,1,.785.855.007.007,0,0,0,.007.007c0,.1-.007.194-.014.295C124.689,92.2,124.776,92.577,124.762,92.943Zm17.877-2.794c0,.381-.115.761-.13,1.142s-.05.761-.1,1.135c-.05.4-.014.8-.058,1.207s-.036.8-.065,1.2-.022.8-.036,1.2-.058.761-.072,1.106v.036a.771.771,0,0,0-.05.568c-.022.172-.05.338-.086.51a4.893,4.893,0,0,1-.447,1.013c-.159.33-.231.7-.411,1.02s-.476.568-.67.876-.3.682-.49.984-.418.6-.612.912c-.173.28-.3.647-.49.991a9.811,9.811,0,0,1-.641.905,3.768,3.768,0,0,1-.8.754,1.819,1.819,0,0,1-.966.467,5.887,5.887,0,0,1-1.066-.014,7.456,7.456,0,0,0-1.059.029c-.4.014-.814-.129-1.218-.136s-.814.057-1.218.022-.663-.4-.973-.747-.677-.618-.937-.855a12,12,0,0,0-.937-.783c-.324-.244-.627-.524-.944-.783a5.448,5.448,0,0,1-1.585-1.947,9.7,9.7,0,0,1-.857-2.457,5.468,5.468,0,0,1-.022-.97,9.2,9.2,0,0,1-.086-.991c.1-.79.425-1.559.5-2.356a11.3,11.3,0,0,0,.014-1.307c-.007-.345-.094-.7-.086-1.063s.108-.7.13-1.056-.043-.711-.022-1.063.166-.7.173-1.056c.014-.381-.043-.769,0-1.142a8.318,8.318,0,0,1,.216-1.121,6.076,6.076,0,0,1,.375-1.07,4.927,4.927,0,0,1,.6-.955,3.561,3.561,0,0,1,.879-.912,2.783,2.783,0,0,1,1.189-.424,3.865,3.865,0,0,1,1.3-.065c.331.065.649.244.987.295a6.864,6.864,0,0,1,1.023.122,6.461,6.461,0,0,0,1.146.208,4.416,4.416,0,0,0,1.153,0,10.827,10.827,0,0,0,1.369-.194,6.663,6.663,0,0,1,1.362-.23,4.283,4.283,0,0,1,1.175.093,4.774,4.774,0,0,1,1.138.359,5.192,5.192,0,0,1,.994.682,4.4,4.4,0,0,1,.821,1.034,4.574,4.574,0,0,1,.346,1.257,6.17,6.17,0,0,1,.108,1.279c.007.374.173.754.18,1.142S142.632,89.761,142.639,90.149Zm2.767,1.343a3.148,3.148,0,0,1-.223,1.1c-.151.338-.375.654-.526.984a7.36,7.36,0,0,0-.375.8,4.809,4.809,0,0,0-.3.855,5.209,5.209,0,0,1-.065,1.149c-.079.345-.209.647-.375.7a.779.779,0,0,0,.007-.129c.022-.431-.094-.869-.094-1.315s-.007-.869.029-1.315c.029-.338.086-.675.137-1.013s.151-.718.2-1.1c.043-.359.151-.726.187-1.106a1.561,1.561,0,0,0-.014-.366,1.861,1.861,0,0,1,.894-.223C145.226,90.572,145.449,90.889,145.406,91.492Z" transform="translate(-112.476 -69.924)"/><path class="a" d="M328.851,486.3a.284.284,0,0,0,0,.568A.284.284,0,0,0,328.851,486.3Z" transform="translate(-304.899 -451.378)"/><path class="a" d="M273.448,462.783c-.108-.108-.3-.18-.4-.072a.367.367,0,0,0,.014.46c.014.014,0,.065.014.079a.412.412,0,0,0,.49-.014.332.332,0,0,0-.05-.431C273.5,462.776,273.477,462.8,273.448,462.783Z" transform="translate(-253.301 -429.434)"/><path class="a" d="M303.156,462.744c0-.022-.022-.022-.022-.05,0-.151-.166-.208-.324-.2s-.274.043-.274.2c0,.022-.036.022-.036.05a.267.267,0,0,0,.3.237C302.961,462.974,303.156,462.9,303.156,462.744Z" transform="translate(-280.703 -429.28)"/><path class="a" d="M323.727,462.446c.108-.108.022-.33-.086-.438s-.31-.18-.425-.065c-.014.014,0,.065-.014.079a.3.3,0,0,0,.418.417C323.641,462.418,323.713,462.461,323.727,462.446Z" transform="translate(-299.841 -428.717)"/><path class="a" d="M310.551,480.2c-.367,0-.367.668,0,.668S310.911,480.2,310.551,480.2Z" transform="translate(-287.918 -445.716)"/><path class="a" d="M289.551,477.9a.256.256,0,1,0,0,.51A.256.256,0,1,0,289.551,477.9Z" transform="translate(-268.431 -443.581)"/><path class="a" d="M267.251,484.9c-.367,0-.367.639,0,.639S267.611,484.9,267.251,484.9Z" transform="translate(-247.738 -450.078)"/><path class="a" d="M2.9,1.7a3.576,3.576,0,0,1,1.031.576c.281.259.469.611.764.733A1.4,1.4,0,0,0,5.742,2.9a1.779,1.779,0,0,0,.475-.258.521.521,0,0,0,.2-.474c-.036-.18-.26-.4-.425-.324-.05.022-.086.108-.137.136a.6.6,0,0,1-.612-.015c-.526-.288-.671-.927-1.132-1.28A3.875,3.875,0,0,0,2.981.128,2.344,2.344,0,0,0,1.727.055,6.294,6.294,0,0,0,.453.809c-.288.215-.526.373-.432.582s.36.122.576.087a6.137,6.137,0,0,1,1.174.044A2.716,2.716,0,0,1,2.9,1.7Z" transform="matrix(0.966, -0.259, 0.259, 0.966, 14.334, 19.644)"/><path class="a" d="M6.055.695C6.033.681,6,.666,5.982.652a4.017,4.017,0,0,0-1-.552A3.678,3.678,0,0,0,3.829.014,3.112,3.112,0,0,0,2.741.389a2.507,2.507,0,0,0-.836.748c-.325.424-.577.963-1.233.827a2.739,2.739,0,0,0-.389-.129c-.648-.028-.022,1.056.287,1.2a1.112,1.112,0,0,0,.994-.13,3.985,3.985,0,0,0,.829-.64,5.316,5.316,0,0,1,.915-.547,2.6,2.6,0,0,1,.966-.374,2.362,2.362,0,0,1,.951.093,2.028,2.028,0,0,0,.958.157.629.629,0,0,0,.324-.137c.1-.122-.014-.345-.093-.481A1.058,1.058,0,0,0,6.055.695Z" transform="matrix(0.966, 0.259, -0.259, 0.966, 23.173, 17.986)"/><path class="a" d="M7.386,1.724c.231-.014.115-.632-.151-.97A2.25,2.25,0,0,0,5.808.029C5.476,0,5.123,0,4.77,0c-.317,0-.62.05-.93.072S3.207.007,2.882,0c-.353,0-.706,0-1.038.029A2.25,2.25,0,0,0,.418.754,1.978,1.978,0,0,0,0,1.94c-.007.345.3.417.512.194.238-.244.267-.589.605-.776A2.477,2.477,0,0,1,2.1,1.214c.44-.036.865-.086,1.3-.115a11.612,11.612,0,0,1,1.225,0c.216.007.432.014.649.029a3.5,3.5,0,0,1,1.254.23S7.141,1.76,7.386,1.724Z" transform="translate(25.488 32.126) rotate(180)"/><path class="a" d="M268.922,329.731a.276.276,0,0,0-.339.137c-.173.345-.238.754-.4,1.092-.13.259-.31.5-.418.769-.122.323-.173.675-.3,1a1.93,1.93,0,0,0-.166,1.1c.065.251.007.524.209.726a1.9,1.9,0,0,0,.685.309c.151.057.3.115.447.158a2.254,2.254,0,0,0,.317.065c.216.029.533-.021.468-.338a.706.706,0,0,0-.331-.4c-.058-.043-.122-.079-.166-.108a2.391,2.391,0,0,1-.331-.273,1,1,0,0,1-.274-.388c-.123-.323.086-.754.173-1.063.094-.338.195-.675.281-1.013s.238-.661.324-1a1.248,1.248,0,0,0,.022-.726C269.095,329.71,268.987,329.753,268.922,329.731Z" transform="translate(-248.011 -306.044)"/><path class="a" d="M305.323,336.629a.53.53,0,0,0,.231.065,2.249,2.249,0,0,0,1-.036,1.219,1.219,0,0,0,.656-.517,1.349,1.349,0,0,0,.151-.9,4.069,4.069,0,0,0-.13-.948c-.036-.1-.029-.23-.058-.345a11.721,11.721,0,0,0-.389-1.379,1.778,1.778,0,0,0-.879-.97.563.563,0,0,0-.159.51,2.274,2.274,0,0,0,.058.625c.094.309.259.589.339.905s.115.647.173.97a1.284,1.284,0,0,1-.742,1.394,2.139,2.139,0,0,0-.252.194.327.327,0,0,0-.122.208.3.3,0,0,0,.022.115A.288.288,0,0,0,305.323,336.629Z" transform="translate(-283.208 -307.791)"/><path class="a" d="M221.968,312.008a1.741,1.741,0,0,0-.3-1.042.691.691,0,0,0-.735-.316.7.7,0,0,0-.634.517,1.928,1.928,0,0,0-.007,1.193.964.964,0,0,0,1.081.582A.994.994,0,0,0,221.968,312.008Z" transform="translate(-204.328 -288.336)"/><path class="a" d="M361.537,309.8a.916.916,0,0,0-1.275.1,2.007,2.007,0,0,0-.13,1.135.894.894,0,0,0,.591.862.786.786,0,0,0,.944-.553,1.742,1.742,0,0,0,.151-1.149A.677.677,0,0,0,361.537,309.8Z" transform="translate(-334.163 -287.358)"/></g></g></svg>