<svg id="Layer_1" data-name="Layer 1" xmlns="http://www.w3.org/2000/svg" width="94.64" height="32.05" viewBox="0 0 94.64 32.05"><defs><style>.logo-brown{fill:#312c22;}</style></defs><title>logo-text</title><path class="logo-brown" d="M75.4,18.9a3.59,3.59,0,0,1-.07-1.46c0-.12,0-.21,0-.33,0-.81,0-1.62,0-2.41v-.3c0-.37,0-.72,0-1.11,0-.07,0-.17,0-.26-.23-1.83-.23-3.64-.33-5.49,0-.63,0-1.74-.78-2H74l-.21.07h-.23a1.58,1.58,0,0,1-.43-.05l-.23,0a.85.85,0,0,0-.46.18l-.12.09a.82.82,0,0,0-.58.67.82.82,0,0,0,0,.22,9,9,0,0,0,.19,2.64c0,.09,0,.18,0,.25,0,.58.05.77.05,1.33H71.8a.74.74,0,0,0-.65,0A.66.66,0,0,0,71,11a2.77,2.77,0,0,1-2,.35c-.45-.16-.15-.69,0-1.18,0-.07,0-.17.05-.26a17.32,17.32,0,0,1-.25-3.13,2,2,0,0,0-.08-.26,2.24,2.24,0,0,0-.65-.9l-.27-.09a1.86,1.86,0,0,0-.33,0h-.28a1.54,1.54,0,0,1-.3,0l-.6.07a1.31,1.31,0,0,0-.35.19A1,1,0,0,0,65.44,7c0,.09,0,.18.07.26a3.43,3.43,0,0,1,.07.78v.4c0,.1,0,.2,0,.3V9c0,.49,0,1,0,1.51v.28c0,1.51,0,3,0,4.59v.35a6.77,6.77,0,0,1,0,2.29v.26c0,.37,0,.72,0,1.07,0,.09,0,.18,0,.25a1.22,1.22,0,0,0,.67,1,1.52,1.52,0,0,0,.82-.05l.23,0a1.43,1.43,0,0,1,.46.07.86.86,0,0,0,.23,0,.73.73,0,0,0,.45-.19l.09-.07c.72-.21.64-1,.6-1.64,0-.08,0-.21,0-.3,0-.28,0-.58-.07-.84,0-.09,0-.19,0-.28s0-.18,0-.26,0-.18,0-.25a1.58,1.58,0,0,0,0-.25,1,1,0,0,1,.56-1.33l.11,0,.28-.09c.67-.12,1.32-.66,2-.21A1.39,1.39,0,0,1,72,16.41c0,.07,0,.16,0,.23a5.65,5.65,0,0,1,.19,1.09c0,.45-.46.91-.23,1.49a2.29,2.29,0,0,0,.07.28,1.39,1.39,0,0,0,1.35,1.2l.28,0,.29,0,.61-.07.18-.07a1.4,1.4,0,0,0,.61-1.3A.69.69,0,0,0,75.4,18.9Z" transform="translate(-65.36 -5.23)"/><path class="logo-brown" d="M95.19,12.17a17.37,17.37,0,0,1-1-2.71,7.74,7.74,0,0,0-1.32-3.32,3.86,3.86,0,0,0-.44-.38,2.75,2.75,0,0,0-1.92-.51,2.84,2.84,0,0,0-1.61.82,4.66,4.66,0,0,0-1.2,2.71c-.13,1-.07,2-.13,3-.08,2.62-1.9,5.17-1.1,7.87a2,2,0,0,0,.3.67.92.92,0,0,0,.63.28,4.41,4.41,0,0,0,1.62.16A1.61,1.61,0,0,0,90.3,20a3.69,3.69,0,0,0,.29-1.23.92.92,0,0,1,1.81-.23A6.37,6.37,0,0,0,93,19.74a1.77,1.77,0,0,0,2.07.48,2.82,2.82,0,0,0,1.46-1.66,5.45,5.45,0,0,0,0-3.32A22.86,22.86,0,0,0,95.19,12.17Zm-3.13.51a1.9,1.9,0,0,1-1.79-.44,1.06,1.06,0,0,1-.26-.53c0-.28,0-.58,0-.86,0-1.14,1.53-.91,1.72-.52a7.71,7.71,0,0,1,.65,1.95,1,1,0,0,1-.34.4Z" transform="translate(-65.36 -5.23)"/><path class="logo-brown" d="M117.35,8a2.15,2.15,0,0,0-.14-.26c-.26-.4-.61-.76-.88-1.11l-.14-.16a1.1,1.1,0,0,1-.18-.14l-.22-.12-.2-.12a4.35,4.35,0,0,0-.63-.25l-.25,0a10.6,10.6,0,0,0-1.95-.23,2.4,2.4,0,0,0-.28,0,6.8,6.8,0,0,0-1.74-.28l-.28,0a1.62,1.62,0,0,0-.77.21,1.23,1.23,0,0,0-.25.14l-.6.42c-.07,0-.14.12-.21.18-1.3,2.26-1.11,4.92-1,7.45v.24a18.88,18.88,0,0,0,.12,2.38c0,.08,0,.21,0,.3,0,.91,0,1.84,0,2.74,0,.07,0,.17,0,.24a1.25,1.25,0,0,0,.67,1,1.8,1.8,0,0,0,.83-.07h.22a2.31,2.31,0,0,1,.46.05l.23,0a.8.8,0,0,0,.46-.18l.08-.09c.7-.19.64-1,.6-1.61,0-.13,0-.23,0-.34,0-.28-.06-.56-.07-.84,0-.09,0-.19,0-.28s0-.44-.07-.67a.86.86,0,0,1,0-.23c0-.44-.19-1,.18-1.16a3.82,3.82,0,0,1,.79-.51,1,1,0,0,0,.28-.14c1.4-.82,3-1.54,3.8-2.93a.08.08,0,0,0,0,.05c.18-.42.63-.79.72-1.28,0-.09,0-.18.09-.25a4.15,4.15,0,0,0,.47-1.79A.68.68,0,0,0,117.35,8ZM113.5,9.39l0,0c0,.26-.33.42-.42.61l-.14.12a1.53,1.53,0,0,1-.13.16l-.17.18a4.62,4.62,0,0,1-.55.35.34.34,0,0,1-.17.05,1.28,1.28,0,0,1-.55,0,.62.62,0,0,1-.09-.26,1.72,1.72,0,0,0,0-.26.67.67,0,0,1,0-.2V8.43c0-.06,0-.09,0-.14h.34c.14,0,.26,0,.4,0l.21,0a3.65,3.65,0,0,1,1.23.07.79.79,0,0,1,.16,1.09Z" transform="translate(-65.36 -5.23)"/><path class="logo-brown" d="M136.86,11.54a.08.08,0,0,0,0,.05c.18-.42.63-.79.72-1.28,0-.09.05-.18.09-.25a4.15,4.15,0,0,0,.47-1.79.55.55,0,0,0-.07-.25,1.3,1.3,0,0,0-.14-.26c-.26-.4-.61-.76-.88-1.11a1.07,1.07,0,0,0-.14-.16l-.17-.14a1.27,1.27,0,0,0-.23-.12l-.19-.12a5,5,0,0,0-.64-.25l-.24-.05a10,10,0,0,0-1.95-.23l-.29,0a7.27,7.27,0,0,0-1.74-.28,1.34,1.34,0,0,1-.28,0,1.62,1.62,0,0,0-.77.21.89.89,0,0,0-.25.14l-.6.42-.21.18c-1.3,2.26-1.1,4.92-1,7.45v.24a18.72,18.72,0,0,0,.12,2.37c0,.09,0,.22,0,.3,0,.92,0,1.85,0,2.75a2,2,0,0,1,0,.24,1.28,1.28,0,0,0,.67,1,1.8,1.8,0,0,0,.83-.07h.23a1.73,1.73,0,0,1,.45.05l.23,0a.93.93,0,0,0,.46-.18.2.2,0,0,1,.09-.09c.7-.19.63-1,.6-1.62,0-.12,0-.22,0-.33,0-.28-.05-.56-.07-.84,0-.09,0-.2,0-.28s-.05-.44-.07-.67a1.79,1.79,0,0,1,0-.23c0-.44-.19-1,.18-1.16a4.1,4.1,0,0,1,.79-.51,1,1,0,0,0,.28-.14C134.47,13.64,136,12.91,136.86,11.54ZM134.2,9.39s0,0,0,0c0,.26-.33.42-.42.61l-.14.12-.12.16-.18.18a3.94,3.94,0,0,1-.55.35.34.34,0,0,1-.17.05,1.28,1.28,0,0,1-.55,0,.79.79,0,0,1-.08-.26c0-.09,0-.19-.06-.26a.67.67,0,0,1,0-.2V8.43c0-.06,0-.09,0-.15h.34c.14,0,.26,0,.4,0l.21,0A3.63,3.63,0,0,1,134,8.3a.8.8,0,0,1,.17,1.09Z" transform="translate(-65.36 -5.23)"/><path class="logo-brown" d="M152.41,13.71a3.93,3.93,0,0,1,.51,2.68c0,.66,0,1.31,0,2v.5c-.06.47-.42.93-.14,1.4s.9.44,1.46.44h.28c1.46-.07,2-1.3,1.93-2.58a11.18,11.18,0,0,0-.12-1.42c-.07-.39-.2-.76-.23-1.13a3.69,3.69,0,0,1,.3-1.76,12,12,0,0,1,.69-1.61c.65-1,1.56-1.53,1.91-2.78a9.82,9.82,0,0,1,.62-1.9c.12-.23.24-.44.35-.67a.86.86,0,0,0,0-.63,1.56,1.56,0,0,0-1.12-.67,1.94,1.94,0,0,0-1.64.81l-.17.24a10.19,10.19,0,0,1-1.74,2.55c-.06.06-.09.13-.14.18s-.27.33-.4.49l-.22-.37-.19-.26-.49-.83L153.52,8a.94.94,0,0,0-.12-.18,2.75,2.75,0,0,0-2.83-2.46l-.26.07a1.28,1.28,0,0,0-.28.16l-.25.18c-1.09.72-1,1.91-.25,2.91a1.41,1.41,0,0,0,.18.29,5.49,5.49,0,0,0,.62.75.8.8,0,0,0,.08.16l.09.16a15.76,15.76,0,0,1,1,1.77A11.67,11.67,0,0,0,152.41,13.71Z" transform="translate(-65.36 -5.23)"/><path class="logo-brown" d="M73.1,34.28l-.52-.5a1,1,0,0,1-.18-.17,4.4,4.4,0,0,1-.39-.35,1.07,1.07,0,0,0-.19-.18A4.46,4.46,0,0,1,71,32.5a.69.69,0,0,1-.16-.18c-.07,0-.1-.1-.18-.15-.56-.25-.79-.55-.8-.86a.67.67,0,0,1,0-.2c0-.07.07-.16.11-.23a2.17,2.17,0,0,0,.07-.24.92.92,0,0,0,.09-.23A7.13,7.13,0,0,1,71.08,29a1.29,1.29,0,0,1,.16-.17,6.11,6.11,0,0,1,1.51-2.18l.16-.14a.76.76,0,0,0,.23-.72c0-.3-.23-.85-.65-.87a1,1,0,0,0-.23-.12,1.08,1.08,0,0,0-1,.34,1.14,1.14,0,0,0-.16.15c-.56.65-.86,1.57-1.75,1.92l-.16.14a4.94,4.94,0,0,0-.85.86c0-.31-.15-.54-.14-.84,0-.07,0-.13,0-.2-.23-.79.15-1.84-.58-2.33a.37.37,0,0,0-.16-.07.75.75,0,0,0-.39-.07h-.23a2,2,0,0,1-.24,0l-.5.07a1.56,1.56,0,0,0-.28.16.9.9,0,0,0-.38,1,1.55,1.55,0,0,1,.07.23,1,1,0,0,0,0,.17s0,.11,0,.16c-.06,1.11,0,2.25,0,3.37v.25a4.54,4.54,0,0,1,0,2.37v.23c0,.42,0,.86,0,1.28v.21a3.7,3.7,0,0,1,0,1.15c0,.09,0,.16,0,.24s0,.16,0,.23a1.4,1.4,0,0,0,1.45,1.34l.22,0,.19,0h.19a.77.77,0,0,0,.39-.14l.07-.09c.6-.16.53-.84.49-1.33,0-.09,0-.18,0-.27s0-.45-.07-.7c0-.07,0-.14,0-.23a6.11,6.11,0,0,1-.09-.86l.16.16c.19.18.38.33.58.51l.19.16c.7.67,1.09,1.58,1.81,2.27a1.15,1.15,0,0,1,.14.17.83.83,0,0,0,.18.13,1.13,1.13,0,0,0,1,.26c.19-.14.42-.23.54-.47.05-.06.09-.07.14-.13a1.7,1.7,0,0,1,.35-.19.91.91,0,0,0,.16-.11.7.7,0,0,0,.23-.35.36.36,0,0,1,0-.1c.38-.51-.14-1-.5-1.34A1,1,0,0,0,73.1,34.28Z" transform="translate(-65.36 -5.23)"/><path class="logo-brown" d="M89.11,33.64a6.54,6.54,0,0,1-1.37-.28,3.24,3.24,0,0,1-1.23-.88.43.43,0,0,1,0-.61.47.47,0,0,1,.26-.11,7.6,7.6,0,0,0,1.65-.12,1.38,1.38,0,0,0,.86-1A1.67,1.67,0,0,0,89,29.41a.77.77,0,0,0-.75-.32h0l-2,0-.47,0a.16.16,0,0,1-.16-.15v0a1.58,1.58,0,0,1,.33-.72c.7-.79,1.85-.25,2.75-.58a1.54,1.54,0,0,0,1-1,1.93,1.93,0,0,0-.31-1.4.91.91,0,0,0-.86-.35H86.3A3.31,3.31,0,0,0,84,25.3a3.09,3.09,0,0,0-.86,1.61A12,12,0,0,0,84,35.05a3.77,3.77,0,0,0,1.1,1.49,4,4,0,0,0,2.38.61A3.13,3.13,0,0,0,89,36.91a2.76,2.76,0,0,0,.93-1,1.66,1.66,0,0,0,.3-1.49A1.35,1.35,0,0,0,89.11,33.64Z" transform="translate(-65.36 -5.23)"/><path class="logo-brown" d="M108.92,25a1,1,0,0,0-.23-.07l-.25,0h-.23a2.21,2.21,0,0,0-1.52.72,1,1,0,0,0-.16.2c-.7,1.14-1.07,2.5-2.23,3.21a.86.86,0,0,1-.23,0,.64.64,0,0,1-.56-.33.58.58,0,0,1-.07-.21c-.18-.25-.09-.62-.23-.86a13.73,13.73,0,0,1-1.27-2.36l-.07-.15a1.07,1.07,0,0,0-1-.53l-.22,0h-.25a2.76,2.76,0,0,1-.49.07,1.28,1.28,0,0,0-.28.16.9.9,0,0,0-.39,1,1.55,1.55,0,0,1,.07.23,2.81,2.81,0,0,1,.07.65V27a1,1,0,0,1,0,.25v.26a58.14,58.14,0,0,0,0,6.05c0,.07,0,.16,0,.24,0,.76,0,1.52,0,2.27,0,.07,0,.12,0,.21a1,1,0,0,0,.55.79c.22,0,.45.09.68,0h.19a1.74,1.74,0,0,1,.39,0,.62.62,0,0,0,.19,0,1.07,1.07,0,0,0,.39-.14.23.23,0,0,1,.07-.07c.6-.18.53-.86.49-1.34,0-.07,0-.17,0-.24,0-.23-.06-.48-.08-.7s0-.16,0-.23c-.06-.53-.11-1.05-.13-1.6a4.21,4.21,0,0,1,.06-1.62,2.16,2.16,0,0,1,.51.78A2,2,0,0,0,104.26,33a1.83,1.83,0,0,0,1.49-1c.16-.24.34-.82.6-1a7.82,7.82,0,0,1,.07,1.37c0,.09,0,.16,0,.23a6.51,6.51,0,0,1,.08,1.17.87.87,0,0,1,0,.23c-.21,1.2-.51,3.32,1.31,3H108a1.14,1.14,0,0,0,1.11-.86.76.76,0,0,0,0-.21c0-.74,0-1.49,0-2.27v-.24a19.34,19.34,0,0,0-.31-2.27.67.67,0,0,1,0-.24,12.12,12.12,0,0,1,.23-2.82c0-.07,0-.14,0-.23s0-.14,0-.22c.06-.6.07-1.22.16-1.81a.78.78,0,0,1,0-.16,1.61,1.61,0,0,0-.1-.69A.26.26,0,0,1,108.92,25Z" transform="translate(-65.36 -5.23)"/><path class="logo-brown" d="M126.09,26.7a1,1,0,0,1-.11-.23c-.23-.33-.51-.61-.72-.91l-.11-.12-.14-.11a.56.56,0,0,0-.19-.09.35.35,0,0,0-.16-.08l-.52-.22-.22-.05a9.69,9.69,0,0,0-1.61-.19l-.23,0a5.84,5.84,0,0,0-1.44-.22l-.23,0a1.27,1.27,0,0,0-.63.17l-.21.11c-.16.1-.34.23-.5.35l-.17.14c-1.07,1.86-.92,4.06-.81,6.15v.21a18.43,18.43,0,0,0,.09,2c0,.09,0,.18,0,.25,0,.75,0,1.51,0,2.26l0,.22a1.05,1.05,0,0,0,.55.8,1.06,1.06,0,0,0,.68-.07h.19A1.76,1.76,0,0,1,120,37a.61.61,0,0,0,.19,0,.8.8,0,0,0,.39-.14.27.27,0,0,1,.07-.08c.58-.16.53-.85.49-1.34,0-.09,0-.19,0-.26,0-.23,0-.46-.07-.7,0-.07,0-.16,0-.23a3.45,3.45,0,0,1-.07-.55.62.62,0,0,1,0-.19c0-.37-.16-.83.14-1a4,4,0,0,1,.65-.42l.23-.1a8.37,8.37,0,0,0,3.13-2.43.17.17,0,0,0,0,.05c.14-.35.52-.65.6-1.05a1.89,1.89,0,0,1,.09-.21,3.23,3.23,0,0,0,.38-1.49A.33.33,0,0,0,126.09,26.7Zm-3.19,1.14s0,0-.05,0c0,.23-.26.35-.35.51a1,1,0,0,0-.1.09l-.09.12-.14.14a3,3,0,0,1-.44.28.24.24,0,0,1-.14.05.82.82,0,0,1-.44,0,.43.43,0,0,1-.09-.22,1.89,1.89,0,0,1,0-.23c0-.05,0-.09,0-.16V27s0-.07,0-.11h.26l.34,0a.47.47,0,0,1,.17,0,2.51,2.51,0,0,1,1,.07A.64.64,0,0,1,122.9,27.84Z" transform="translate(-65.36 -5.23)"/><path class="logo-brown" d="M141.37,33.64a6.54,6.54,0,0,1-1.37-.28,3.24,3.24,0,0,1-1.23-.88.43.43,0,0,1,0-.61.5.5,0,0,1,.26-.11,7.69,7.69,0,0,0,1.66-.12,1.42,1.42,0,0,0,.86-1,1.63,1.63,0,0,0-.29-1.26.76.76,0,0,0-.75-.32h0l-2,0-.47,0a.16.16,0,0,1-.16-.15v0a1.5,1.5,0,0,1,.34-.72c.7-.79,1.84-.25,2.74-.58a1.57,1.57,0,0,0,1-1,1.93,1.93,0,0,0-.32-1.4.9.9,0,0,0-.86-.35h-2.22a3.27,3.27,0,0,0-2.26.49,3,3,0,0,0-.86,1.61,12,12,0,0,0,.77,8.14,3.79,3.79,0,0,0,1.11,1.49,3.94,3.94,0,0,0,2.37.61,3.11,3.11,0,0,0,1.54-.24,2.87,2.87,0,0,0,.94-1,1.69,1.69,0,0,0,.3-1.49A1.38,1.38,0,0,0,141.37,33.64Z" transform="translate(-65.36 -5.23)"/><path class="logo-brown" d="M159.69,35.15q-.25-.23-.51-.42A6.49,6.49,0,0,1,157.82,33a2,2,0,0,1-.38-1.3c.19-1,1.65-1.18,2-2.09s-.32-2.16-.85-2.83a5.32,5.32,0,0,0-2.35-1.64,7.83,7.83,0,0,0-3.22-.42,1.62,1.62,0,0,0-1.37.62,1.88,1.88,0,0,0-.16.7,20.5,20.5,0,0,0,.39,3.11c.25,2.39-.56,4.81-.21,7.19.07.36.19.77.53.9a1.43,1.43,0,0,0,.65,0c.58-.05,1.3,0,1.61-.44a1.33,1.33,0,0,0,.14-.9c-.07-1-.14-2.09-.22-3.12a9.7,9.7,0,0,0,1.14,1.35,6.32,6.32,0,0,1,.86.93c.32.46.49,1,.79,1.46a1.49,1.49,0,0,0,1.35.79,1.67,1.67,0,0,0,.72-.35c.43-.32.87-.83.7-1.34A1.19,1.19,0,0,0,159.69,35.15Zm-3.94-5.88-.16.05-.07,0-.19.07h-.07c-.16,0-.32,0-.46,0h-.07a1,1,0,0,0-.24,0h-.06c0-.22,0-.43,0-.66v-.13c.17-.37-.09-.7.08-1v-.09a3.65,3.65,0,0,1,1.09.28l.16.07a2.82,2.82,0,0,1,.3.09c.06,0,.09.07.13.09.44.31-.09.94-.46,1.21Z" transform="translate(-65.36 -5.23)"/></svg>