<svg id="f5e41ada-dccf-4954-8658-d7246cebc16d" data-name="animation-pop-ups" xmlns="http://www.w3.org/2000/svg" width="49.22" height="20.04" viewBox="0 0 49.22 20.04"><defs><style>.b74a2c07-6e3b-4768-b578-63214dc39de4{fill:#eaeeff;}.acffcb5e-5c14-4b4d-ba45-d1a0653d063e{fill:#302819;}</style></defs><title>value-02-cms-btn</title><g id="ac3c33e7-bf3e-411d-a22b-e9b2237f88f4" data-name="save-button"><rect class="b74a2c07-6e3b-4768-b578-63214dc39de4" width="49.22" height="20.04" rx="4.33"/><path class="acffcb5e-5c14-4b4d-ba45-d1a0653d063e" d="M259.8,123.91a.62.62,0,0,1,.32-.52.61.61,0,0,1,.35-.11.73.73,0,0,1,.51.23,3.07,3.07,0,0,0,1,.78,2.86,2.86,0,0,0,1.26.26,2.15,2.15,0,0,0,1-.27,1,1,0,0,0,0-1.61,5.15,5.15,0,0,0-1.32-.5,9.33,9.33,0,0,1-1.42-.48,2.61,2.61,0,0,1-.95-.73,2.13,2.13,0,0,1,0-2.46,2.55,2.55,0,0,1,1-.81,3.3,3.3,0,0,1,1.41-.29,4.09,4.09,0,0,1,1.45.27,2.61,2.61,0,0,1,1.18.84.64.64,0,0,1,.19.44.65.65,0,0,1-.25.48.53.53,0,0,1-.38.13.57.57,0,0,1-.44-.18,2.11,2.11,0,0,0-.78-.56,2.49,2.49,0,0,0-1-.2,2,2,0,0,0-1,.23.86.86,0,0,0-.4.8.9.9,0,0,0,.46.8,6,6,0,0,0,1.38.5,7.8,7.8,0,0,1,1.35.46,2.29,2.29,0,0,1,.89.72,2.2,2.2,0,0,1,0,2.5,2.68,2.68,0,0,1-1.08.81,3.51,3.51,0,0,1-1.41.28,4.65,4.65,0,0,1-1.77-.33,3.28,3.28,0,0,1-1.38-1.07A.78.78,0,0,1,259.8,123.91Z" transform="translate(-251.47 -111.11)"/><path class="acffcb5e-5c14-4b4d-ba45-d1a0653d063e" d="M274.8,117.68a.77.77,0,0,1,.2.54v6.62a.77.77,0,0,1-.2.52.72.72,0,0,1-.53.21.69.69,0,0,1-.52-.21.72.72,0,0,1-.2-.52v-.4a3.16,3.16,0,0,1-1.08.91,3,3,0,0,1-1.48.37,3.49,3.49,0,0,1-1.88-.53,3.63,3.63,0,0,1-1.33-1.49,5,5,0,0,1,0-4.28,3.68,3.68,0,0,1,1.32-1.49,3.41,3.41,0,0,1,1.85-.53,3.5,3.5,0,0,1,1.5.33,3.11,3.11,0,0,1,1.1.86v-.37a.76.76,0,0,1,.2-.53.66.66,0,0,1,.52-.22A.72.72,0,0,1,274.8,117.68ZM272.43,124a2.5,2.5,0,0,0,.87-1,3.25,3.25,0,0,0,.31-1.45,3.16,3.16,0,0,0-.31-1.43,2.56,2.56,0,0,0-.87-1,2.36,2.36,0,0,0-2.54,0,2.36,2.36,0,0,0-.87,1,3.45,3.45,0,0,0,0,2.9,2.42,2.42,0,0,0,.87,1,2.36,2.36,0,0,0,2.54,0Z" transform="translate(-251.47 -111.11)"/><path class="acffcb5e-5c14-4b4d-ba45-d1a0653d063e" d="M283.55,117.69a.62.62,0,0,1,.2.45.93.93,0,0,1-.11.39l-2.89,6.58a.82.82,0,0,1-.26.32.7.7,0,0,1-.37.14.71.71,0,0,1-.45-.09.81.81,0,0,1-.31-.37l-2.9-6.58a1.29,1.29,0,0,1-.07-.39.6.6,0,0,1,.2-.44.69.69,0,0,1,.51-.2.76.76,0,0,1,.42.12.82.82,0,0,1,.29.34l2.3,5.35,2.3-5.35a.7.7,0,0,1,.66-.46A.69.69,0,0,1,283.55,117.69Z" transform="translate(-251.47 -111.11)"/><path class="acffcb5e-5c14-4b4d-ba45-d1a0653d063e" d="M292,121.73a.72.72,0,0,1-.5.2h-5.37a2.62,2.62,0,0,0,.85,1.78,2.56,2.56,0,0,0,1.8.67,2.85,2.85,0,0,0,1.19-.21,3.12,3.12,0,0,0,.81-.55.87.87,0,0,1,.44-.14.6.6,0,0,1,.44.18.65.65,0,0,1,.17.43.76.76,0,0,1-.3.58,4,4,0,0,1-2.67,1,4.36,4.36,0,0,1-2.17-.52,3.55,3.55,0,0,1-1.45-1.45,4.29,4.29,0,0,1-.51-2.1,4.67,4.67,0,0,1,.52-2.25,3.82,3.82,0,0,1,1.39-1.48,3.47,3.47,0,0,1,1.85-.52,3.6,3.6,0,0,1,1.83.5,3.81,3.81,0,0,1,1.37,1.39,3.92,3.92,0,0,1,.54,2A.64.64,0,0,1,292,121.73Zm-5-2.51a2.37,2.37,0,0,0-.82,1.49h4.5v-.13a1.81,1.81,0,0,0-.73-1.32,2.26,2.26,0,0,0-1.47-.52A2.37,2.37,0,0,0,287,119.22Z" transform="translate(-251.47 -111.11)"/></g></svg>